{
.appVersion = "939";
DisplayStrings = (
"/q.001 wertyuiopasdfghjklzxcvbnm",
"United Peach Text",
"prototypes\012Smiley\012boyfriend\012layover\012happy\012squidbilly\012yass queen\012xylophone\012boxy",
"QWERTYUIOPASDFGHJKLZXVCBNM\012README",
"Illhkbicit\012",
"witchey case food\012oddity dozens"
);
customParameters = (
{
name = fsType;
value = (
);
},
{
name = licenseURL;
value = "http://scripts.sil.org/OFL";
},
{
name = license;
value = "This Font Software is licensed under the SIL Open Font License, Version 1.1. This license is available with a FAQ at: http://scripts.sil.org/OFL";
},
{
name = trademark;
value = "18Franklin is based on Libre Franklin, which is a trademark of Impallari Type.";
},
{
name = description;
value = "Libre Franklin is a reinterpretation and expansion of the 1912 Morris Fuller Benton’s classic.";
},
{
name = vendorID;
value = IMPA;
},
{
name = note;
value = "Based on Libre Franklin";
},
{
name = vsuffix;
value = "-v.024";
}
);
date = "2017-01-06 04:52:40 +0000";
designer = "Pablo Impallari, Rodrigo Fuenzalida (Modified by Dan O. Williams)";
familyName = 18Franklin;
featurePrefixes = (
{
automatic = 1;
code = "languagesystem DFLT dflt;\012languagesystem latn dflt;\012languagesystem latn CAT;\012languagesystem latn ROM;\012languagesystem latn MOL;\012languagesystem latn KAZ;\012languagesystem latn TAT;\012languagesystem latn TRK;\012languagesystem latn CRT;\012languagesystem latn AZE;\012";
name = Languagesystems;
}
);
features = (
{
automatic = 1;
code = "feature ccmp;\012feature locl;\012feature subs;\012feature sinf;\012feature sups;\012feature numr;\012feature dnom;\012feature frac;\012feature ordn;\012feature lnum;\012feature pnum;\012feature tnum;\012feature onum;\012feature salt;\012feature ss01;\012";
name = aalt;
},
{
automatic = 1;

glyphs = (
{
glyphname = A;
lastChange = "2017-03-01 18:52:29 +0000";
layers = (
{
anchors = (
{
name = ogonek;
position = "{739, 9}";
},
{
name = top;
position = "{388, 742}";
}
);
background = {
anchors = (
{
name = ogonek;
position = "{739, 9}";
},
{
name = top;
position = "{388, 742}";
}
);
paths = (
{
closed = 1;
nodes = (
"188 0 LINE SMOOTH",
"202 0 OFFCURVE",
"209 7 OFFCURVE",
"212 15 CURVE SMOOTH",
"253 133 LINE SMOOTH",
"255 140 OFFCURVE",
"260 144 OFFCURVE",
"268 144 CURVE SMOOTH",
"480 144 LINE SMOOTH",
"490 144 OFFCURVE",
"492 139 OFFCURVE",
"495 132 CURVE SMOOTH",
"534 17 LINE SMOOTH",
"538 4 OFFCURVE",
"546 0 OFFCURVE",
"556 0 CURVE SMOOTH",
"752 0 LINE SMOOTH",
"767 0 OFFCURVE",
"771 20 OFFCURVE",
"766 34 CURVE SMOOTH",
"526 715 LINE SMOOTH",
"520 731 OFFCURVE",
"507 742 OFFCURVE",
"490 742 CURVE SMOOTH",
"293 742 LINE SMOOTH",
"275 742 OFFCURVE",
"269 735 OFFCURVE",
"263 719 CURVE SMOOTH",
"21 37 LINE SMOOTH",
"13 15 OFFCURVE",
"21 0 OFFCURVE",
"36 0 CURVE SMOOTH"
);
},
{
closed = 1;
nodes = (
"304 314 OFFCURVE",
"301 322 OFFCURVE",
"306 335 CURVE SMOOTH",
"367 505 LINE SMOOTH",
"369 512 OFFCURVE",
"376 512 OFFCURVE",
"379 505 CURVE SMOOTH",
"439 334 LINE SMOOTH",
"443 321 OFFCURVE",
"441 314 OFFCURVE",
"430 314 CURVE SMOOTH",
"316 314 LINE SMOOTH"
);
}
);
};
layerId = "258ED206-D907-4350-8EBA-CBDDA1C16BF7";
paths = (
{
closed = 1;
nodes = (
"207 0 LINE",
"257 144 LINE",
"491 144 LINE",
"540 0 LINE",
"737 0 LINE",
"475 742 LINE",
"271 742 LINE",
"8 0 LINE"
);
},
{
closed = 1;
nodes = (
"373 551 LINE",
"446 314 LINE",
"299 314 LINE"
);
}
);
width = 745;
},
{
anchors = (
{
name = ogonek;
position = "{660, 11}";
},
{
name = top;
position = "{371, 742}";
}
);
background = {
anchors = (
{
name = ogonek;
position = "{660, 11}";
},
{
name = top;
position = "{371, 742}";
}
);
paths = (
{
closed = 1;
nodes = (
"106 0 LINE SMOOTH",
"112 0 OFFCURVE",
"116 2 OFFCURVE",
"117 7 CURVE SMOOTH",
"200 231 LINE SMOOTH",
"202 236 OFFCURVE",
"204 238 OFFCURVE",
"210 238 CURVE SMOOTH",
"532 238 LINE SMOOTH",
"538 238 OFFCURVE",
"540 236 OFFCURVE",
"542 231 CURVE SMOOTH",
"623 8 LINE SMOOTH",
"625 2 OFFCURVE",
"629 0 OFFCURVE",
"636 0 CURVE SMOOTH",
"660 0 LINE SMOOTH",
"667 0 OFFCURVE",
"670 4 OFFCURVE",
"668 10 CURVE SMOOTH",
"406 732 LINE SMOOTH",
"404 739 OFFCURVE",
"398 742 OFFCURVE",
"388 742 CURVE SMOOTH",
"355 742 LINE SMOOTH",
"346 742 OFFCURVE",
"342 739 OFFCURVE",
"339 731 CURVE SMOOTH",
"74 9 LINE SMOOTH",
"72 3 OFFCURVE",
"75 0 OFFCURVE",
"81 0 CURVE SMOOTH"
);
},
{
closed = 1;
nodes = (
"218 278 OFFCURVE",
"216 279 OFFCURVE",
"219 286 CURVE SMOOTH",
"364 677 LINE SMOOTH",
"369 691 OFFCURVE",
"374 691 OFFCURVE",
"379 678 CURVE SMOOTH",
"522 288 LINE SMOOTH",
"524 282 OFFCURVE",
"523 278 OFFCURVE",
"515 278 CURVE SMOOTH",
"224 278 LINE SMOOTH"
);
}
);
};
layerId = "91AB5BCA-6A50-42DA-B2F7-8181BF189245";
paths = (
{
closed = 1;
nodes = (
"114 0 LINE",
"203 238 LINE",
"539 238 LINE",
"626 0 LINE",
"672 0 LINE",
"402 742 LINE",
"343 742 LINE",
"71 0 LINE"
);
},
{
closed = 1;
nodes = (
"372 698 LINE",
"526 278 LINE",
"216 278 LINE"
);
}
);
width = 717;
}
);
leftKerningGroup = A;
rightKerningGroup = A;
unicode = 0041;
},
{
glyphname = Aringacute;
lastChange = "2016-11-02 00:47:50 +0000";
layers = (
{
background = {
paths = (
{
closed = 1;
nodes = (
"214 3 LINE",
"264 147 LINE",
"498 147 LINE",
"547 3 LINE",
"785 3 LINE",
"523 745 LINE",
"278 745 LINE",
"15 3 LINE"
);
},
{
closed = 1;
nodes = (
"380 524 LINE",
"453 317 LINE",
"306 317 LINE"
);
},
{
closed = 1;
nodes = (
"461 693 OFFCURVE",
"510 734 OFFCURVE",
"510 796 CURVE SMOOTH",
"510 856 OFFCURVE",
"461 899 OFFCURVE",
"400 899 CURVE SMOOTH",
"340 899 OFFCURVE",
"290 857 OFFCURVE",
"290 798 CURVE SMOOTH",
"290 735 OFFCURVE",
"339 693 OFFCURVE",
"400 693 CURVE SMOOTH"
);
},
{
closed = 1;
nodes = (
"373 746 OFFCURVE",
"350 769 OFFCURVE",
"350 795 CURVE SMOOTH",
"350 822 OFFCURVE",
"373 842 OFFCURVE",
"399 842 CURVE SMOOTH",
"426 842 OFFCURVE",
"447 822 OFFCURVE",
"447 795 CURVE SMOOTH",
"447 769 OFFCURVE",
"426 746 OFFCURVE",
"399 746 CURVE SMOOTH"
);
},
{
closed = 1;
nodes = (
"443 875 LINE",
"468 935 LINE SMOOTH",
"474 949 OFFCURVE",
"470 964 OFFCURVE",
"454 964 CURVE SMOOTH",
"409 964 LINE SMOOTH",
"390 964 OFFCURVE",
"377 958 OFFCURVE",
"371 933 CURVE SMOOTH",
"357 875 LINE"
);
}
);
};
layerId = "258ED206-D907-4350-8EBA-CBDDA1C16BF7";
paths = (
{
closed = 1;
nodes = (
"214 3 LINE",
"264 147 LINE",
"498 147 LINE",
"547 3 LINE",
"785 3 LINE",
"523 745 LINE",
"278 745 LINE",
"15 3 LINE"
);
},
{
closed = 1;
nodes = (
"380 524 LINE",
"453 317 LINE",
"306 317 LINE"
);
},
{
closed = 1;
nodes = (
"461 693 OFFCURVE",
"510 734 OFFCURVE",
"510 796 CURVE SMOOTH",
"510 856 OFFCURVE",
"461 899 OFFCURVE",
"400 899 CURVE SMOOTH",
"340 899 OFFCURVE",
"290 857 OFFCURVE",
"290 798 CURVE SMOOTH",
"290 735 OFFCURVE",
"339 693 OFFCURVE",
"400 693 CURVE SMOOTH"
);
},
{
closed = 1;
nodes = (
"373 746 OFFCURVE",
"350 769 OFFCURVE",
"350 795 CURVE SMOOTH",
"350 822 OFFCURVE",
"373 842 OFFCURVE",
"399 842 CURVE SMOOTH",
"426 842 OFFCURVE",
"447 822 OFFCURVE",
"447 795 CURVE SMOOTH",
"447 769 OFFCURVE",
"426 746 OFFCURVE",
"399 746 CURVE SMOOTH"
);
},
{
closed = 1;
nodes = (
"443 875 LINE",
"480 964 LINE",
"378 964 LINE",
"357 875 LINE"
);
}
);
width = 809;
},
{
background = {
paths = (
{
closed = 1;
nodes = (
"418 857 OFFCURVE",
"374 900 OFFCURVE",
"318 900 CURVE SMOOTH",
"263 900 OFFCURVE",
"218 857 OFFCURVE",
"218 804 CURVE SMOOTH",
"218 746 OFFCURVE",
"262 702 OFFCURVE",
"318 702 CURVE SMOOTH",
"374 702 OFFCURVE",
"418 745 OFFCURVE",
"418 802 CURVE SMOOTH"
);
},
{
closed = 1;
nodes = (
"375 770 OFFCURVE",
"350 742 OFFCURVE",
"317 742 CURVE SMOOTH",
"286 742 OFFCURVE",
"258 770 OFFCURVE",
"258 801 CURVE SMOOTH",
"258 836 OFFCURVE",
"286 860 OFFCURVE",
"317 860 CURVE SMOOTH",
"350 860 OFFCURVE",
"375 836 OFFCURVE",
"375 801 CURVE SMOOTH"
);
},
{
closed = 1;
nodes = (
"294 742 OFFCURVE",
"290 739 OFFCURVE",
"287 731 CURVE SMOOTH",
"40 9 LINE",
"38 4 OFFCURVE",
"41 0 OFFCURVE",
"47 0 CURVE SMOOTH",
"69 0 LINE SMOOTH",
"75 0 OFFCURVE",
"78 2 OFFCURVE",
"80 7 CURVE",
"157 231 LINE SMOOTH",
"159 236 OFFCURVE",
"161 238 OFFCURVE",
"167 238 CURVE SMOOTH",
"463 238 LINE SMOOTH",
"469 238 OFFCURVE",
"471 236 OFFCURVE",
"473 231 CURVE SMOOTH",
"549 8 LINE SMOOTH",
"551 2 OFFCURVE",
"554 0 OFFCURVE",
"561 0 CURVE SMOOTH",
"588 0 LINE SMOOTH",
"595 0 OFFCURVE",
"598 4 OFFCURVE",
"596 10 CURVE SMOOTH",
"353 732 LINE",
"351 739 OFFCURVE",
"345 742 OFFCURVE",
"335 742 CURVE SMOOTH",
"303 742 LINE SMOOTH"
);
},
{
closed = 1;
nodes = (
"457 282 OFFCURVE",
"456 278 OFFCURVE",
"448 278 CURVE SMOOTH",
"179 278 LINE SMOOTH",
"173 278 OFFCURVE",
"172 279 OFFCURVE",
"175 286 CURVE SMOOTH",
"308 677 LINE SMOOTH",
"313 691 OFFCURVE",
"319 691 OFFCURVE",
"323 678 CURVE SMOOTH",
"455 288 LINE SMOOTH"
);
},
{
closed = 1;
nodes = (
"328 964 OFFCURVE",
"323 960 OFFCURVE",
"321 951 CURVE SMOOTH",
"303 875 LINE",
"341 875 LINE",
"372 948 LINE SMOOTH",
"376 958 OFFCURVE",
"373 964 OFFCURVE",
"362 964 CURVE SMOOTH",
"339 964 LINE SMOOTH"
);
}
);
};
layerId = "91AB5BCA-6A50-42DA-B2F7-8181BF189245";
paths = (
{
closed = 1;
nodes = (
"78 0 LINE",
"159 238 LINE",
"471 238 LINE",
"552 0 LINE",
"599 0 LINE",
"350 742 LINE",
"291 742 LINE",
"37 0 LINE"
);
},
{
closed = 1;
nodes = (
"316 700 LINE",
"458 278 LINE",
"172 278 LINE"
);
},
{
closed = 1;
nodes = (
"374 702 OFFCURVE",
"418 745 OFFCURVE",
"418 802 CURVE SMOOTH",
"418 857 OFFCURVE",
"374 900 OFFCURVE",
"318 900 CURVE SMOOTH",
"263 900 OFFCURVE",
"218 857 OFFCURVE",
"218 804 CURVE SMOOTH",
"218 746 OFFCURVE",
"262 702 OFFCURVE",
"318 702 CURVE SMOOTH"
);
},
{
closed = 1;
nodes = (
"286 742 OFFCURVE",
"258 770 OFFCURVE",
"258 801 CURVE SMOOTH",
"258 836 OFFCURVE",
"286 860 OFFCURVE",
"317 860 CURVE SMOOTH",
"350 860 OFFCURVE",
"375 836 OFFCURVE",
"375 801 CURVE SMOOTH",
"375 770 OFFCURVE",
"350 742 OFFCURVE",
"317 742 CURVE SMOOTH"
);
},
{
closed = 1;
nodes = (
"341 875 LINE",
"379 964 LINE",
"324 964 LINE",
"303 875 LINE"
);
}
);
width = 637;
}
);
leftKerningGroup = A;
rightKerningGroup = A;
unicode = 01FA;
},
{
glyphname = AE;
lastChange = "2017-01-26 17:40:58 +0000";
layers = (
{
anchors = (
{
name = top;
position = "{717, 742}";
}
);
background = {
anchors = (
{
name = top;
position = "{717, 742}";
}
);
paths = (
{
closed = 1;
nodes = (
"743 164 LINE SMOOTH",
"734 164 OFFCURVE",
"731 167 OFFCURVE",
"731 178 CURVE SMOOTH",
"731 278 LINE SMOOTH",
"731 286 OFFCURVE",
"737 292 OFFCURVE",
"747 292 CURVE SMOOTH",
"932 292 LINE SMOOTH",
"945 292 OFFCURVE",
"950 300 OFFCURVE",
"950 309 CURVE SMOOTH",
"950 433 LINE SMOOTH",
"950 446 OFFCURVE",
"943 453 OFFCURVE",
"929 453 CURVE SMOOTH",
"749 453 LINE SMOOTH",
"739 453 OFFCURVE",
"731 460 OFFCURVE",
"731 474 CURVE SMOOTH",
"731 559 LINE SMOOTH",
"731 572 OFFCURVE",
"739 578 OFFCURVE",
"754 578 CURVE SMOOTH",
"1054 578 LINE SMOOTH",
"1072 578 OFFCURVE",
"1080 589 OFFCURVE",
"1080 605 CURVE SMOOTH",
"1081 721 LINE SMOOTH",
"1081 734 OFFCURVE",
"1075 742 OFFCURVE",
"1063 742 CURVE SMOOTH",
"414 742 LINE SMOOTH",
"397 742 OFFCURVE",
"389 735 OFFCURVE",
"381 719 CURVE SMOOTH",
"27 37 LINE SMOOTH",
"15 15 OFFCURVE",
"21 0 OFFCURVE",
"36 0 CURVE SMOOTH",
"188 0 LINE SMOOTH",
"202 0 OFFCURVE",
"210 7 OFFCURVE",
"214 15 CURVE SMOOTH",
"273 133 LINE",
"276 140 OFFCURVE",
"282 144 OFFCURVE",
"290 144 CURVE SMOOTH",
"491 144 LINE SMOOTH",
"501 144 OFFCURVE",
"504 139 OFFCURVE",
"504 130 CURVE SMOOTH",
"504 25 LINE SMOOTH",
"504 8 OFFCURVE",
"511 0 OFFCURVE",
"531 0 CURVE SMOOTH",
"1066 0 LINE SMOOTH",
"1083 0 OFFCURVE",
"1090 10 OFFCURVE",
"1090 22 CURVE SMOOTH",
"1090 145 LINE SMOOTH",
"1090 159 OFFCURVE",
"1082 164 OFFCURVE",
"1068 164 CURVE SMOOTH"
);
},
{
closed = 1;
nodes = (
"368 314 LINE SMOOTH",
"356 314 OFFCURVE",
"354 322 OFFCURVE",
"362 335 CURVE",
"464 537 LINE SMOOTH",
"480 567 OFFCURVE",
"504 565 OFFCURVE",
"504 535 CURVE SMOOTH",
"504 334 LINE SMOOTH",
"504 321 OFFCURVE",
"497 314 OFFCURVE",
"485 314 CURVE SMOOTH"
);
}
);
};
layerId = "258ED206-D907-4350-8EBA-CBDDA1C16BF7";
paths = (
{
closed = 1;
nodes = (
"731 164 LINE",
"731 292 LINE",
"950 292 LINE",
"950 453 LINE",
"731 453 LINE",
"731 578 LINE",
"1080 578 LINE",
"1081 742 LINE",
"393 742 LINE",
"8 0 LINE",
"207 0 LINE",
"278 144 LINE",
"504 144 LINE",
"504 0 LINE",
"1090 0 LINE",
"1090 164 LINE"
);
},
{
closed = 1;
nodes = (
"351 314 LINE",
"504 616 LINE",
"504 314 LINE"
);
}
);
width = 1133;
},
{
anchors = (
{
name = top;
position = "{683, 742}";
}
);
background = {
anchors = (
{
name = top;
position = "{683, 742}";
}
);
paths = (
{
closed = 1;
nodes = (
"552 40 LINE SMOOTH",
"545 40 OFFCURVE",
"543 41 OFFCURVE",
"543 49 CURVE SMOOTH",
"543 346 LINE SMOOTH",
"543 354 OFFCURVE",
"545 355 OFFCURVE",
"552 355 CURVE SMOOTH",
"820 355 LINE SMOOTH",
"826 355 OFFCURVE",
"828 356 OFFCURVE",
"828 362 CURVE SMOOTH",
"828 388 LINE SMOOTH",
"828 393 OFFCURVE",
"826 395 OFFCURVE",
"821 395 CURVE SMOOTH",
"552 395 LINE SMOOTH",
"545 395 OFFCURVE",
"543 396 OFFCURVE",
"543 402 CURVE SMOOTH",
"543 693 LINE SMOOTH",
"543 701 OFFCURVE",
"545 702 OFFCURVE",
"552 702 CURVE SMOOTH",
"890 702 LINE SMOOTH",
"896 702 OFFCURVE",
"898 703 OFFCURVE",
"898 709 CURVE SMOOTH",
"898 735 LINE SMOOTH",
"898 740 OFFCURVE",
"896 742 OFFCURVE",
"891 742 CURVE SMOOTH",
"486 742 LINE SMOOTH",
"477 742 OFFCURVE",
"472 739 OFFCURVE",
"468 731 CURVE",
"55 9 LINE SMOOTH",
"52 4 OFFCURVE",
"54 0 OFFCURVE",
"60 0 CURVE SMOOTH",
"85 0 LINE SMOOTH",
"91 0 OFFCURVE",
"94 2 OFFCURVE",
"97 7 CURVE SMOOTH",
"226 231 LINE SMOOTH",
"229 236 OFFCURVE",
"232 238 OFFCURVE",
"238 238 CURVE SMOOTH",
"492 238 LINE SMOOTH",
"495 238 OFFCURVE",
"497 236 OFFCURVE",
"497 233 CURVE SMOOTH",
"497 10 LINE SMOOTH",
"497 2 OFFCURVE",
"499 0 OFFCURVE",
"506 0 CURVE SMOOTH",
"906 0 LINE SMOOTH",
"911 0 OFFCURVE",
"913 2 OFFCURVE",
"913 7 CURVE SMOOTH",
"913 33 LINE SMOOTH",
"913 39 OFFCURVE",
"911 40 OFFCURVE",
"905 40 CURVE SMOOTH"
);
},
{
closed = 1;
nodes = (
"257 278 LINE SMOOTH",
"251 278 OFFCURVE",
"250 279 OFFCURVE",
"254 286 CURVE SMOOTH",
"482 677 LINE SMOOTH",
"490 691 OFFCURVE",
"496 691 OFFCURVE",
"497 678 CURVE",
"497 287 LINE SMOOTH",
"497 282 OFFCURVE",
"495 278 OFFCURVE",
"489 278 CURVE SMOOTH"
);
}
);
};
layerId = "91AB5BCA-6A50-42DA-B2F7-8181BF189245";
paths = (
{
closed = 1;
nodes = (
"543 40 LINE",
"543 355 LINE",
"828 355 LINE",
"828 395 LINE",
"543 395 LINE",
"543 702 LINE",
"898 702 LINE",
"898 742 LINE",
"474 742 LINE",
"50 0 LINE",
"93 0 LINE",
"230 238 LINE",
"497 238 LINE",
"497 0 LINE",
"913 0 LINE",
"913 40 LINE"
);
},
{
closed = 1;
nodes = (
"249 278 LINE",
"497 703 LINE",
"497 278 LINE"
);
}
);
width = 965;
}
);
leftKerningGroup = AE;
leftMetricsKey = A;
rightMetricsKey = E;
unicode = 00C6;
},
{
glyphname = B;
lastChange = "2017-02-17 19:24:23 +0000";
layers = (
{
background = {
paths = (
{
closed = 1;
nodes = (
"389 0 LINE SMOOTH",
"605 0 OFFCURVE",
"708 65 OFFCURVE",
"708 202 CURVE SMOOTH",
"708 287 OFFCURVE",
"669 338 OFFCURVE",
"559 379 CURVE SMOOTH",
"556 380 OFFCURVE",
"556 385 OFFCURVE",
"559 386 CURVE SMOOTH",
"659 432 OFFCURVE",
"690 477 OFFCURVE",
"690 546 CURVE SMOOTH",
"690 675 OFFCURVE",
"580 742 OFFCURVE",
"373 742 CURVE SMOOTH",
"75 742 LINE SMOOTH",
"60 742 OFFCURVE",
"50 731 OFFCURVE",
"50 716 CURVE SMOOTH",
"50 22 LINE SMOOTH",
"50 10 OFFCURVE",
"59 0 OFFCURVE",
"73 0 CURVE SMOOTH"
);
},
{
closed = 1;
nodes = (
"281 150 OFFCURVE",
"277 157 OFFCURVE",
"277 172 CURVE SMOOTH",
"277 277 LINE SMOOTH",
"277 292 OFFCURVE",
"283 298 OFFCURVE",
"300 298 CURVE SMOOTH",
"389 298 LINE SMOOTH",
"439 298 OFFCURVE",
"472 268 OFFCURVE",
"472 227 CURVE SMOOTH",
"472 188 OFFCURVE",
"442 150 OFFCURVE",
"384 150 CURVE SMOOTH",
"294 150 LINE SMOOTH"
);
},
{
closed = 1;
nodes = (
"281 452 OFFCURVE",
"277 459 OFFCURVE",
"277 474 CURVE SMOOTH",
"277 572 LINE SMOOTH",
"277 587 OFFCURVE",
"283 592 OFFCURVE",
"300 592 CURVE SMOOTH",
"382 592 LINE SMOOTH",
"429 592 OFFCURVE",
"466 564 OFFCURVE",
"466 520 CURVE SMOOTH",
"466 481 OFFCURVE",
"436 452 OFFCURVE",
"389 452 CURVE SMOOTH",
"294 452 LINE SMOOTH"
);
}
);
};
layerId = "258ED206-D907-4350-8EBA-CBDDA1C16BF7";
paths = (
{
closed = 1;
nodes = (
"369 0 LINE SMOOTH",
"585 0 OFFCURVE",
"668 64 OFFCURVE",
"668 202 CURVE",
"668 257 OFFCURVE",
"661 343 OFFCURVE",
"530 382 CURVE",
"622 427 OFFCURVE",
"650 477 OFFCURVE",
"650 546 CURVE SMOOTH",
"650 672 OFFCURVE",
"560 742 OFFCURVE",
"353 742 CURVE SMOOTH",
"50 742 LINE",
"50 0 LINE"
);
},
{
closed = 1;
nodes = (
"257 298 LINE",
"369 298 LINE",
"419 298 OFFCURVE",
"452 268 OFFCURVE",
"452 227 CURVE SMOOTH",
"452 188 OFFCURVE",
"422 150 OFFCURVE",
"364 150 CURVE",
"257 150 LINE"
);
},
{
closed = 1;
nodes = (
"257 592 LINE",
"362 592 LINE SMOOTH",
"409 592 OFFCURVE",
"446 564 OFFCURVE",
"446 520 CURVE SMOOTH",
"446 481 OFFCURVE",
"416 452 OFFCURVE",
"369 452 CURVE SMOOTH",
"257 452 LINE"
);
}
);
width = 701;
},
{
background = {
paths = (
{
closed = 1;
nodes = (
"342 0 LINE SMOOTH",
"517 0 OFFCURVE",
"620 65 OFFCURVE",
"620 197 CURVE SMOOTH",
"620 297 OFFCURVE",
"561 356 OFFCURVE",
"471 373 CURVE SMOOTH",
"465 374 OFFCURVE",
"465 380 OFFCURVE",
"471 382 CURVE SMOOTH",
"559 409 OFFCURVE",
"602 467 OFFCURVE",
"602 551 CURVE SMOOTH",
"602 675 OFFCURVE",
"505 742 OFFCURVE",
"339 742 CURVE SMOOTH",
"134 742 LINE SMOOTH",
"127 742 OFFCURVE",
"125 740 OFFCURVE",
"125 732 CURVE SMOOTH",
"125 8 LINE SMOOTH",
"125 3 OFFCURVE",
"128 0 OFFCURVE",
"133 0 CURVE SMOOTH"
);
},
{
closed = 1;
nodes = (
"173 40 OFFCURVE",
"171 43 OFFCURVE",
"171 50 CURVE SMOOTH",
"171 346 LINE SMOOTH",
"171 353 OFFCURVE",
"174 355 OFFCURVE",
"182 355 CURVE SMOOTH",
"351 355 LINE SMOOTH",
"476 355 OFFCURVE",
"572 311 OFFCURVE",
"572 191 CURVE SMOOTH",
"572 82 OFFCURVE",
"495 40 OFFCURVE",
"337 40 CURVE SMOOTH",
"178 40 LINE SMOOTH"
);
},
{
closed = 1;
nodes = (
"173 395 OFFCURVE",
"171 398 OFFCURVE",
"171 405 CURVE SMOOTH",
"171 694 LINE SMOOTH",
"171 700 OFFCURVE",
"174 702 OFFCURVE",
"180 702 CURVE SMOOTH",
"335 702 LINE SMOOTH",
"470 702 OFFCURVE",
"554 654 OFFCURVE",
"554 546 CURVE SMOOTH",
"554 424 OFFCURVE",
"444 395 OFFCURVE",
"351 395 CURVE SMOOTH",
"178 395 LINE SMOOTH"
);
}
);
};
layerId = "91AB5BCA-6A50-42DA-B2F7-8181BF189245";
paths = (
{
closed = 1;
nodes = (
"340 0 LINE",
"515 0 OFFCURVE",
"618 65 OFFCURVE",
"618 197 CURVE",
"618 295 OFFCURVE",
"563 358 OFFCURVE",
"453 376 CURVE",
"560 407 OFFCURVE",
"600 467 OFFCURVE",
"600 551 CURVE SMOOTH",
"600 675 OFFCURVE",
"503 742 OFFCURVE",
"337 742 CURVE SMOOTH",
"125 742 LINE",
"125 0 LINE"
);
},
{
closed = 1;
nodes = (
"169 355 LINE",
"349 355 LINE SMOOTH",
"474 355 OFFCURVE",
"576 311 OFFCURVE",
"576 191 CURVE SMOOTH",
"576 82 OFFCURVE",
"493 40 OFFCURVE",
"335 40 CURVE",
"169 40 LINE"
);
},
{
closed = 1;
nodes = (
"169 702 LINE",
"333 702 LINE SMOOTH",
"468 702 OFFCURVE",
"558 654 OFFCURVE",
"558 546 CURVE SMOOTH",
"558 424 OFFCURVE",
"442 395 OFFCURVE",
"349 395 CURVE SMOOTH",
"169 395 LINE"
);
}
);
width = 663;
}
);
leftMetricsKey = N;
rightKerningGroup = B;
unicode = 0042;
},
{
glyphname = C;
lastChange = "2017-02-25 02:47:02 +0000";
layers = (
{
anchors = (
{
name = bottom;
position = "{375, 0}";
},
{
name = top;
position = "{375, 742}";
}
);
background = {
anchors = (
{
name = bottom;
position = "{373, 0}";
},
{
name = top;
position = "{375, 742}";
}
);
paths = (
{
closed = 1;
nodes = (
"158 752 OFFCURVE",
"20 606 OFFCURVE",
"20 381 CURVE SMOOTH",
"20 155 OFFCURVE",
"158 -10 OFFCURVE",
"373 -10 CURVE SMOOTH",
"604 -10 OFFCURVE",
"690 167 OFFCURVE",
"700 221 CURVE SMOOTH",
"704 247 OFFCURVE",
"693 252 OFFCURVE",
"686 254 CURVE SMOOTH",
"561 279 LINE SMOOTH",
"545 282 OFFCURVE",
"536 279 OFFCURVE",
"533 271 CURVE SMOOTH",
"498 183 OFFCURVE",
"447 154 OFFCURVE",
"380 154 CURVE SMOOTH",
"299 154 OFFCURVE",
"258 212 OFFCURVE",
"258 377 CURVE SMOOTH",
"258 540 OFFCURVE",
"306 598 OFFCURVE",
"381 598 CURVE SMOOTH",
"449 598 OFFCURVE",
"476 544 OFFCURVE",
"488 475 CURVE",
"678 487 LINE",
"693 489 OFFCURVE",
"697 494 OFFCURVE",
"691 522 CURVE SMOOTH",
"665 655 OFFCURVE",
"544 752 OFFCURVE",
"375 752 CURVE SMOOTH"
);
}
);
};
guideLines = (
{
angle = -183.559;
position = "{500, 331}";
}
);
layerId = "258ED206-D907-4350-8EBA-CBDDA1C16BF7";
paths = (
{
closed = 1;
nodes = (
"158 752 OFFCURVE",
"20 606 OFFCURVE",
"20 381 CURVE SMOOTH",
"20 155 OFFCURVE",
"160 -10 OFFCURVE",
"375 -10 CURVE SMOOTH",
"612 -10 OFFCURVE",
"676 110 OFFCURVE",
"697 264 CURVE",
"499 277 LINE",
"487 208 OFFCURVE",
"449 154 OFFCURVE",
"381 154 CURVE SMOOTH",
"306 154 OFFCURVE",
"258 212 OFFCURVE",
"258 377 CURVE SMOOTH",
"258 540 OFFCURVE",
"306 598 OFFCURVE",
"381 598 CURVE SMOOTH",
"449 598 OFFCURVE",
"487 544 OFFCURVE",
"499 475 CURVE",
"697 488 LINE",
"680 648 OFFCURVE",
"551 752 OFFCURVE",
"375 752 CURVE SMOOTH"
);
}
);
width = 735;
},
{
anchors = (
{
name = bottom;
position = "{382, 0}";
},
{
name = top;
position = "{382, 742}";
}
);
background = {
anchors = (
{
name = bottom;
position = "{388, 0}";
},
{
name = top;
position = "{382, 742}";
}
);
guideLines = (
{
angle = 90;
position = "{643, 369}";
}
);
paths = (
{
closed = 1;
nodes = (
"195 752 OFFCURVE",
"85 610 OFFCURVE",
"85 368 CURVE SMOOTH",
"85 127 OFFCURVE",
"195 -10 OFFCURVE",
"388 -10 CURVE SMOOTH",
"509 -10 OFFCURVE",
"609 61 OFFCURVE",
"644 171 CURVE SMOOTH",
"645 175 OFFCURVE",
"644 177 OFFCURVE",
"642 178 CURVE SMOOTH",
"608 188 LINE SMOOTH",
"605 189 OFFCURVE",
"603 188 OFFCURVE",
"602 186 CURVE SMOOTH",
"562 81 OFFCURVE",
"496 32 OFFCURVE",
"392 32 CURVE SMOOTH",
"219 32 OFFCURVE",
"133 153 OFFCURVE",
"133 368 CURVE SMOOTH",
"133 591 OFFCURVE",
"221 710 OFFCURVE",
"384 710 CURVE SMOOTH",
"485 710 OFFCURVE",
"565 647 OFFCURVE",
"588 552 CURVE SMOOTH",
"589 546 OFFCURVE",
"591 544 OFFCURVE",
"595 545 CURVE SMOOTH",
"631 549 LINE SMOOTH",
"636 549 OFFCURVE",
"637 551 OFFCURVE",
"636 556 CURVE SMOOTH",
"624 659 OFFCURVE",
"504 752 OFFCURVE",
"382 752 CURVE SMOOTH"
);
}
);
};
guideLines = (
{
angle = 90;
position = "{751, 369}";
}
);
layerId = "91AB5BCA-6A50-42DA-B2F7-8181BF189245";
paths = (
{
closed = 1;
nodes = (
"187 752 OFFCURVE",
"85 610 OFFCURVE",
"85 368 CURVE SMOOTH",
"85 127 OFFCURVE",
"189 -10 OFFCURVE",
"382 -10 CURVE SMOOTH",
"504 -10 OFFCURVE",
"622 71 OFFCURVE",
"633 177 CURVE",
"590 189 LINE",
"567 89 OFFCURVE",
"486 32 OFFCURVE",
"384 32 CURVE SMOOTH",
"211 32 OFFCURVE",
"127 153 OFFCURVE",
"127 368 CURVE SMOOTH",
"127 591 OFFCURVE",
"213 710 OFFCURVE",
"376 710 CURVE SMOOTH",
"503 710 OFFCURVE",
"574 639 OFFCURVE",
"593 543 CURVE",
"637 550 LINE",
"625 656 OFFCURVE",
"526 752 OFFCURVE",
"374 752 CURVE SMOOTH"
);
}
);
width = 707;
}
);
leftKerningGroup = O;
unicode = 0043;
},
{
glyphname = D;
lastChange = "2017-03-01 18:51:11 +0000";
layers = (
{
anchors = (
{
name = center;
position = "{361, 371}";
},
{
name = top;
position = "{361, 742}";
}
);
background = {
anchors = (
{
name = center;
position = "{361, 371}";
},
{
name = top;
position = "{361, 742}";
}
);
paths = (
{
closed = 1;
nodes = (
"23 0 LINE",
"315 0 LINE SMOOTH",
"578 0 OFFCURVE",
"711 157 OFFCURVE",
"711 373 CURVE SMOOTH",
"711 584 OFFCURVE",
"584 731 OFFCURVE",
"316 741 CURVE SMOOTH",
"252 743 OFFCURVE",
"44 742 OFFCURVE",
"23 742 CURVE"
);
},
{
closed = 1;
nodes = (
"270 585 LINE SMOOTH",
"422 585 OFFCURVE",
"473 513 OFFCURVE",
"473 376 CURVE SMOOTH",
"473 215 OFFCURVE",
"397 157 OFFCURVE",
"271 157 CURVE SMOOTH",
"250 157 LINE",
"250 585 LINE"
);
}
);
};
layerId = "258ED206-D907-4350-8EBA-CBDDA1C16BF7";
paths = (
{
closed = 1;
nodes = (
"50 0 LINE",
"315 0 LINE SMOOTH",
"578 0 OFFCURVE",
"700 157 OFFCURVE",
"700 373 CURVE SMOOTH",
"700 584 OFFCURVE",
"584 731 OFFCURVE",
"316 741 CURVE SMOOTH",
"252 743 OFFCURVE",
"71 742 OFFCURVE",
"50 742 CURVE"
);
},
{
closed = 1;
nodes = (
"270 585 LINE SMOOTH",
"422 585 OFFCURVE",
"492 513 OFFCURVE",
"492 376 CURVE SMOOTH",
"492 215 OFFCURVE",
"397 157 OFFCURVE",
"271 157 CURVE SMOOTH",
"250 157 LINE",
"250 585 LINE"
);
}
);
width = 720;
},
{
anchors = (
{
name = center;
position = "{347, 371}";
},
{
name = top;
position = "{341, 742}";
}
);
background = {
anchors = (
{
name = center;
position = "{347, 371}";
},
{
name = top;
position = "{341, 742}";
}
);
paths = (
{
closed = 1;
nodes = (
"119 0 LINE",
"230 0 LINE SMOOTH",
"502 0 OFFCURVE",
"631 115 OFFCURVE",
"631 376 CURVE SMOOTH",
"631 624 OFFCURVE",
"519 739 OFFCURVE",
"244 741 CURVE SMOOTH",
"182 741 OFFCURVE",
"121 742 OFFCURVE",
"119 742 CURVE"
);
},
{
closed = 1;
nodes = (
"167 701 OFFCURVE",
"215 701 OFFCURVE",
"233 701 CURVE SMOOTH",
"477 696 OFFCURVE",
"583 628 OFFCURVE",
"583 372 CURVE SMOOTH",
"583 130 OFFCURVE",
"484 40 OFFCURVE",
"226 40 CURVE SMOOTH",
"165 40 LINE",
"165 701 LINE"
);
}
);
};
layerId = "91AB5BCA-6A50-42DA-B2F7-8181BF189245";
paths = (
{
closed = 1;
nodes = (
"125 0 LINE",
"230 0 LINE SMOOTH",
"502 0 OFFCURVE",
"631 115 OFFCURVE",
"631 376 CURVE SMOOTH",
"631 624 OFFCURVE",
"519 739 OFFCURVE",
"244 741 CURVE SMOOTH",
"182 741 OFFCURVE",
"127 742 OFFCURVE",
"125 742 CURVE"
);
},
{
closed = 1;
nodes = (
"233 701 LINE SMOOTH",
"477 696 OFFCURVE",
"589 628 OFFCURVE",
"589 372 CURVE SMOOTH",
"589 130 OFFCURVE",
"484 40 OFFCURVE",
"226 40 CURVE SMOOTH",
"165 40 LINE",
"165 701 LINE"
);
}
);
width = 691;
}
);
leftMetricsKey = N;
rightKerningGroup = O;
unicode = 0044;
},
{
glyphname = Eth;
lastChange = "2017-01-26 17:40:53 +0000";
layers = (
{
background = {
components = (
{
name = D;
transform = "{1, 0, 0, 1, 20, 0}";
}
);
paths = (
{
closed = 1;
nodes = (
"432 426 OFFCURVE",
"425 434 OFFCURVE",
"414 434 CURVE SMOOTH",
"43 434 LINE SMOOTH",
"31 434 OFFCURVE",
"24 426 OFFCURVE",
"24 411 CURVE SMOOTH",
"24 318 LINE SMOOTH",
"24 301 OFFCURVE",
"30 293 OFFCURVE",
"50 293 CURVE SMOOTH",
"399 293 LINE SMOOTH",
"422 293 OFFCURVE",
"432 301 OFFCURVE",
"432 321 CURVE SMOOTH",
"432 414 LINE SMOOTH"
);
}
);
};
components = (
{
name = D;
transform = "{1, 0, 0, 1, 20, 0}";
}
);
layerId = "258ED206-D907-4350-8EBA-CBDDA1C16BF7";
paths = (
{
closed = 1;
nodes = (
"432 426 OFFCURVE",
"425 434 OFFCURVE",
"414 434 CURVE SMOOTH",
"43 434 LINE SMOOTH",
"31 434 OFFCURVE",
"24 426 OFFCURVE",
"24 411 CURVE SMOOTH",
"24 318 LINE SMOOTH",
"24 301 OFFCURVE",
"30 293 OFFCURVE",
"50 293 CURVE SMOOTH",
"399 293 LINE SMOOTH",
"422 293 OFFCURVE",
"432 301 OFFCURVE",
"432 321 CURVE SMOOTH",
"432 414 LINE SMOOTH"
);
}
);
width = 760;
},
{
background = {
components = (
{
name = D;
}
);
paths = (
{
closed = 1;
nodes = (
"342 392 OFFCURVE",
"340 395 OFFCURVE",
"335 395 CURVE SMOOTH",
"42 395 LINE SMOOTH",
"37 395 OFFCURVE",
"35 392 OFFCURVE",
"35 386 CURVE SMOOTH",
"35 363 LINE SMOOTH",
"35 356 OFFCURVE",
"37 353 OFFCURVE",
"45 353 CURVE SMOOTH",
"329 353 LINE SMOOTH",
"338 353 OFFCURVE",
"342 356 OFFCURVE",
"342 364 CURVE SMOOTH",
"342 387 LINE SMOOTH"
);
}
);
};
components = (
{
name = D;
transform = "{1, 0, 0, 1, -4, 0}";
}
);
layerId = "91AB5BCA-6A50-42DA-B2F7-8181BF189245";
paths = (
{
closed = 1;
nodes = (
"342 392 OFFCURVE",
"340 395 OFFCURVE",
"335 395 CURVE SMOOTH",
"42 395 LINE SMOOTH",
"37 395 OFFCURVE",
"35 392 OFFCURVE",
"35 386 CURVE SMOOTH",
"35 363 LINE SMOOTH",
"35 356 OFFCURVE",
"37 353 OFFCURVE",
"45 353 CURVE SMOOTH",
"329 353 LINE SMOOTH",
"338 353 OFFCURVE",
"342 356 OFFCURVE",
"342 364 CURVE SMOOTH",
"342 387 LINE SMOOTH"
);
}
);
width = 699;
}
);
rightKerningGroup = O;
rightMetricsKey = D;
unicode = 00D0;
},
{
glyphname = E;
lastChange = "2017-02-17 19:22:49 +0000";
layers = (
{
anchors = (
{
name = bottom;
position = "{334, 0}";
},
{
name = ogonek;
position = "{608, 10}";
},
{
name = top;
position = "{334, 742}";
}
);
background = {
anchors = (
{
name = bottom;
position = "{334, 0}";
},
{
name = ogonek;
position = "{608, 10}";
},
{
name = top;
position = "{334, 742}";
}
);
paths = (
{
closed = 1;
nodes = (
"50 25 LINE SMOOTH",
"50 8 OFFCURVE",
"57 0 OFFCURVE",
"77 0 CURVE SMOOTH",
"612 0 LINE SMOOTH",
"629 0 OFFCURVE",
"636 10 OFFCURVE",
"636 22 CURVE SMOOTH",
"636 145 LINE SMOOTH",
"636 159 OFFCURVE",
"628 164 OFFCURVE",
"614 164 CURVE SMOOTH",
"289 164 LINE SMOOTH",
"280 164 OFFCURVE",
"277 167 OFFCURVE",
"277 178 CURVE SMOOTH",
"277 278 LINE SMOOTH",
"277 286 OFFCURVE",
"283 292 OFFCURVE",
"293 292 CURVE SMOOTH",
"478 292 LINE SMOOTH",
"491 292 OFFCURVE",
"496 300 OFFCURVE",
"496 309 CURVE SMOOTH",
"496 433 LINE SMOOTH",
"496 446 OFFCURVE",
"489 453 OFFCURVE",
"475 453 CURVE SMOOTH",
"295 453 LINE SMOOTH",
"285 453 OFFCURVE",
"277 460 OFFCURVE",
"277 474 CURVE SMOOTH",
"277 559 LINE SMOOTH",
"277 572 OFFCURVE",
"285 578 OFFCURVE",
"300 578 CURVE SMOOTH",
"600 578 LINE SMOOTH",
"618 578 OFFCURVE",
"626 589 OFFCURVE",
"626 605 CURVE SMOOTH",
"627 721 LINE SMOOTH",
"627 734 OFFCURVE",
"621 742 OFFCURVE",
"609 742 CURVE SMOOTH",
"69 742 LINE SMOOTH",
"57 742 OFFCURVE",
"50 734 OFFCURVE",
"50 719 CURVE SMOOTH"
);
}
);
};
layerId = "258ED206-D907-4350-8EBA-CBDDA1C16BF7";
paths = (
{
closed = 1;
nodes = (
"621 0 LINE",
"621 164 LINE",
"261 164 LINE",
"261 292 LINE",
"481 292 LINE",
"481 453 LINE",
"262 453 LINE",
"262 578 LINE",
"611 578 LINE",
"612 742 LINE",
"50 742 LINE",
"50 0 LINE"
);
}
);
width = 664;
},
{
anchors = (
{
name = bottom;
position = "{375, 0}";
},
{
name = ogonek;
position = "{560, 10}";
},
{
name = top;
position = "{356, 742}";
}
);
background = {
anchors = (
{
name = bottom;
position = "{375, 0}";
},
{
name = ogonek;
position = "{560, 10}";
},
{
name = top;
position = "{356, 742}";
}
);
paths = (
{
closed = 1;
nodes = (
"125 10 LINE SMOOTH",
"125 2 OFFCURVE",
"127 0 OFFCURVE",
"134 0 CURVE SMOOTH",
"564 0 LINE SMOOTH",
"569 0 OFFCURVE",
"571 2 OFFCURVE",
"571 7 CURVE SMOOTH",
"571 33 LINE SMOOTH",
"571 39 OFFCURVE",
"569 40 OFFCURVE",
"563 40 CURVE SMOOTH",
"180 40 LINE SMOOTH",
"173 40 OFFCURVE",
"171 41 OFFCURVE",
"171 49 CURVE SMOOTH",
"171 346 LINE SMOOTH",
"171 354 OFFCURVE",
"173 355 OFFCURVE",
"180 355 CURVE SMOOTH",
"468 355 LINE SMOOTH",
"474 355 OFFCURVE",
"476 356 OFFCURVE",
"476 362 CURVE SMOOTH",
"476 388 LINE SMOOTH",
"476 393 OFFCURVE",
"474 395 OFFCURVE",
"469 395 CURVE SMOOTH",
"180 395 LINE SMOOTH",
"173 395 OFFCURVE",
"171 396 OFFCURVE",
"171 402 CURVE SMOOTH",
"171 693 LINE SMOOTH",
"171 701 OFFCURVE",
"173 702 OFFCURVE",
"180 702 CURVE SMOOTH",
"548 702 LINE SMOOTH",
"554 702 OFFCURVE",
"556 703 OFFCURVE",
"556 709 CURVE SMOOTH",
"556 735 LINE SMOOTH",
"556 740 OFFCURVE",
"554 742 OFFCURVE",
"549 742 CURVE SMOOTH",
"134 742 LINE SMOOTH",
"127 742 OFFCURVE",
"125 740 OFFCURVE",
"125 732 CURVE SMOOTH"
);
}
);
};
layerId = "91AB5BCA-6A50-42DA-B2F7-8181BF189245";
paths = (
{
closed = 1;
nodes = (
"569 0 LINE",
"569 39 LINE",
"169 40 LINE",
"169 355 LINE",
"474 355 LINE",
"474 395 LINE",
"169 395 LINE",
"169 702 LINE",
"554 702 LINE",
"554 742 LINE",
"125 742 LINE",
"125 0 LINE"
);
}
);
width = 634;
}
);
leftMetricsKey = N;
unicode = 0045;
},
{
glyphname = F;
lastChange = "2017-02-17 19:25:33 +0000";
layers = (
{
background = {
paths = (
{
closed = 1;
nodes = (
"23 25 LINE SMOOTH",
"23 8 OFFCURVE",
"29 0 OFFCURVE",
"50 0 CURVE",
"217 0 LINE SMOOTH",
"240 0 OFFCURVE",
"250 8 OFFCURVE",
"250 29 CURVE SMOOTH",
"250 271 LINE SMOOTH",
"250 280 OFFCURVE",
"256 286 OFFCURVE",
"266 286 CURVE SMOOTH",
"453 286 LINE SMOOTH",
"467 286 OFFCURVE",
"471 293 OFFCURVE",
"471 303 CURVE SMOOTH",
"471 425 LINE SMOOTH",
"471 438 OFFCURVE",
"465 445 OFFCURVE",
"451 445 CURVE SMOOTH",
"268 445 LINE SMOOTH",
"257 445 OFFCURVE",
"250 451 OFFCURVE",
"250 465 CURVE SMOOTH",
"250 559 LINE SMOOTH",
"250 572 OFFCURVE",
"257 578 OFFCURVE",
"273 578 CURVE SMOOTH",
"567 578 LINE SMOOTH",
"585 578 OFFCURVE",
"592 589 OFFCURVE",
"592 605 CURVE SMOOTH",
"593 721 LINE SMOOTH",
"593 734 OFFCURVE",
"587 742 OFFCURVE",
"575 742 CURVE SMOOTH",
"42 742 LINE SMOOTH",
"31 742 OFFCURVE",
"23 734 OFFCURVE",
"23 719 CURVE SMOOTH"
);
}
);
};
layerId = "258ED206-D907-4350-8EBA-CBDDA1C16BF7";
paths = (
{
closed = 1;
nodes = (
"50 0 LINE",
"250 0 LINE",
"250 286 LINE",
"471 286 LINE",
"471 445 LINE",
"250 445 LINE",
"250 578 LINE",
"592 578 LINE",
"593 742 LINE",
"50 742 LINE"
);
}
);
width = 627;
},
{
background = {
paths = (
{
closed = 1;
nodes = (
"125 10 LINE SMOOTH",
"125 2 OFFCURVE",
"127 0 OFFCURVE",
"134 0 CURVE SMOOTH",
"164 0 LINE SMOOTH",
"169 0 OFFCURVE",
"171 2 OFFCURVE",
"171 7 CURVE SMOOTH",
"171 333 LINE SMOOTH",
"171 341 OFFCURVE",
"173 342 OFFCURVE",
"180 342 CURVE SMOOTH",
"478 342 LINE SMOOTH",
"484 342 OFFCURVE",
"486 343 OFFCURVE",
"486 349 CURVE SMOOTH",
"486 375 LINE SMOOTH",
"486 380 OFFCURVE",
"484 382 OFFCURVE",
"479 382 CURVE SMOOTH",
"180 382 LINE SMOOTH",
"173 382 OFFCURVE",
"171 383 OFFCURVE",
"171 389 CURVE SMOOTH",
"171 693 LINE SMOOTH",
"171 701 OFFCURVE",
"173 702 OFFCURVE",
"180 702 CURVE SMOOTH",
"538 702 LINE SMOOTH",
"544 702 OFFCURVE",
"546 703 OFFCURVE",
"546 709 CURVE SMOOTH",
"546 735 LINE SMOOTH",
"546 740 OFFCURVE",
"544 742 OFFCURVE",
"539 742 CURVE SMOOTH",
"134 742 LINE SMOOTH",
"127 742 OFFCURVE",
"125 740 OFFCURVE",
"125 732 CURVE SMOOTH"
);
}
);
};
layerId = "91AB5BCA-6A50-42DA-B2F7-8181BF189245";
paths = (
{
closed = 1;
nodes = (
"125 0 LINE",
"169 0 LINE",
"169 342 LINE",
"484 342 LINE",
"484 382 LINE",
"169 382 LINE",
"169 702 LINE",
"544 702 LINE",
"544 742 LINE",
"125 742 LINE"
);
}
);
width = 604;
}
);
leftMetricsKey = N;
rightKerningGroup = F;
unicode = 0046;
},
{
glyphname = G;
lastChange = "2017-02-17 19:25:37 +0000";
layers = (
{
anchors = (
{
name = bottom;
position = "{372, 0}";
},
{
name = top;
position = "{372, 742}";
}
);
background = {
anchors = (
{
name = bottom;
position = "{372, 0}";
},
{
name = top;
position = "{372, 742}";
}
);
paths = (
{
closed = 1;
nodes = (
"488 -10 OFFCURVE",
"539 40 OFFCURVE",
"575 75 CURVE SMOOTH",
"580 81 OFFCURVE",
"583 81 OFFCURVE",
"586 77 CURVE SMOOTH",
"626 19 LINE SMOOTH",
"636 5 OFFCURVE",
"646 0 OFFCURVE",
"658 0 CURVE SMOOTH",
"696 0 LINE SMOOTH",
"706 0 OFFCURVE",
"713 8 OFFCURVE",
"713 17 CURVE SMOOTH",
"713 344 LINE SMOOTH",
"713 362 OFFCURVE",
"700 375 OFFCURVE",
"675 375 CURVE SMOOTH",
"395 377 LINE SMOOTH",
"380 377 OFFCURVE",
"374 370 OFFCURVE",
"374 360 CURVE SMOOTH",
"374 264 LINE SMOOTH",
"374 247 OFFCURVE",
"380 242 OFFCURVE",
"394 242 CURVE SMOOTH",
"488 242 LINE SMOOTH",
"498 242 OFFCURVE",
"501 236 OFFCURVE",
"497 225 CURVE",
"494 216 LINE",
"476 170 OFFCURVE",
"442 146 OFFCURVE",
"386 146 CURVE SMOOTH",
"310 146 OFFCURVE",
"258 193 OFFCURVE",
"258 374 CURVE SMOOTH",
"258 544 OFFCURVE",
"304 597 OFFCURVE",
"378 597 CURVE SMOOTH",
"450 597 OFFCURVE",
"485 547 OFFCURVE",
"495 492 CURVE SMOOTH",
"498 479 OFFCURVE",
"499 472 OFFCURVE",
"515 472 CURVE SMOOTH",
"686 498 LINE SMOOTH",
"702 500 OFFCURVE",
"706 505 OFFCURVE",
"700 533 CURVE SMOOTH",
"676 640 OFFCURVE",
"563 752 OFFCURVE",
"383 752 CURVE SMOOTH",
"169 752 OFFCURVE",
"20 599 OFFCURVE",
"20 368 CURVE SMOOTH",
"20 145 OFFCURVE",
"159 -10 OFFCURVE",
"370 -10 CURVE SMOOTH"
);
}
);
};
layerId = "258ED206-D907-4350-8EBA-CBDDA1C16BF7";
paths = (
{
closed = 1;
nodes = (
"492 -10 OFFCURVE",
"545 44 OFFCURVE",
"582 82 CURVE",
"582 0 LINE",
"713 0 LINE",
"713 392 LINE",
"374 394 LINE",
"374 259 LINE",
"503 259 LINE",
"494 233 LINE",
"476 187 OFFCURVE",
"442 163 OFFCURVE",
"386 163 CURVE SMOOTH",
"322 163 OFFCURVE",
"258 193 OFFCURVE",
"258 374 CURVE SMOOTH",
"258 534 OFFCURVE",
"304 587 OFFCURVE",
"378 587 CURVE SMOOTH",
"447 587 OFFCURVE",
"479 541 OFFCURVE",
"499 470 CURVE",
"707 501 LINE",
"683 624 OFFCURVE",
"582 752 OFFCURVE",
"383 752 CURVE SMOOTH",
"169 752 OFFCURVE",
"20 599 OFFCURVE",
"20 368 CURVE SMOOTH",
"20 145 OFFCURVE",
"159 -10 OFFCURVE",
"370 -10 CURVE SMOOTH"
);
}
);
width = 761;
},
{
anchors = (
{
name = bottom;
position = "{386, 0}";
},
{
name = top;
position = "{381, 742}";
}
);
background = {
anchors = (
{
name = bottom;
position = "{386, 0}";
},
{
name = top;
position = "{381, 742}";
}
);
paths = (
{
closed = 1;
nodes = (
"491 -10 OFFCURVE",
"564 45 OFFCURVE",
"603 115 CURVE SMOOTH",
"607 122 OFFCURVE",
"611 121 OFFCURVE",
"611 115 CURVE SMOOTH",
"611 9 LINE SMOOTH",
"611 0 OFFCURVE",
"616 0 OFFCURVE",
"624 0 CURVE SMOOTH",
"641 0 LINE SMOOTH",
"648 0 OFFCURVE",
"651 2 OFFCURVE",
"651 11 CURVE SMOOTH",
"651 371 LINE SMOOTH",
"651 375 OFFCURVE",
"649 377 OFFCURVE",
"645 377 CURVE SMOOTH",
"409 377 LINE SMOOTH",
"406 377 OFFCURVE",
"404 375 OFFCURVE",
"404 371 CURVE SMOOTH",
"404 348 LINE SMOOTH",
"404 344 OFFCURVE",
"406 342 OFFCURVE",
"411 342 CURVE SMOOTH",
"600 342 LINE SMOOTH",
"606 342 OFFCURVE",
"611 341 OFFCURVE",
"611 334 CURVE SMOOTH",
"611 255 LINE SMOOTH",
"611 161 OFFCURVE",
"539 32 OFFCURVE",
"381 32 CURVE SMOOTH",
"218 32 OFFCURVE",
"133 153 OFFCURVE",
"133 374 CURVE SMOOTH",
"133 584 OFFCURVE",
"220 710 OFFCURVE",
"381 710 CURVE SMOOTH",
"487 710 OFFCURVE",
"572 640 OFFCURVE",
"588 551 CURVE SMOOTH",
"589 546 OFFCURVE",
"592 544 OFFCURVE",
"595 545 CURVE SMOOTH",
"630 551 LINE SMOOTH",
"635 552 OFFCURVE",
"635 555 OFFCURVE",
"635 559 CURVE SMOOTH",
"623 663 OFFCURVE",
"504 752 OFFCURVE",
"381 752 CURVE SMOOTH",
"200 752 OFFCURVE",
"85 614 OFFCURVE",
"85 368 CURVE SMOOTH",
"85 129 OFFCURVE",
"195 -10 OFFCURVE",
"380 -10 CURVE SMOOTH"
);
}
);
};
layerId = "91AB5BCA-6A50-42DA-B2F7-8181BF189245";
paths = (
{
closed = 1;
nodes = (
"495 -10 OFFCURVE",
"571 51 OFFCURVE",
"611 129 CURVE",
"611 0 LINE",
"651 0 LINE",
"651 377 LINE",
"404 377 LINE",
"404 342 LINE",
"611 342 LINE",
"611 255 LINE SMOOTH",
"611 161 OFFCURVE",
"539 30 OFFCURVE",
"381 30 CURVE SMOOTH",
"218 30 OFFCURVE",
"127 153 OFFCURVE",
"127 374 CURVE SMOOTH",
"127 584 OFFCURVE",
"220 710 OFFCURVE",
"381 710 CURVE SMOOTH",
"488 710 OFFCURVE",
"573 637 OFFCURVE",
"589 544 CURVE",
"636 552 LINE",
"624 660 OFFCURVE",
"504 752 OFFCURVE",
"381 752 CURVE SMOOTH",
"200 752 OFFCURVE",
"85 614 OFFCURVE",
"85 368 CURVE SMOOTH",
"85 129 OFFCURVE",
"195 -10 OFFCURVE",
"380 -10 CURVE SMOOTH"
);
}
);
width = 746;
}
);
leftKerningGroup = O;
rightKerningGroup = G;
unicode = 0047;
},
{
glyphname = H;
lastChange = "2017-02-17 19:25:40 +0000";
layers = (
{
anchors = (
{
name = bottom;
position = "{369, 0}";
},
{
name = top;
position = "{371, 742}";
}
);
background = {
anchors = (
{
name = bottom;
position = "{369, 0}";
},
{
name = top;
position = "{371, 742}";
}
);
paths = (
{
closed = 1;
nodes = (
"468 297 OFFCURVE",
"474 290 OFFCURVE",
"474 282 CURVE SMOOTH",
"474 29 LINE SMOOTH",
"474 8 OFFCURVE",
"484 0 OFFCURVE",
"507 0 CURVE SMOOTH",
"674 0 LINE SMOOTH",
"695 0 OFFCURVE",
"701 8 OFFCURVE",
"701 25 CURVE SMOOTH",
"701 719 LINE SMOOTH",
"701 734 OFFCURVE",
"693 742 OFFCURVE",
"682 742 CURVE SMOOTH",
"492 742 LINE SMOOTH",
"481 742 OFFCURVE",
"474 734 OFFCURVE",
"474 721 CURVE SMOOTH",
"474 489 LINE SMOOTH",
"474 476 OFFCURVE",
"467 469 OFFCURVE",
"456 469 CURVE SMOOTH",
"288 469 LINE SMOOTH",
"277 469 OFFCURVE",
"270 476 OFFCURVE",
"270 489 CURVE SMOOTH",
"270 721 LINE SMOOTH",
"270 734 OFFCURVE",
"263 742 OFFCURVE",
"252 742 CURVE SMOOTH",
"62 742 LINE SMOOTH",
"51 742 OFFCURVE",
"43 734 OFFCURVE",
"43 719 CURVE SMOOTH",
"43 25 LINE SMOOTH",
"43 8 OFFCURVE",
"49 0 OFFCURVE",
"70 0 CURVE SMOOTH",
"237 0 LINE SMOOTH",
"260 0 OFFCURVE",
"270 8 OFFCURVE",
"270 29 CURVE SMOOTH",
"270 282 LINE SMOOTH",
"270 290 OFFCURVE",
"276 297 OFFCURVE",
"286 297 CURVE SMOOTH",
"458 297 LINE SMOOTH"
);
}
);
};
layerId = "258ED206-D907-4350-8EBA-CBDDA1C16BF7";
paths = (
{
closed = 1;
nodes = (
"466 0 LINE",
"678 0 LINE",
"678 742 LINE",
"466 742 LINE",
"466 469 LINE",
"262 469 LINE",
"262 742 LINE",
"50 742 LINE",
"50 0 LINE",
"262 0 LINE",
"262 297 LINE",
"466 297 LINE"
);
}
);
width = 730;
},
{
anchors = (
{
name = bottom;
position = "{374, 0}";
},
{
name = top;
position = "{374, 742}";
}
);
background = {
anchors = (
{
name = bottom;
position = "{374, 0}";
},
{
name = top;
position = "{374, 742}";
}
);
paths = (
{
closed = 1;
nodes = (
"574 366 OFFCURVE",
"576 364 OFFCURVE",
"576 359 CURVE SMOOTH",
"576 9 LINE SMOOTH",
"576 2 OFFCURVE",
"579 0 OFFCURVE",
"586 0 CURVE SMOOTH",
"613 0 LINE SMOOTH",
"619 0 OFFCURVE",
"622 3 OFFCURVE",
"622 10 CURVE SMOOTH",
"622 732 LINE SMOOTH",
"622 740 OFFCURVE",
"620 742 OFFCURVE",
"613 742 CURVE SMOOTH",
"584 742 LINE SMOOTH",
"578 742 OFFCURVE",
"576 739 OFFCURVE",
"576 733 CURVE SMOOTH",
"576 414 LINE SMOOTH",
"576 408 OFFCURVE",
"574 406 OFFCURVE",
"568 406 CURVE SMOOTH",
"180 406 LINE SMOOTH",
"173 406 OFFCURVE",
"171 407 OFFCURVE",
"171 415 CURVE SMOOTH",
"171 732 LINE SMOOTH",
"171 740 OFFCURVE",
"169 742 OFFCURVE",
"162 742 CURVE SMOOTH",
"134 742 LINE SMOOTH",
"127 742 OFFCURVE",
"125 740 OFFCURVE",
"125 732 CURVE SMOOTH",
"125 10 LINE SMOOTH",
"125 3 OFFCURVE",
"127 0 OFFCURVE",
"134 0 CURVE SMOOTH",
"161 0 LINE SMOOTH",
"168 0 OFFCURVE",
"171 3 OFFCURVE",
"171 9 CURVE SMOOTH",
"171 360 LINE SMOOTH",
"171 363 OFFCURVE",
"173 366 OFFCURVE",
"177 366 CURVE SMOOTH",
"569 366 LINE SMOOTH"
);
}
);
};
layerId = "91AB5BCA-6A50-42DA-B2F7-8181BF189245";
paths = (
{
closed = 1;
nodes = (
"576 0 LINE",
"622 0 LINE",
"622 742 LINE",
"576 742 LINE",
"576 406 LINE",
"171 406 LINE",
"171 742 LINE",
"125 742 LINE",
"125 0 LINE",
"171 0 LINE",
"171 366 LINE",
"576 366 LINE"
);
}
);
width = 752;
}
);
leftMetricsKey = N;
rightMetricsKey = N;
unicode = 0048;
},
{
glyphname = Hbar;
lastChange = "2016-11-02 00:47:50 +0000";
layers = (
{
background = {
components = (
{
name = H;
transform = "{1, 0, 0, 1, 25, 0}";
}
);
paths = (
{
closed = 1;
nodes = (
"799 651 OFFCURVE",
"793 658 OFFCURVE",
"783 658 CURVE SMOOTH",
"16 658 LINE SMOOTH",
"6 658 OFFCURVE",
"0 651 OFFCURVE",
"0 638 CURVE SMOOTH",
"0 577 LINE SMOOTH",
"0 562 OFFCURVE",
"5 555 OFFCURVE",
"22 555 CURVE SMOOTH",
"770 555 LINE SMOOTH",
"790 555 OFFCURVE",
"799 562 OFFCURVE",
"799 579 CURVE SMOOTH",
"799 640 LINE SMOOTH"
);
}
);
};
components = (
{
name = H;
transform = "{1, 0, 0, 1, 25, 0}";
}
);
layerId = "258ED206-D907-4350-8EBA-CBDDA1C16BF7";
paths = (
{
closed = 1;
nodes = (
"799 651 OFFCURVE",
"793 658 OFFCURVE",
"783 658 CURVE SMOOTH",
"16 658 LINE SMOOTH",
"6 658 OFFCURVE",
"0 651 OFFCURVE",
"0 638 CURVE SMOOTH",
"0 577 LINE SMOOTH",
"0 562 OFFCURVE",
"5 555 OFFCURVE",
"22 555 CURVE SMOOTH",
"770 555 LINE SMOOTH",
"790 555 OFFCURVE",
"799 562 OFFCURVE",
"799 579 CURVE SMOOTH",
"799 640 LINE SMOOTH"
);
}
);
width = 809;
},
{
background = {
components = (
{
name = H;
transform = "{1, 0, 0, 1, -1, 0}";
}
);
paths = (
{
closed = 1;
nodes = (
"702 615 OFFCURVE",
"700 618 OFFCURVE",
"695 618 CURVE SMOOTH",
"12 618 LINE SMOOTH",
"7 618 OFFCURVE",
"5 615 OFFCURVE",
"5 609 CURVE SMOOTH",
"5 588 LINE SMOOTH",
"5 581 OFFCURVE",
"7 578 OFFCURVE",
"15 578 CURVE SMOOTH",
"689 578 LINE SMOOTH",
"698 578 OFFCURVE",
"702 581 OFFCURVE",
"702 589 CURVE SMOOTH",
"702 610 LINE SMOOTH"
);
}
);
};
components = (
{
name = H;
transform = "{1, 0, 0, 1, -5, 0}";
}
);
layerId = "91AB5BCA-6A50-42DA-B2F7-8181BF189245";
paths = (
{
closed = 1;
nodes = (
"702 615 OFFCURVE",
"700 618 OFFCURVE",
"695 618 CURVE SMOOTH",
"12 618 LINE SMOOTH",
"7 618 OFFCURVE",
"5 615 OFFCURVE",
"5 609 CURVE SMOOTH",
"5 588 LINE SMOOTH",
"5 581 OFFCURVE",
"7 578 OFFCURVE",
"15 578 CURVE SMOOTH",
"689 578 LINE SMOOTH",
"698 578 OFFCURVE",
"702 581 OFFCURVE",
"702 589 CURVE SMOOTH",
"702 610 LINE SMOOTH"
);
}
);
width = 707;
}
);
unicode = 0126;
},
{
glyphname = I;
lastChange = "2017-03-01 18:57:29 +0000";
layers = (
{
anchors = (
{
name = bottom;
position = "{160, 0}";
},
{
name = ogonek;
position = "{225, 3}";
},
{
name = top;
position = "{150, 742}";
}
);
background = {
anchors = (
{
name = bottom;
position = "{163, 0}";
},
{
name = ogonek;
position = "{245, 10}";
},
{
name = top;
position = "{164, 742}";
}
);
paths = (
{
closed = 1;
nodes = (
"58 742 OFFCURVE",
"50 734 OFFCURVE",
"50 719 CURVE SMOOTH",
"50 25 LINE SMOOTH",
"50 8 OFFCURVE",
"56 0 OFFCURVE",
"77 0 CURVE SMOOTH",
"244 0 LINE SMOOTH",
"267 0 OFFCURVE",
"277 8 OFFCURVE",
"277 29 CURVE SMOOTH",
"277 721 LINE SMOOTH",
"277 734 OFFCURVE",
"271 742 OFFCURVE",
"259 742 CURVE SMOOTH",
"69 742 LINE SMOOTH"
);
}
);
};
layerId = "258ED206-D907-4350-8EBA-CBDDA1C16BF7";
paths = (
{
closed = 1;
nodes = (
"50 0 LINE",
"250 0 LINE",
"250 742 LINE",
"50 742 LINE"
);
}
);
width = 322;
},
{
anchors = (
{
name = bottom;
position = "{148, 0}";
},
{
name = ogonek;
position = "{160, 10}";
},
{
name = top;
position = "{151, 742}";
}
);
background = {
anchors = (
{
name = bottom;
position = "{148, 0}";
},
{
name = ogonek;
position = "{160, 10}";
},
{
name = top;
position = "{151, 742}";
}
);
paths = (
{
closed = 1;
nodes = (
"127 742 OFFCURVE",
"125 740 OFFCURVE",
"125 732 CURVE SMOOTH",
"125 10 LINE SMOOTH",
"125 2 OFFCURVE",
"127 0 OFFCURVE",
"136 0 CURVE SMOOTH",
"159 0 LINE SMOOTH",
"169 0 OFFCURVE",
"171 2 OFFCURVE",
"171 12 CURVE SMOOTH",
"171 732 LINE SMOOTH",
"171 740 OFFCURVE",
"169 742 OFFCURVE",
"162 742 CURVE SMOOTH",
"134 742 LINE SMOOTH"
);
}
);
};
layerId = "91AB5BCA-6A50-42DA-B2F7-8181BF189245";
paths = (
{
closed = 1;
nodes = (
"125 0 LINE",
"169 0 LINE",
"169 742 LINE",
"125 742 LINE"
);
}
);
width = 274;
}
);
leftMetricsKey = N;
unicode = 0049;
},
{
glyphname = J;
lastChange = "2017-02-17 19:25:44 +0000";
layers = (
{
anchors = (
{
name = top;
position = "{238, 742}";
}
);
background = {
anchors = (
{
name = top;
position = "{238, 742}";
}
);
paths = (
{
closed = 1;
nodes = (
"415 721 LINE SMOOTH",
"415 734 OFFCURVE",
"409 742 OFFCURVE",
"397 742 CURVE SMOOTH",
"208 742 LINE SMOOTH",
"196 742 OFFCURVE",
"188 734 OFFCURVE",
"188 719 CURVE SMOOTH",
"188 268 LINE SMOOTH",
"188 200 OFFCURVE",
"159 175 OFFCURVE",
"110 175 CURVE SMOOTH",
"88 175 OFFCURVE",
"71 180 OFFCURVE",
"55 182 CURVE SMOOTH",
"39 184 OFFCURVE",
"32 174 OFFCURVE",
"31 159 CURVE SMOOTH",
"22 45 LINE SMOOTH",
"20 17 OFFCURVE",
"30 6 OFFCURVE",
"53 2 CURVE SMOOTH",
"98 -6 OFFCURVE",
"136 -10 OFFCURVE",
"177 -10 CURVE SMOOTH",
"333 -10 OFFCURVE",
"415 48 OFFCURVE",
"415 212 CURVE SMOOTH"
);
}
);
};
layerId = "258ED206-D907-4350-8EBA-CBDDA1C16BF7";
paths = (
{
closed = 1;
nodes = (
"398 742 LINE",
"188 742 LINE",
"188 289 LINE SMOOTH",
"188 212 OFFCURVE",
"171 177 OFFCURVE",
"100 177 CURVE SMOOTH",
"79 177 OFFCURVE",
"53 180 OFFCURVE",
"35 182 CURVE",
"35 0 LINE",
"65 -6 OFFCURVE",
"127 -10 OFFCURVE",
"169 -10 CURVE SMOOTH",
"318 -10 OFFCURVE",
"398 41 OFFCURVE",
"398 245 CURVE SMOOTH"
);
}
);
width = 435;
},
{
anchors = (
{
name = top;
position = "{270, 742}";
}
);
background = {
anchors = (
{
name = top;
position = "{270, 742}";
}
);
paths = (
{
closed = 1;
nodes = (
"293 732 LINE SMOOTH",
"293 739 OFFCURVE",
"291 742 OFFCURVE",
"285 742 CURVE SMOOTH",
"255 742 LINE SMOOTH",
"249 742 OFFCURVE",
"247 739 OFFCURVE",
"247 733 CURVE SMOOTH",
"247 154 LINE SMOOTH",
"247 61 OFFCURVE",
"225 34 OFFCURVE",
"160 34 CURVE SMOOTH",
"111 34 OFFCURVE",
"89 49 OFFCURVE",
"68 59 CURVE SMOOTH",
"64 61 OFFCURVE",
"61 60 OFFCURVE",
"60 55 CURVE SMOOTH",
"51 24 LINE SMOOTH",
"50 20 OFFCURVE",
"52 17 OFFCURVE",
"55 15 CURVE SMOOTH",
"62 10 OFFCURVE",
"107 -10 OFFCURVE",
"162 -10 CURVE SMOOTH",
"259 -10 OFFCURVE",
"293 49 OFFCURVE",
"293 144 CURVE SMOOTH"
);
}
);
};
layerId = "91AB5BCA-6A50-42DA-B2F7-8181BF189245";
paths = (
{
closed = 1;
nodes = (
"292 742 LINE",
"248 742 LINE",
"248 154 LINE SMOOTH",
"248 61 OFFCURVE",
"225 32 OFFCURVE",
"160 32 CURVE SMOOTH",
"108 32 OFFCURVE",
"82 53 OFFCURVE",
"60 64 CURVE",
"50 19 LINE",
"57 13 OFFCURVE",
"104 -10 OFFCURVE",
"162 -10 CURVE SMOOTH",
"259 -10 OFFCURVE",
"292 49 OFFCURVE",
"292 144 CURVE SMOOTH"
);
}
);
width = 412;
}
);
leftKerningGroup = J;
unicode = 004A;
},
{
glyphname = K;
lastChange = "2017-02-17 19:36:54 +0000";
layers = (
{
anchors = (
{
name = bottom;
position = "{349, 0}";
},
{
name = top;
position = "{349, 742}";
}
);
background = {
anchors = (
{
name = bottom;
position = "{349, 0}";
},
{
name = top;
position = "{349, 742}";
}
);
paths = (
{
closed = 1;
nodes = (
"505 480 LINE SMOOTH",
"499 494 OFFCURVE",
"500 501 OFFCURVE",
"508 512 CURVE SMOOTH",
"672 713 LINE SMOOTH",
"685 728 OFFCURVE",
"673 742 OFFCURVE",
"651 742 CURVE SMOOTH",
"499 742 LINE SMOOTH",
"475 742 OFFCURVE",
"467 736 OFFCURVE",
"456 721 CURVE SMOOTH",
"272 463 LINE",
"264 453 OFFCURVE",
"257 452 OFFCURVE",
"257 468 CURVE SMOOTH",
"257 721 LINE SMOOTH",
"257 734 OFFCURVE",
"251 742 OFFCURVE",
"239 742 CURVE SMOOTH",
"49 742 LINE SMOOTH",
"38 742 OFFCURVE",
"30 734 OFFCURVE",
"30 719 CURVE SMOOTH",
"30 25 LINE SMOOTH",
"30 8 OFFCURVE",
"36 0 OFFCURVE",
"57 0 CURVE SMOOTH",
"224 0 LINE SMOOTH",
"247 0 OFFCURVE",
"257 8 OFFCURVE",
"257 29 CURVE SMOOTH",
"257 180 LINE SMOOTH",
"257 190 OFFCURVE",
"258 196 OFFCURVE",
"263 202 CURVE SMOOTH",
"334 293 LINE SMOOTH",
"344 306 OFFCURVE",
"350 308 OFFCURVE",
"356 298 CURVE SMOOTH",
"478 20 LINE SMOOTH",
"485 5 OFFCURVE",
"497 0 OFFCURVE",
"514 0 CURVE SMOOTH",
"709 0 LINE SMOOTH",
"729 0 OFFCURVE",
"731 15 OFFCURVE",
"723 31 CURVE SMOOTH"
);
}
);
};
guideLines = (
{
angle = 54.4985;
position = "{696, 742}";
},
{
angle = -62.8805;
position = "{349, 313}";
}
);
hints = (
{
horizontal = 1;
origin = "{0, 6}";
target = up;
type = BottomGhost;
},
{
horizontal = 1;
origin = "{0, 5}";
target = down;
type = TopGhost;
},
{
place = "{52, 207}";
}
);
layerId = "258ED206-D907-4350-8EBA-CBDDA1C16BF7";
paths = (
{
closed = 1;
nodes = (
"492 458 LINE",
"696 742 LINE",
"471 742 LINE",
"257 442 LINE",
"257 742 LINE",
"50 742 LINE",
"50 0 LINE",
"257 0 LINE",
"257 194 LINE",
"349 313 LINE",
"514 0 LINE",
"729 0 LINE"
);
}
);
width = 749;
},
{
anchors = (
{
name = bottom;
position = "{352, 0}";
},
{
name = top;
position = "{382, 742}";
}
);
background = {
anchors = (
{
name = bottom;
position = "{354, 0}";
},
{
name = top;
position = "{384, 742}";
}
);
paths = (
{
closed = 1;
nodes = (
"354 445 LINE SMOOTH",
"352 449 OFFCURVE",
"352 449 OFFCURVE",
"354 451 CURVE SMOOTH",
"613 734 LINE SMOOTH",
"617 738 OFFCURVE",
"616 742 OFFCURVE",
"610 742 CURVE SMOOTH",
"572 742 LINE SMOOTH",
"566 742 OFFCURVE",
"564 741 OFFCURVE",
"561 738 CURVE SMOOTH",
"178 322 LINE SMOOTH",
"173 317 OFFCURVE",
"171 317 OFFCURVE",
"171 323 CURVE SMOOTH",
"171 734 LINE SMOOTH",
"171 740 OFFCURVE",
"168 742 OFFCURVE",
"163 742 CURVE SMOOTH",
"133 742 LINE SMOOTH",
"127 742 OFFCURVE",
"125 739 OFFCURVE",
"125 734 CURVE SMOOTH",
"125 9 LINE SMOOTH",
"125 2 OFFCURVE",
"128 0 OFFCURVE",
"135 0 CURVE SMOOTH",
"161 0 LINE SMOOTH",
"168 0 OFFCURVE",
"171 3 OFFCURVE",
"171 9 CURVE SMOOTH",
"171 246 LINE SMOOTH",
"171 254 OFFCURVE",
"173 257 OFFCURVE",
"179 263 CURVE SMOOTH",
"311 409 LINE SMOOTH",
"316 414 OFFCURVE",
"319 415 OFFCURVE",
"323 409 CURVE SMOOTH",
"581 5 LINE SMOOTH",
"583 2 OFFCURVE",
"587 0 OFFCURVE",
"592 0 CURVE SMOOTH",
"631 0 LINE SMOOTH",
"635 0 OFFCURVE",
"637 3 OFFCURVE",
"634 7 CURVE SMOOTH"
);
}
);
};
layerId = "91AB5BCA-6A50-42DA-B2F7-8181BF189245";
paths = (
{
closed = 1;
nodes = (
"348 449 LINE",
"616 742 LINE",
"561 742 LINE",
"167 314 LINE",
"167 742 LINE",
"125 742 LINE",
"125 0 LINE",
"167 0 LINE",
"167 254 LINE",
"314 417 LINE",
"580 0 LINE",
"634 0 LINE"
);
}
);
width = 689;
}
);
leftMetricsKey = N;
rightKerningGroup = K;
unicode = 004B;
},
{
glyphname = L;
lastChange = "2017-02-24 23:23:37 +0000";
layers = (
{
anchors = (
{
name = bottom;
position = "{295, 0}";
},
{
name = top;
position = "{139, 742}";
},
{
name = topright;
position = "{481, 742}";
}
);
background = {
anchors = (
{
name = bottom;
position = "{295, 0}";
},
{
name = top;
position = "{149, 742}";
},
{
name = topright;
position = "{491, 742}";
}
);
paths = (
{
closed = 1;
nodes = (
"33 25 LINE SMOOTH",
"33 8 OFFCURVE",
"39 0 OFFCURVE",
"60 0 CURVE SMOOTH",
"571 0 LINE SMOOTH",
"588 0 OFFCURVE",
"596 10 OFFCURVE",
"596 22 CURVE SMOOTH",
"596 145 LINE SMOOTH",
"596 159 OFFCURVE",
"587 164 OFFCURVE",
"573 164 CURVE SMOOTH",
"272 164 LINE SMOOTH",
"263 164 OFFCURVE",
"260 167 OFFCURVE",
"260 178 CURVE SMOOTH",
"260 721 LINE SMOOTH",
"260 734 OFFCURVE",
"254 742 OFFCURVE",
"242 742 CURVE SMOOTH",
"52 742 LINE SMOOTH",
"41 742 OFFCURVE",
"33 734 OFFCURVE",
"33 719 CURVE SMOOTH"
);
}
);
};
layerId = "258ED206-D907-4350-8EBA-CBDDA1C16BF7";
paths = (
{
closed = 1;
nodes = (
"50 0 LINE",
"546 0 LINE",
"546 164 LINE",
"250 164 LINE",
"250 742 LINE",
"50 742 LINE"
);
}
);
width = 584;
},
{
anchors = (
{
name = bottom;
position = "{330, 0}";
},
{
name = top;
position = "{150, 742}";
},
{
name = topright;
position = "{432, 742}";
}
);
background = {
anchors = (
{
name = bottom;
position = "{330, 0}";
},
{
name = top;
position = "{148, 742}";
},
{
name = topright;
position = "{434, 742}";
}
);
paths = (
{
closed = 1;
nodes = (
"125 10 LINE SMOOTH",
"125 3 OFFCURVE",
"127 0 OFFCURVE",
"134 0 CURVE",
"544 0 LINE",
"549 0 OFFCURVE",
"551 2 OFFCURVE",
"551 7 CURVE SMOOTH",
"551 33 LINE SMOOTH",
"551 39 OFFCURVE",
"549 40 OFFCURVE",
"543 40 CURVE SMOOTH",
"180 40 LINE SMOOTH",
"173 40 OFFCURVE",
"171 41 OFFCURVE",
"171 49 CURVE SMOOTH",
"171 732 LINE SMOOTH",
"171 740 OFFCURVE",
"169 742 OFFCURVE",
"162 742 CURVE SMOOTH",
"134 742 LINE SMOOTH",
"127 742 OFFCURVE",
"125 740 OFFCURVE",
"125 732 CURVE SMOOTH"
);
}
);
};
layerId = "91AB5BCA-6A50-42DA-B2F7-8181BF189245";
paths = (
{
closed = 1;
nodes = (
"125 0 LINE",
"547 0 LINE",
"547 40 LINE",
"167 40 LINE",
"167 742 LINE",
"125 742 LINE"
);
}
);
width = 602;
}
);
leftMetricsKey = N;
rightKerningGroup = L;
unicode = 004C;
},
{
glyphname = Lslash;
lastChange = "2017-01-26 17:40:10 +0000";
layers = (
{
background = {
components = (
{
name = L;
}
);
paths = (
{
closed = 1;
nodes = (
"439 550 OFFCURVE",
"432 557 OFFCURVE",
"415 552 CURVE SMOOTH",
"10 444 LINE SMOOTH",
"-2 441 OFFCURVE",
"-9 436 OFFCURVE",
"-9 421 CURVE SMOOTH",
"-9 301 LINE SMOOTH",
"-9 284 OFFCURVE",
"-3 277 OFFCURVE",
"17 283 CURVE SMOOTH",
"419 397 LINE SMOOTH",
"433 401 OFFCURVE",
"439 409 OFFCURVE",
"439 421 CURVE SMOOTH",
"439 534 LINE SMOOTH"
);
}
);
};
components = (
{
name = L;
}
);
layerId = "258ED206-D907-4350-8EBA-CBDDA1C16BF7";
paths = (
{
closed = 1;
nodes = (
"439 550 OFFCURVE",
"432 557 OFFCURVE",
"415 552 CURVE SMOOTH",
"10 444 LINE SMOOTH",
"-2 441 OFFCURVE",
"-9 436 OFFCURVE",
"-9 421 CURVE SMOOTH",
"-9 301 LINE SMOOTH",
"-9 284 OFFCURVE",
"-3 277 OFFCURVE",
"17 283 CURVE SMOOTH",
"419 397 LINE SMOOTH",
"433 401 OFFCURVE",
"439 409 OFFCURVE",
"439 421 CURVE SMOOTH",
"439 534 LINE SMOOTH"
);
}
);
width = 598;
},
{
background = {
components = (
{
name = L;
}
);
paths = (
{
closed = 1;
nodes = (
"327 436 OFFCURVE",
"325 438 OFFCURVE",
"320 437 CURVE SMOOTH",
"38 365 LINE SMOOTH",
"35 364 OFFCURVE",
"33 361 OFFCURVE",
"33 356 CURVE SMOOTH",
"33 332 LINE SMOOTH",
"33 327 OFFCURVE",
"35 326 OFFCURVE",
"40 327 CURVE SMOOTH",
"321 400 LINE SMOOTH",
"325 401 OFFCURVE",
"327 404 OFFCURVE",
"327 408 CURVE SMOOTH",
"327 432 LINE SMOOTH"
);
}
);
};
components = (
{
name = L;
transform = "{1, 0, 0, 1, -4, 0}";
}
);
layerId = "91AB5BCA-6A50-42DA-B2F7-8181BF189245";
paths = (
{
closed = 1;
nodes = (
"327 436 OFFCURVE",
"325 438 OFFCURVE",
"320 437 CURVE SMOOTH",
"38 365 LINE SMOOTH",
"35 364 OFFCURVE",
"33 361 OFFCURVE",
"33 356 CURVE SMOOTH",
"33 332 LINE SMOOTH",
"33 327 OFFCURVE",
"35 326 OFFCURVE",
"40 327 CURVE SMOOTH",
"321 400 LINE SMOOTH",
"325 401 OFFCURVE",
"327 404 OFFCURVE",
"327 408 CURVE SMOOTH",
"327 432 LINE SMOOTH"
);
}
);
width = 579;
}
);
rightMetricsKey = L;
unicode = 0141;
},
{
glyphname = M;
lastChange = "2017-02-24 22:59:46 +0000";
layers = (
{
background = {
paths = (
{
closed = 1;
nodes = (
"204 0 LINE SMOOTH",
"222 0 OFFCURVE",
"226 4 OFFCURVE",
"226 22 CURVE SMOOTH",
"226 464 LINE SMOOTH",
"226 477 OFFCURVE",
"233 481 OFFCURVE",
"238 465 CURVE SMOOTH",
"382 18 LINE SMOOTH",
"386 6 OFFCURVE",
"394 0 OFFCURVE",
"406 0 CURVE SMOOTH",
"511 0 LINE SMOOTH",
"522 0 OFFCURVE",
"531 7 OFFCURVE",
"535 18 CURVE SMOOTH",
"679 473 LINE SMOOTH",
"683 485 OFFCURVE",
"691 485 OFFCURVE",
"691 474 CURVE SMOOTH",
"691 25 LINE SMOOTH",
"691 8 OFFCURVE",
"697 0 OFFCURVE",
"717 0 CURVE SMOOTH",
"886 0 LINE SMOOTH",
"909 0 OFFCURVE",
"918 8 OFFCURVE",
"918 29 CURVE SMOOTH",
"918 721 LINE SMOOTH",
"918 734 OFFCURVE",
"912 742 OFFCURVE",
"900 742 CURVE SMOOTH",
"611 742 LINE SMOOTH",
"597 742 OFFCURVE",
"589 731 OFFCURVE",
"584 713 CURVE SMOOTH",
"491 406 LINE SMOOTH",
"488 397 OFFCURVE",
"482 395 OFFCURVE",
"478 406 CURVE SMOOTH",
"374 724 LINE SMOOTH",
"369 738 OFFCURVE",
"363 742 OFFCURVE",
"346 742 CURVE SMOOTH",
"66 742 LINE SMOOTH",
"51 742 OFFCURVE",
"45 735 OFFCURVE",
"45 719 CURVE SMOOTH",
"45 28 LINE SMOOTH",
"45 11 OFFCURVE",
"55 0 OFFCURVE",
"71 0 CURVE SMOOTH"
);
}
);
};
guideLines = (
{
angle = -105;
position = "{466, 289}";
},
{
angle = 105;
position = "{466, 289}";
}
);
layerId = "258ED206-D907-4350-8EBA-CBDDA1C16BF7";
paths = (
{
closed = 1;
nodes = (
"250 0 LINE",
"250 537 LINE",
"394 0 LINE",
"538 0 LINE",
"682 537 LINE",
"682 0 LINE",
"882 0 LINE",
"882 742 LINE",
"587 742 LINE",
"466 289 LINE",
"346 742 LINE",
"50 742 LINE",
"50 0 LINE"
);
}
);
width = 932;
},
{
background = {
guideLines = (
{
position = "{54, 566}";
showMeasurement = 1;
}
);
paths = (
{
closed = 1;
nodes = (
"159 0 LINE SMOOTH",
"166 0 OFFCURVE",
"169 3 OFFCURVE",
"169 9 CURVE SMOOTH",
"169 622 LINE SMOOTH",
"169 626 OFFCURVE",
"171 625 OFFCURVE",
"172 622 CURVE SMOOTH",
"416 10 LINE SMOOTH",
"419 3 OFFCURVE",
"424 0 OFFCURVE",
"435 0 CURVE SMOOTH",
"462 0 LINE SMOOTH",
"471 0 OFFCURVE",
"475 3 OFFCURVE",
"478 11 CURVE SMOOTH",
"727 627 LINE SMOOTH",
"728 630 OFFCURVE",
"730 632 OFFCURVE",
"730 627 CURVE SMOOTH",
"730 9 LINE SMOOTH",
"730 2 OFFCURVE",
"733 0 OFFCURVE",
"740 0 CURVE SMOOTH",
"767 0 LINE SMOOTH",
"773 0 OFFCURVE",
"776 3 OFFCURVE",
"776 10 CURVE SMOOTH",
"776 732 LINE SMOOTH",
"776 740 OFFCURVE",
"774 742 OFFCURVE",
"767 742 CURVE SMOOTH",
"738 742 LINE SMOOTH",
"732 742 OFFCURVE",
"729 740 OFFCURVE",
"727 735 CURVE SMOOTH",
"456 65 LINE SMOOTH",
"450 51 OFFCURVE",
"445 51 OFFCURVE",
"440 64 CURVE SMOOTH",
"173 734 LINE",
"171 740 OFFCURVE",
"168 742 OFFCURVE",
"160 742 CURVE SMOOTH",
"134 742 LINE SMOOTH",
"127 742 OFFCURVE",
"125 740 OFFCURVE",
"125 732 CURVE SMOOTH",
"125 10 LINE SMOOTH",
"125 3 OFFCURVE",
"127 0 OFFCURVE",
"134 0 CURVE SMOOTH"
);
}
);
};
guideLines = (
{
position = "{162, 566}";
showMeasurement = 1;
}
);
layerId = "91AB5BCA-6A50-42DA-B2F7-8181BF189245";
paths = (
{
closed = 1;
nodes = (
"165 0 LINE",
"165 634 LINE",
"418 0 LINE",
"467 0 LINE",
"726 638 LINE",
"726 0 LINE",
"766 0 LINE",
"766 742 LINE",
"726 742 LINE",
"444 45 LINE",
"166 742 LINE",
"125 742 LINE",
"125 0 LINE"
);
}
);
width = 871;
}
);
leftMetricsKey = N;
unicode = 004D;
},
{
glyphname = N;
lastChange = "2017-02-17 19:24:25 +0000";
layers = (
{
anchors = (
{
name = bottom;
position = "{394, 0}";
},
{
name = top;
position = "{394, 742}";
}
);
background = {
anchors = (
{
name = bottom;
position = "{394, 0}";
},
{
name = top;
position = "{394, 742}";
}
);
paths = (
{
closed = 1;
nodes = (
"547 742 OFFCURVE",
"540 734 OFFCURVE",
"540 721 CURVE SMOOTH",
"540 394 LINE SMOOTH",
"540 378 OFFCURVE",
"533 378 OFFCURVE",
"524 390 CURVE SMOOTH",
"284 724 LINE SMOOTH",
"273 739 OFFCURVE",
"267 742 OFFCURVE",
"250 742 CURVE SMOOTH",
"87 742 LINE SMOOTH",
"72 742 OFFCURVE",
"65 735 OFFCURVE",
"65 719 CURVE SMOOTH",
"65 20 LINE SMOOTH",
"65 5 OFFCURVE",
"75 0 OFFCURVE",
"90 0 CURVE SMOOTH",
"226 0 LINE SMOOTH",
"244 0 OFFCURVE",
"251 6 OFFCURVE",
"250 22 CURVE SMOOTH",
"250 386 LINE SMOOTH",
"250 393 OFFCURVE",
"255 395 OFFCURVE",
"260 388 CURVE SMOOTH",
"535 15 LINE SMOOTH",
"545 2 OFFCURVE",
"551 0 OFFCURVE",
"562 0 CURVE SMOOTH",
"699 0 LINE SMOOTH",
"712 0 OFFCURVE",
"722 7 OFFCURVE",
"722 18 CURVE SMOOTH",
"722 725 LINE SMOOTH",
"722 736 OFFCURVE",
"717 742 OFFCURVE",
"707 742 CURVE SMOOTH",
"562 742 LINE SMOOTH"
);
}
);
};
guideLines = (
{
angle = 125.0467;
position = "{540, 348}";
}
);
layerId = "258ED206-D907-4350-8EBA-CBDDA1C16BF7";
paths = (
{
closed = 1;
nodes = (
"540 348 LINE",
"263 742 LINE",
"50 742 LINE",
"50 0 LINE",
"250 0 LINE",
"250 422 LINE",
"546 0 LINE",
"740 0 LINE",
"740 742 LINE",
"540 742 LINE"
);
}
);
width = 792;
},
{
anchors = (
{
name = bottom;
position = "{364, 0}";
},
{
name = top;
position = "{403, 742}";
}
);
background = {
anchors = (
{
name = bottom;
position = "{370, 0}";
},
{
name = top;
position = "{405, 742}";
}
);
guideLines = (
{
position = "{59, 576}";
showMeasurement = 1;
}
);
paths = (
{
closed = 1;
nodes = (
"610 742 OFFCURVE",
"608 739 OFFCURVE",
"608 733 CURVE SMOOTH",
"608 107 LINE SMOOTH",
"608 101 OFFCURVE",
"601 95 OFFCURVE",
"594 105 CURVE SMOOTH",
"167 735 LINE SMOOTH",
"163 741 OFFCURVE",
"160 742 OFFCURVE",
"152 742 CURVE SMOOTH",
"134 742 LINE",
"127 742 OFFCURVE",
"125 740 OFFCURVE",
"125 732 CURVE SMOOTH",
"125 10 LINE SMOOTH",
"125 3 OFFCURVE",
"127 0 OFFCURVE",
"134 0 CURVE SMOOTH",
"159 0 LINE SMOOTH",
"166 0 OFFCURVE",
"169 3 OFFCURVE",
"169 9 CURVE SMOOTH",
"169 637 LINE SMOOTH",
"169 645 OFFCURVE",
"174 647 OFFCURVE",
"181 637 CURVE SMOOTH",
"609 6 LINE SMOOTH",
"614 -1 OFFCURVE",
"620 0 OFFCURVE",
"628 0 CURVE SMOOTH",
"643 0 LINE SMOOTH",
"649 0 OFFCURVE",
"652 3 OFFCURVE",
"652 10 CURVE SMOOTH",
"652 732 LINE SMOOTH",
"652 740 OFFCURVE",
"650 742 OFFCURVE",
"643 742 CURVE SMOOTH",
"616 742 LINE SMOOTH"
);
}
);
};
guideLines = (
{
position = "{167, 576}";
showMeasurement = 1;
}
);
layerId = "91AB5BCA-6A50-42DA-B2F7-8181BF189245";
paths = (
{
closed = 1;
nodes = (
"604 84 LINE",
"158 742 LINE",
"125 742 LINE",
"125 0 LINE",
"165 0 LINE",
"165 655 LINE",
"609 0 LINE",
"644 0 LINE",
"644 742 LINE",
"604 742 LINE"
);
}
);
width = 774;
}
);
unicode = 004E;
},
{
glyphname = Eng;
lastChange = "2016-11-02 00:47:50 +0000";
layers = (
{
background = {
paths = (
{
closed = 1;
nodes = (
"549 742 LINE SMOOTH",
"534 742 OFFCURVE",
"527 734 OFFCURVE",
"527 721 CURVE SMOOTH",
"527 434 LINE SMOOTH",
"527 418 OFFCURVE",
"520 418 OFFCURVE",
"511 430 CURVE",
"271 724 LINE SMOOTH",
"259 739 OFFCURVE",
"254 742 OFFCURVE",
"237 742 CURVE SMOOTH",
"74 742 LINE SMOOTH",
"59 742 OFFCURVE",
"52 735 OFFCURVE",
"52 719 CURVE SMOOTH",
"52 20 LINE SMOOTH",
"52 5 OFFCURVE",
"62 0 OFFCURVE",
"77 0 CURVE SMOOTH",
"213 0 LINE SMOOTH",
"231 0 OFFCURVE",
"238 6 OFFCURVE",
"237 22 CURVE",
"237 386 LINE",
"237 393 OFFCURVE",
"241 395 OFFCURVE",
"247 388 CURVE SMOOTH",
"487 97 LINE",
"487 88 LINE SMOOTH",
"484 31 OFFCURVE",
"454 10 OFFCURVE",
"409 10 CURVE SMOOTH",
"387 10 OFFCURVE",
"364 15 OFFCURVE",
"348 17 CURVE SMOOTH",
"332 19 OFFCURVE",
"325 9 OFFCURVE",
"324 -6 CURVE SMOOTH",
"315 -120 LINE SMOOTH",
"313 -148 OFFCURVE",
"323 -159 OFFCURVE",
"346 -163 CURVE SMOOTH",
"391 -171 OFFCURVE",
"435 -175 OFFCURVE",
"476 -175 CURVE SMOOTH",
"628 -175 OFFCURVE",
"709 -114 OFFCURVE",
"709 47 CURVE SMOOTH",
"709 725 LINE SMOOTH",
"709 736 OFFCURVE",
"704 742 OFFCURVE",
"694 742 CURVE SMOOTH"
);
}
);
};
layerId = "258ED206-D907-4350-8EBA-CBDDA1C16BF7";
paths = (
{
closed = 1;
nodes = (
"549 742 LINE SMOOTH",
"534 742 OFFCURVE",
"527 734 OFFCURVE",
"527 721 CURVE SMOOTH",
"527 434 LINE SMOOTH",
"527 418 OFFCURVE",
"520 418 OFFCURVE",
"511 430 CURVE",
"271 724 LINE SMOOTH",
"259 739 OFFCURVE",
"254 742 OFFCURVE",
"237 742 CURVE SMOOTH",
"74 742 LINE SMOOTH",
"59 742 OFFCURVE",
"52 735 OFFCURVE",
"52 719 CURVE SMOOTH",
"52 20 LINE SMOOTH",
"52 5 OFFCURVE",
"62 0 OFFCURVE",
"77 0 CURVE SMOOTH",
"213 0 LINE SMOOTH",
"231 0 OFFCURVE",
"238 6 OFFCURVE",
"237 22 CURVE",
"237 386 LINE",
"237 393 OFFCURVE",
"241 395 OFFCURVE",
"247 388 CURVE SMOOTH",
"487 97 LINE",
"487 88 LINE SMOOTH",
"484 31 OFFCURVE",
"454 10 OFFCURVE",
"409 10 CURVE SMOOTH",
"387 10 OFFCURVE",
"364 15 OFFCURVE",
"348 17 CURVE SMOOTH",
"332 19 OFFCURVE",
"325 9 OFFCURVE",
"324 -6 CURVE SMOOTH",
"315 -120 LINE SMOOTH",
"313 -148 OFFCURVE",
"323 -159 OFFCURVE",
"346 -163 CURVE SMOOTH",
"391 -171 OFFCURVE",
"435 -175 OFFCURVE",
"476 -175 CURVE SMOOTH",
"628 -175 OFFCURVE",
"709 -114 OFFCURVE",
"709 47 CURVE SMOOTH",
"709 725 LINE SMOOTH",
"709 736 OFFCURVE",
"704 742 OFFCURVE",
"694 742 CURVE SMOOTH"
);
}
);
width = 771;
},
{
background = {
paths = (
{
closed = 1;
nodes = (
"606 742 LINE SMOOTH",
"600 742 OFFCURVE",
"598 739 OFFCURVE",
"598 733 CURVE SMOOTH",
"598 107 LINE SMOOTH",
"598 101 OFFCURVE",
"591 94 OFFCURVE",
"584 104 CURVE SMOOTH",
"158 735 LINE SMOOTH",
"154 741 OFFCURVE",
"151 742 OFFCURVE",
"144 742 CURVE SMOOTH",
"123 742 LINE SMOOTH",
"116 742 OFFCURVE",
"114 740 OFFCURVE",
"114 732 CURVE SMOOTH",
"114 10 LINE SMOOTH",
"114 3 OFFCURVE",
"116 0 OFFCURVE",
"123 0 CURVE SMOOTH",
"148 0 LINE SMOOTH",
"155 0 OFFCURVE",
"158 3 OFFCURVE",
"158 9 CURVE SMOOTH",
"158 640 LINE SMOOTH",
"158 648 OFFCURVE",
"160 650 OFFCURVE",
"167 640 CURVE SMOOTH",
"595 12 LINE",
"595 -41 LINE SMOOTH",
"595 -112 OFFCURVE",
"564 -135 OFFCURVE",
"510 -135 CURVE SMOOTH",
"480 -135 OFFCURVE",
"456 -128 OFFCURVE",
"440 -122 CURVE SMOOTH",
"435 -120 OFFCURVE",
"433 -121 OFFCURVE",
"432 -126 CURVE",
"429 -151 LINE",
"429 -155 OFFCURVE",
"430 -158 OFFCURVE",
"433 -160 CURVE SMOOTH",
"440 -165 OFFCURVE",
"473 -175 OFFCURVE",
"514 -175 CURVE SMOOTH",
"608 -175 OFFCURVE",
"641 -124 OFFCURVE",
"641 -46 CURVE SMOOTH",
"641 732 LINE SMOOTH",
"641 740 OFFCURVE",
"639 742 OFFCURVE",
"632 742 CURVE SMOOTH"
);
}
);
};
layerId = "91AB5BCA-6A50-42DA-B2F7-8181BF189245";
paths = (
{
closed = 1;
nodes = (
"606 742 LINE SMOOTH",
"600 742 OFFCURVE",
"598 739 OFFCURVE",
"598 733 CURVE SMOOTH",
"598 107 LINE SMOOTH",
"598 101 OFFCURVE",
"591 94 OFFCURVE",
"584 104 CURVE SMOOTH",
"158 735 LINE SMOOTH",
"154 741 OFFCURVE",
"151 742 OFFCURVE",
"144 742 CURVE SMOOTH",
"123 742 LINE SMOOTH",
"116 742 OFFCURVE",
"114 740 OFFCURVE",
"114 732 CURVE SMOOTH",
"114 10 LINE SMOOTH",
"114 3 OFFCURVE",
"116 0 OFFCURVE",
"123 0 CURVE SMOOTH",
"148 0 LINE SMOOTH",
"155 0 OFFCURVE",
"158 3 OFFCURVE",
"158 9 CURVE SMOOTH",
"158 640 LINE SMOOTH",
"158 648 OFFCURVE",
"160 650 OFFCURVE",
"167 640 CURVE SMOOTH",
"595 12 LINE",
"595 -41 LINE SMOOTH",
"595 -112 OFFCURVE",
"564 -135 OFFCURVE",
"510 -135 CURVE SMOOTH",
"480 -135 OFFCURVE",
"456 -128 OFFCURVE",
"440 -122 CURVE SMOOTH",
"435 -120 OFFCURVE",
"433 -121 OFFCURVE",
"432 -126 CURVE",
"429 -151 LINE",
"429 -155 OFFCURVE",
"430 -158 OFFCURVE",
"433 -160 CURVE SMOOTH",
"440 -165 OFFCURVE",
"473 -175 OFFCURVE",
"514 -175 CURVE SMOOTH",
"608 -175 OFFCURVE",
"641 -124 OFFCURVE",
"641 -46 CURVE SMOOTH",
"641 732 LINE SMOOTH",
"641 740 OFFCURVE",
"639 742 OFFCURVE",
"632 742 CURVE SMOOTH"
);
}
);
width = 755;
}
);
leftMetricsKey = N;
rightMetricsKey = N;
unicode = 014A;
},
{
glyphname = O;
lastChange = "2017-03-01 18:54:48 +0000";
layers = (
{
anchors = (
{
name = bottom;
position = "{381, 0}";
},
{
name = ogonek;
position = "{472, 10}";
},
{
name = top;
position = "{379, 742}";
}
);
background = {
anchors = (
{
name = bottom;
position = "{381, 0}";
},
{
name = ogonek;
position = "{472, 10}";
},
{
name = top;
position = "{379, 742}";
}
);
paths = (
{
closed = 1;
nodes = (
"598 -10 OFFCURVE",
"738 139 OFFCURVE",
"738 369 CURVE SMOOTH",
"738 601 OFFCURVE",
"595 752 OFFCURVE",
"380 752 CURVE SMOOTH",
"163 752 OFFCURVE",
"20 601 OFFCURVE",
"20 369 CURVE SMOOTH",
"20 138 OFFCURVE",
"159 -10 OFFCURVE",
"380 -10 CURVE SMOOTH"
);
},
{
closed = 1;
nodes = (
"291 146 OFFCURVE",
"258 206 OFFCURVE",
"258 366 CURVE SMOOTH",
"258 531 OFFCURVE",
"293 598 OFFCURVE",
"380 598 CURVE SMOOTH",
"465 598 OFFCURVE",
"500 531 OFFCURVE",
"500 366 CURVE SMOOTH",
"500 206 OFFCURVE",
"467 146 OFFCURVE",
"380 146 CURVE SMOOTH"
);
}
);
};
guideLines = (
{
angle = 90;
position = "{-617, 431}";
}
);
layerId = "258ED206-D907-4350-8EBA-CBDDA1C16BF7";
paths = (
{
closed = 1;
nodes = (
"598 -10 OFFCURVE",
"738 139 OFFCURVE",
"738 369 CURVE SMOOTH",
"738 601 OFFCURVE",
"595 752 OFFCURVE",
"380 752 CURVE SMOOTH",
"163 752 OFFCURVE",
"20 601 OFFCURVE",
"20 369 CURVE SMOOTH",
"20 138 OFFCURVE",
"159 -10 OFFCURVE",
"380 -10 CURVE SMOOTH"
);
},
{
closed = 1;
nodes = (
"298 131 OFFCURVE",
"243 206 OFFCURVE",
"243 366 CURVE SMOOTH",
"243 531 OFFCURVE",
"298 613 OFFCURVE",
"380 613 CURVE SMOOTH",
"462 613 OFFCURVE",
"515 531 OFFCURVE",
"515 366 CURVE SMOOTH",
"515 206 OFFCURVE",
"462 131 OFFCURVE",
"380 131 CURVE SMOOTH"
);
}
);
width = 769;
},
{
anchors = (
{
name = bottom;
position = "{383, 0}";
},
{
name = ogonek;
position = "{453, 9}";
},
{
name = top;
position = "{383, 742}";
}
);
background = {
anchors = (
{
name = bottom;
position = "{383, 0}";
},
{
name = ogonek;
position = "{453, 9}";
},
{
name = top;
position = "{383, 742}";
}
);
paths = (
{
closed = 1;
nodes = (
"569 -10 OFFCURVE",
"682 122 OFFCURVE",
"682 369 CURVE SMOOTH",
"682 618 OFFCURVE",
"569 752 OFFCURVE",
"382 752 CURVE SMOOTH",
"194 752 OFFCURVE",
"80 617 OFFCURVE",
"80 367 CURVE SMOOTH",
"80 121 OFFCURVE",
"192 -10 OFFCURVE",
"381 -10 CURVE SMOOTH"
);
},
{
closed = 1;
nodes = (
"217 32 OFFCURVE",
"128 143 OFFCURVE",
"128 369 CURVE SMOOTH",
"128 597 OFFCURVE",
"217 710 OFFCURVE",
"382 710 CURVE SMOOTH",
"546 710 OFFCURVE",
"634 598 OFFCURVE",
"634 369 CURVE SMOOTH",
"634 142 OFFCURVE",
"548 32 OFFCURVE",
"383 32 CURVE SMOOTH"
);
}
);
};
guideLines = (
{
angle = 90;
position = "{-466, 431}";
},
{
angle = 90;
position = "{491, 640}";
}
);
layerId = "91AB5BCA-6A50-42DA-B2F7-8181BF189245";
paths = (
{
closed = 1;
nodes = (
"569 -10 OFFCURVE",
"682 122 OFFCURVE",
"682 369 CURVE SMOOTH",
"682 618 OFFCURVE",
"569 752 OFFCURVE",
"382 752 CURVE SMOOTH",
"194 752 OFFCURVE",
"80 617 OFFCURVE",
"80 367 CURVE SMOOTH",
"80 121 OFFCURVE",
"192 -10 OFFCURVE",
"381 -10 CURVE SMOOTH"
);
},
{
closed = 1;
nodes = (
"217 32 OFFCURVE",
"122 143 OFFCURVE",
"122 369 CURVE SMOOTH",
"122 597 OFFCURVE",
"217 710 OFFCURVE",
"382 710 CURVE SMOOTH",
"546 710 OFFCURVE",
"640 598 OFFCURVE",
"640 369 CURVE SMOOTH",
"640 142 OFFCURVE",
"548 32 OFFCURVE",
"383 32 CURVE SMOOTH"
);
}
);
width = 762;
}
);
leftKerningGroup = O;
rightKerningGroup = O;
unicode = 004F;
},
{
glyphname = Oslash;
lastChange = "2016-11-02 00:47:50 +0000";
layers = (
{
anchors = (
{
name = top;
position = "{393, 742}";
}
);
background = {
anchors = (
{
name = top;
position = "{393, 742}";
}
);
paths = (
{
closed = 1;
nodes = (
"722 742 LINE SMOOTH",
"714 750 OFFCURVE",
"702 748 OFFCURVE",
"691 737 CURVE SMOOTH",
"625.978 673.628 LINE",
"565.773 724.014 OFFCURVE",
"486.559 752 OFFCURVE",
"394 752 CURVE SMOOTH",
"177 752 OFFCURVE",
"34 601 OFFCURVE",
"34 369 CURVE SMOOTH",
"34 283.385 OFFCURVE",
"53.094 209.172 OFFCURVE",
"88.379 149.669 CURVE",
"21 84 LINE SMOOTH",
"9 72 OFFCURVE",
"10 62 OFFCURVE",
"25 47 CURVE SMOOTH",
"64 7 LINE SMOOTH",
"80 -9 OFFCURVE",
"92 -8 OFFCURVE",
"107 7 CURVE SMOOTH",
"164.116 62.748 LINE",
"223.663 15.829 OFFCURVE",
"301.676 -10 OFFCURVE",
"394 -10 CURVE SMOOTH",
"612 -10 OFFCURVE",
"752 139 OFFCURVE",
"752 369 CURVE SMOOTH",
"752 452.736 OFFCURVE",
"733.371 525.92 OFFCURVE",
"699.451 585.261 CURVE",
"775 659 LINE",
"785 668 OFFCURVE",
"784 678 OFFCURVE",
"776 686 CURVE SMOOTH"
);
},
{
closed = 1;
nodes = (
"272 531 OFFCURVE",
"307 598 OFFCURVE",
"394 598 CURVE SMOOTH",
"438.199 598 OFFCURVE",
"468.878 579.884 OFFCURVE",
"488.147 539.294 CURVE",
"272.654 329.269 LINE",
"272 342 OFFCURVE",
"272 354 OFFCURVE",
"272 366 CURVE"
);
},
{
closed = 1;
nodes = (
"514 206 OFFCURVE",
"481 146 OFFCURVE",
"394 146 CURVE SMOOTH",
"349.772 146 OFFCURVE",
"319.374 160.817 OFFCURVE",
"299.982 195.36 CURVE",
"513.326 403.593 LINE",
"514 391 OFFCURVE",
"514 379 OFFCURVE",
"514 366 CURVE SMOOTH"
);
}
);
};
layerId = "258ED206-D907-4350-8EBA-CBDDA1C16BF7";
paths = (
{
closed = 1;
nodes = (
"722 742 LINE SMOOTH",
"714 750 OFFCURVE",
"702 748 OFFCURVE",
"691 737 CURVE SMOOTH",
"625.978 673.628 LINE",
"565.773 724.014 OFFCURVE",
"486.559 752 OFFCURVE",
"394 752 CURVE SMOOTH",
"177 752 OFFCURVE",
"34 601 OFFCURVE",
"34 369 CURVE SMOOTH",
"34 283.385 OFFCURVE",
"53.094 209.172 OFFCURVE",
"88.379 149.669 CURVE",
"21 84 LINE SMOOTH",
"9 72 OFFCURVE",
"10 62 OFFCURVE",
"25 47 CURVE SMOOTH",
"64 7 LINE SMOOTH",
"80 -9 OFFCURVE",
"92 -8 OFFCURVE",
"107 7 CURVE SMOOTH",
"164.116 62.748 LINE",
"223.663 15.829 OFFCURVE",
"301.676 -10 OFFCURVE",
"394 -10 CURVE SMOOTH",
"612 -10 OFFCURVE",
"752 139 OFFCURVE",
"752 369 CURVE SMOOTH",
"752 452.736 OFFCURVE",
"733.371 525.92 OFFCURVE",
"699.451 585.261 CURVE",
"775 659 LINE",
"785 668 OFFCURVE",
"784 678 OFFCURVE",
"776 686 CURVE SMOOTH"
);
},
{
closed = 1;
nodes = (
"272 531 OFFCURVE",
"307 598 OFFCURVE",
"394 598 CURVE SMOOTH",
"438.199 598 OFFCURVE",
"468.878 579.884 OFFCURVE",
"488.147 539.294 CURVE",
"272.654 329.269 LINE",
"272 342 OFFCURVE",
"272 354 OFFCURVE",
"272 366 CURVE"
);
},
{
closed = 1;
nodes = (
"514 206 OFFCURVE",
"481 146 OFFCURVE",
"394 146 CURVE SMOOTH",
"349.772 146 OFFCURVE",
"319.374 160.817 OFFCURVE",
"299.982 195.36 CURVE",
"513.326 403.593 LINE",
"514 391 OFFCURVE",
"514 379 OFFCURVE",
"514 366 CURVE SMOOTH"
);
}
);
width = 796;
},
{
anchors = (
{
name = top;
position = "{355, 742}";
}
);
background = {
anchors = (
{
name = top;
position = "{355, 742}";
}
);
paths = (
{
closed = 1;
nodes = (
"659 749 LINE",
"654 753 OFFCURVE",
"650 751 OFFCURVE",
"646 746 CURVE",
"571 659 LINE",
"519 720 OFFCURVE",
"446 752 OFFCURVE",
"355 752 CURVE SMOOTH",
"167 752 OFFCURVE",
"53 617 OFFCURVE",
"53 367 CURVE SMOOTH",
"53 266 OFFCURVE",
"72 184 OFFCURVE",
"108 123 CURVE",
"24 26 LINE",
"20 21 OFFCURVE",
"21 18 OFFCURVE",
"28 11 CURVE SMOOTH",
"45 -5 LINE",
"53 -11 OFFCURVE",
"58 -11 OFFCURVE",
"64 -3 CURVE",
"137 81 LINE",
"188 21 OFFCURVE",
"262 -10 OFFCURVE",
"354 -10 CURVE SMOOTH",
"542 -10 OFFCURVE",
"655 122 OFFCURVE",
"655 369 CURVE SMOOTH",
"655 472 OFFCURVE",
"636 555 OFFCURVE",
"600 617 CURVE",
"685 716 LINE",
"688 720 OFFCURVE",
"687 724 OFFCURVE",
"684 727 CURVE"
);
},
{
closed = 1;
nodes = (
"104 597 OFFCURVE",
"190 709 OFFCURVE",
"355 709 CURVE SMOOTH",
"437 709 OFFCURVE",
"499 681 OFFCURVE",
"541 625 CURVE",
"141 161 LINE",
"116 214 OFFCURVE",
"104 283 OFFCURVE",
"104 369 CURVE SMOOTH"
);
},
{
closed = 1;
nodes = (
"604 142 OFFCURVE",
"521 33 OFFCURVE",
"356 33 CURVE SMOOTH",
"273 33 OFFCURVE",
"210 61 OFFCURVE",
"167 117 CURVE",
"567 580 LINE",
"592 526 OFFCURVE",
"604 456 OFFCURVE",
"604 369 CURVE SMOOTH"
);
}
);
};
layerId = "91AB5BCA-6A50-42DA-B2F7-8181BF189245";
paths = (
{
closed = 1;
nodes = (
"659 749 LINE",
"654 753 OFFCURVE",
"650 751 OFFCURVE",
"646 746 CURVE",
"571 659 LINE",
"519 720 OFFCURVE",
"446 752 OFFCURVE",
"355 752 CURVE SMOOTH",
"167 752 OFFCURVE",
"53 617 OFFCURVE",
"53 367 CURVE SMOOTH",
"53 266 OFFCURVE",
"72 184 OFFCURVE",
"108 123 CURVE",
"24 26 LINE",
"20 21 OFFCURVE",
"21 18 OFFCURVE",
"28 11 CURVE SMOOTH",
"45 -5 LINE",
"53 -11 OFFCURVE",
"58 -11 OFFCURVE",
"64 -3 CURVE",
"137 81 LINE",
"188 21 OFFCURVE",
"262 -10 OFFCURVE",
"354 -10 CURVE SMOOTH",
"542 -10 OFFCURVE",
"655 122 OFFCURVE",
"655 369 CURVE SMOOTH",
"655 472 OFFCURVE",
"636 555 OFFCURVE",
"600 617 CURVE",
"685 716 LINE",
"688 720 OFFCURVE",
"687 724 OFFCURVE",
"684 727 CURVE"
);
},
{
closed = 1;
nodes = (
"104 597 OFFCURVE",
"190 709 OFFCURVE",
"355 709 CURVE SMOOTH",
"437 709 OFFCURVE",
"499 681 OFFCURVE",
"541 625 CURVE",
"141 161 LINE",
"116 214 OFFCURVE",
"104 283 OFFCURVE",
"104 369 CURVE SMOOTH"
);
},
{
closed = 1;
nodes = (
"604 142 OFFCURVE",
"521 33 OFFCURVE",
"356 33 CURVE SMOOTH",
"273 33 OFFCURVE",
"210 61 OFFCURVE",
"167 117 CURVE",
"567 580 LINE",
"592 526 OFFCURVE",
"604 456 OFFCURVE",
"604 369 CURVE SMOOTH"
);
}
);
width = 708;
}
);
unicode = 00D8;
},
{
glyphname = OE;
lastChange = "2017-01-26 17:39:52 +0000";
layers = (
{
background = {
paths = (
{
closed = 1;
nodes = (
"738 164 LINE",
"738 292 LINE",
"957 292 LINE",
"957 453 LINE",
"738 453 LINE",
"738 578 LINE",
"1087 578 LINE",
"1088 742 LINE",
"606 742 LINE",
"544 742 LINE",
"509 749 OFFCURVE",
"466 752 OFFCURVE",
"415 752 CURVE SMOOTH",
"174 752 OFFCURVE",
"31 601 OFFCURVE",
"31 369 CURVE SMOOTH",
"31 138 OFFCURVE",
"170 -10 OFFCURVE",
"403 -10 CURVE SMOOTH",
"459 -10 OFFCURVE",
"506 -7 OFFCURVE",
"544 0 CURVE",
"594 0 LINE",
"601 0 OFFCURVE",
"608 0 OFFCURVE",
"615 0 CURVE",
"1073 0 LINE SMOOTH",
"1090 0 OFFCURVE",
"1097 10 OFFCURVE",
"1097 22 CURVE SMOOTH",
"1097 145 LINE SMOOTH",
"1097 159 OFFCURVE",
"1089 164 OFFCURVE",
"1075 164 CURVE SMOOTH"
);
},
{
closed = 1;
nodes = (
"302 146 OFFCURVE",
"269 206 OFFCURVE",
"269 366 CURVE SMOOTH",
"269 531 OFFCURVE",
"304 598 OFFCURVE",
"391 598 CURVE SMOOTH",
"476 598 OFFCURVE",
"511 531 OFFCURVE",
"511 366 CURVE SMOOTH",
"511 206 OFFCURVE",
"478 146 OFFCURVE",
"391 146 CURVE SMOOTH"
);
}
);
};
layerId = "258ED206-D907-4350-8EBA-CBDDA1C16BF7";
paths = (
{
closed = 1;
nodes = (
"738 164 LINE",
"738 292 LINE",
"957 292 LINE",
"957 453 LINE",
"738 453 LINE",
"738 578 LINE",
"1087 578 LINE",
"1088 742 LINE",
"606 742 LINE",
"544 742 LINE",
"509 749 OFFCURVE",
"466 752 OFFCURVE",
"415 752 CURVE SMOOTH",
"174 752 OFFCURVE",
"31 601 OFFCURVE",
"31 369 CURVE SMOOTH",
"31 138 OFFCURVE",
"170 -10 OFFCURVE",
"403 -10 CURVE SMOOTH",
"459 -10 OFFCURVE",
"506 -7 OFFCURVE",
"544 0 CURVE",
"594 0 LINE",
"1097 0 LINE",
"1097 164 LINE"
);
},
{
closed = 1;
nodes = (
"302 146 OFFCURVE",
"269 206 OFFCURVE",
"269 366 CURVE SMOOTH",
"269 531 OFFCURVE",
"304 598 OFFCURVE",
"391 598 CURVE SMOOTH",
"476 598 OFFCURVE",
"511 531 OFFCURVE",
"511 366 CURVE SMOOTH",
"511 206 OFFCURVE",
"478 146 OFFCURVE",
"391 146 CURVE SMOOTH"
);
}
);
width = 1140;
},
{
background = {
paths = (
{
closed = 1;
nodes = (
"686 40 LINE SMOOTH",
"679 40 OFFCURVE",
"677 41 OFFCURVE",
"677 49 CURVE SMOOTH",
"677 346 LINE SMOOTH",
"677 354 OFFCURVE",
"679 355 OFFCURVE",
"686 355 CURVE SMOOTH",
"963 355 LINE SMOOTH",
"969 355 OFFCURVE",
"971 356 OFFCURVE",
"971 362 CURVE SMOOTH",
"971 388 LINE SMOOTH",
"971 393 OFFCURVE",
"969 395 OFFCURVE",
"964 395 CURVE SMOOTH",
"686 395 LINE SMOOTH",
"679 395 OFFCURVE",
"677 396 OFFCURVE",
"677 402 CURVE SMOOTH",
"677 693 LINE SMOOTH",
"677 701 OFFCURVE",
"679 702 OFFCURVE",
"686 702 CURVE SMOOTH",
"1044 702 LINE SMOOTH",
"1050 702 OFFCURVE",
"1052 703 OFFCURVE",
"1052 709 CURVE SMOOTH",
"1052 735 LINE SMOOTH",
"1052 740 OFFCURVE",
"1050 742 OFFCURVE",
"1045 742 CURVE SMOOTH",
"640 742 LINE SMOOTH",
"633 742 OFFCURVE",
"631 740 OFFCURVE",
"631 732 CURVE SMOOTH",
"631 600 LINE",
"581 700 OFFCURVE",
"494 752 OFFCURVE",
"377 752 CURVE SMOOTH",
"189 752 OFFCURVE",
"75 617 OFFCURVE",
"75 367 CURVE SMOOTH",
"75 121 OFFCURVE",
"187 -10 OFFCURVE",
"376 -10 CURVE SMOOTH",
"493 -10 OFFCURVE",
"581 41 OFFCURVE",
"631 140 CURVE",
"631 10 LINE SMOOTH",
"631 2 OFFCURVE",
"633 0 OFFCURVE",
"640 0 CURVE SMOOTH",
"1060 0 LINE SMOOTH",
"1065 0 OFFCURVE",
"1067 2 OFFCURVE",
"1067 7 CURVE SMOOTH",
"1067 33 LINE SMOOTH",
"1067 39 OFFCURVE",
"1065 40 OFFCURVE",
"1059 40 CURVE SMOOTH"
);
},
{
closed = 1;
nodes = (
"212 32 OFFCURVE",
"123 143 OFFCURVE",
"123 369 CURVE SMOOTH",
"123 597 OFFCURVE",
"212 710 OFFCURVE",
"377 710 CURVE SMOOTH",
"541 710 OFFCURVE",
"626 598 OFFCURVE",
"626 369 CURVE SMOOTH",
"626 142 OFFCURVE",
"543 32 OFFCURVE",
"378 32 CURVE SMOOTH"
);
}
);
};
layerId = "91AB5BCA-6A50-42DA-B2F7-8181BF189245";
paths = (
{
closed = 1;
nodes = (
"677 40 LINE",
"677 355 LINE",
"971 355 LINE",
"971 395 LINE",
"677 395 LINE",
"677 702 LINE",
"1052 702 LINE",
"1052 742 LINE",
"631 742 LINE",
"631 600 LINE",
"581 700 OFFCURVE",
"494 752 OFFCURVE",
"377 752 CURVE SMOOTH",
"189 752 OFFCURVE",
"75 617 OFFCURVE",
"75 367 CURVE SMOOTH",
"75 121 OFFCURVE",
"187 -10 OFFCURVE",
"376 -10 CURVE SMOOTH",
"493 -10 OFFCURVE",
"581 41 OFFCURVE",
"631 140 CURVE",
"631 0 LINE",
"1067 0 LINE",
"1067 40 LINE"
);
},
{
closed = 1;
nodes = (
"212 32 OFFCURVE",
"123 143 OFFCURVE",
"123 369 CURVE SMOOTH",
"123 597 OFFCURVE",
"212 710 OFFCURVE",
"377 710 CURVE SMOOTH",
"541 710 OFFCURVE",
"626 598 OFFCURVE",
"626 369 CURVE SMOOTH",
"626 142 OFFCURVE",
"543 32 OFFCURVE",
"378 32 CURVE SMOOTH"
);
}
);
width = 1119;
}
);
leftKerningGroup = O;
leftMetricsKey = O;
rightMetricsKey = E;
unicode = 0152;
},
{
glyphname = P;
lastChange = "2017-02-28 20:07:43 +0000";
layers = (
{
background = {
paths = (
{
closed = 1;
nodes = (
"703 662 OFFCURVE",
"566 742 OFFCURVE",
"402 742 CURVE SMOOTH",
"71 742 LINE SMOOTH",
"59 742 OFFCURVE",
"52 734 OFFCURVE",
"52 719 CURVE SMOOTH",
"52 25 LINE SMOOTH",
"52 8 OFFCURVE",
"58 0 OFFCURVE",
"78 0 CURVE SMOOTH",
"246 0 LINE SMOOTH",
"269 0 OFFCURVE",
"279 8 OFFCURVE",
"279 29 CURVE SMOOTH",
"279 255 LINE SMOOTH",
"279 262 OFFCURVE",
"282 266 OFFCURVE",
"291 266 CURVE SMOOTH",
"428 266 LINE SMOOTH",
"591 266 OFFCURVE",
"703 355 OFFCURVE",
"703 501 CURVE SMOOTH"
);
},
{
closed = 1;
nodes = (
"471 461 OFFCURVE",
"442 426 OFFCURVE",
"394 426 CURVE SMOOTH",
"296 426 LINE SMOOTH",
"283 426 OFFCURVE",
"279 433 OFFCURVE",
"279 448 CURVE SMOOTH",
"279 561 LINE SMOOTH",
"279 576 OFFCURVE",
"285 582 OFFCURVE",
"302 582 CURVE SMOOTH",
"388 582 LINE SMOOTH",
"434 582 OFFCURVE",
"471 552 OFFCURVE",
"471 504 CURVE SMOOTH"
);
}
);
};
layerId = "258ED206-D907-4350-8EBA-CBDDA1C16BF7";
paths = (
{
closed = 1;
nodes = (
"683 662 OFFCURVE",
"556 742 OFFCURVE",
"392 742 CURVE SMOOTH",
"52 742 LINE",
"52 0 LINE",
"269 0 LINE",
"269 266 LINE",
"418 266 LINE SMOOTH",
"581 266 OFFCURVE",
"683 355 OFFCURVE",
"683 501 CURVE SMOOTH"
);
},
{
closed = 1;
nodes = (
"461 461 OFFCURVE",
"432 426 OFFCURVE",
"384 426 CURVE SMOOTH",
"269 426 LINE",
"269 582 LINE",
"378 582 LINE SMOOTH",
"424 582 OFFCURVE",
"461 552 OFFCURVE",
"461 504 CURVE SMOOTH"
);
}
);
width = 693;
},
{
background = {
paths = (
{
closed = 1;
nodes = (
"617 684 OFFCURVE",
"506 742 OFFCURVE",
"351 742 CURVE SMOOTH",
"129 742 LINE SMOOTH",
"122 742 OFFCURVE",
"120 740 OFFCURVE",
"120 732 CURVE SMOOTH",
"120 8 LINE SMOOTH",
"120 3 OFFCURVE",
"123 0 OFFCURVE",
"128 0 CURVE SMOOTH",
"158 0 LINE SMOOTH",
"163 0 OFFCURVE",
"166 3 OFFCURVE",
"166 9 CURVE SMOOTH",
"166 318 LINE SMOOTH",
"166 324 OFFCURVE",
"168 327 OFFCURVE",
"174 327 CURVE SMOOTH",
"357 327 LINE SMOOTH",
"508 327 OFFCURVE",
"617 387 OFFCURVE",
"617 535 CURVE SMOOTH"
);
},
{
closed = 1;
nodes = (
"569 415 OFFCURVE",
"485 367 OFFCURVE",
"357 367 CURVE SMOOTH",
"173 367 LINE SMOOTH",
"168 367 OFFCURVE",
"166 370 OFFCURVE",
"166 377 CURVE SMOOTH",
"166 694 LINE SMOOTH",
"166 700 OFFCURVE",
"169 702 OFFCURVE",
"175 702 CURVE SMOOTH",
"350 702 LINE SMOOTH",
"485 702 OFFCURVE",
"569 662 OFFCURVE",
"569 538 CURVE SMOOTH"
);
}
);
};
layerId = "91AB5BCA-6A50-42DA-B2F7-8181BF189245";
paths = (
{
closed = 1;
nodes = (
"617 684 OFFCURVE",
"506 742 OFFCURVE",
"351 742 CURVE SMOOTH",
"120 742 LINE",
"120 0 LINE",
"166 0 LINE",
"166 327 LINE",
"357 327 LINE SMOOTH",
"508 327 OFFCURVE",
"617 387 OFFCURVE",
"617 535 CURVE SMOOTH"
);
},
{
closed = 1;
nodes = (
"574 415 OFFCURVE",
"485 367 OFFCURVE",
"357 367 CURVE SMOOTH",
"166 367 LINE",
"166 702 LINE",
"350 702 LINE SMOOTH",
"485 702 OFFCURVE",
"574 662 OFFCURVE",
"574 538 CURVE SMOOTH"
);
}
);
width = 647;
}
);
rightKerningGroup = P;
unicode = 0050;
},
{
glyphname = Thorn;
lastChange = "2017-01-26 17:40:01 +0000";
layers = (
{
background = {
paths = (
{
closed = 1;
nodes = (
"716 530 OFFCURVE",
"579 608 OFFCURVE",
"415 608 CURVE SMOOTH",
"289 608 LINE SMOOTH",
"282 608 OFFCURVE",
"279 612 OFFCURVE",
"279 620 CURVE SMOOTH",
"279 721 LINE SMOOTH",
"279 734 OFFCURVE",
"273 742 OFFCURVE",
"261 742 CURVE SMOOTH",
"71 742 LINE SMOOTH",
"60 742 OFFCURVE",
"52 734 OFFCURVE",
"52 719 CURVE SMOOTH",
"52 25 LINE SMOOTH",
"52 8 OFFCURVE",
"58 0 OFFCURVE",
"78 0 CURVE SMOOTH",
"246 0 LINE SMOOTH",
"269 0 OFFCURVE",
"279 8 OFFCURVE",
"279 29 CURVE SMOOTH",
"279 131 LINE SMOOTH",
"279 138 OFFCURVE",
"282 142 OFFCURVE",
"291 142 CURVE SMOOTH",
"441 142 LINE SMOOTH",
"604 142 OFFCURVE",
"716 229 OFFCURVE",
"716 372 CURVE SMOOTH"
);
},
{
closed = 1;
nodes = (
"484 335 OFFCURVE",
"455 302 OFFCURVE",
"407 302 CURVE SMOOTH",
"296 302 LINE SMOOTH",
"283 302 OFFCURVE",
"279 309 OFFCURVE",
"279 324 CURVE SMOOTH",
"279 427 LINE SMOOTH",
"279 442 OFFCURVE",
"285 448 OFFCURVE",
"302 448 CURVE SMOOTH",
"401 448 LINE SMOOTH",
"447 448 OFFCURVE",
"484 420 OFFCURVE",
"484 375 CURVE SMOOTH"
);
}
);
};
layerId = "258ED206-D907-4350-8EBA-CBDDA1C16BF7";
paths = (
{
closed = 1;
nodes = (
"716 530 OFFCURVE",
"579 608 OFFCURVE",
"415 608 CURVE SMOOTH",
"279 608 LINE",
"279 742 LINE",
"52 742 LINE",
"52 0 LINE",
"279 0 LINE",
"279 142 LINE",
"441 142 LINE SMOOTH",
"604 142 OFFCURVE",
"716 229 OFFCURVE",
"716 372 CURVE SMOOTH"
);
},
{
closed = 1;
nodes = (
"484 335 OFFCURVE",
"455 302 OFFCURVE",
"407 302 CURVE SMOOTH",
"279 302 LINE",
"279 448 LINE",
"401 448 LINE SMOOTH",
"447 448 OFFCURVE",
"484 420 OFFCURVE",
"484 375 CURVE SMOOTH"
);
}
);
width = 726;
},
{
background = {
paths = (
{
closed = 1;
nodes = (
"611 522 OFFCURVE",
"501 579 OFFCURVE",
"345 579 CURVE SMOOTH",
"166 579 LINE SMOOTH",
"162 579 OFFCURVE",
"160 581 OFFCURVE",
"160 584 CURVE SMOOTH",
"160 732 LINE SMOOTH",
"160 740 OFFCURVE",
"158 742 OFFCURVE",
"151 742 CURVE SMOOTH",
"123 742 LINE SMOOTH",
"116 742 OFFCURVE",
"114 740 OFFCURVE",
"114 732 CURVE SMOOTH",
"114 8 LINE SMOOTH",
"114 3 OFFCURVE",
"117 0 OFFCURVE",
"122 0 CURVE SMOOTH",
"152 0 LINE SMOOTH",
"157 0 OFFCURVE",
"160 3 OFFCURVE",
"160 9 CURVE SMOOTH",
"160 173 LINE SMOOTH",
"160 179 OFFCURVE",
"162 182 OFFCURVE",
"168 182 CURVE SMOOTH",
"351 182 LINE SMOOTH",
"501 182 OFFCURVE",
"611 239 OFFCURVE",
"611 390 CURVE SMOOTH"
);
},
{
closed = 1;
nodes = (
"563 268 OFFCURVE",
"479 222 OFFCURVE",
"351 222 CURVE SMOOTH",
"167 222 LINE SMOOTH",
"162 222 OFFCURVE",
"160 225 OFFCURVE",
"160 232 CURVE SMOOTH",
"160 531 LINE SMOOTH",
"160 537 OFFCURVE",
"163 539 OFFCURVE",
"169 539 CURVE SMOOTH",
"344 539 LINE SMOOTH",
"479 539 OFFCURVE",
"563 501 OFFCURVE",
"563 390 CURVE SMOOTH"
);
}
);
};
layerId = "91AB5BCA-6A50-42DA-B2F7-8181BF189245";
paths = (
{
closed = 1;
nodes = (
"611 522 OFFCURVE",
"501 579 OFFCURVE",
"345 579 CURVE SMOOTH",
"160 579 LINE",
"160 742 LINE",
"114 742 LINE",
"114 0 LINE",
"160 0 LINE",
"160 182 LINE",
"351 182 LINE SMOOTH",
"501 182 OFFCURVE",
"611 239 OFFCURVE",
"611 390 CURVE SMOOTH"
);
},
{
closed = 1;
nodes = (
"563 268 OFFCURVE",
"479 222 OFFCURVE",
"351 222 CURVE SMOOTH",
"160 222 LINE",
"160 539 LINE",
"344 539 LINE SMOOTH",
"479 539 OFFCURVE",
"563 501 OFFCURVE",
"563 390 CURVE SMOOTH"
);
}
);
width = 661;
}
);
leftMetricsKey = P;
rightMetricsKey = P;
unicode = 00DE;
},
{
glyphname = Q;
lastChange = "2017-02-24 23:30:44 +0000";
layers = (
{
background = {
paths = (
{
closed = 1;
nodes = (
"20 138 OFFCURVE",
"159 -10 OFFCURVE",
"380 -10 CURVE SMOOTH",
"406 -10 OFFCURVE",
"427 -9 OFFCURVE",
"451 -6 CURVE SMOOTH",
"458 -5 OFFCURVE",
"463 -6 OFFCURVE",
"466 -10 CURVE SMOOTH",
"523 -84 OFFCURVE",
"595 -128 OFFCURVE",
"695 -128 CURVE SMOOTH",
"727 -128 OFFCURVE",
"739 -122 OFFCURVE",
"739 -97 CURVE SMOOTH",
"739 13 LINE SMOOTH",
"739 20 OFFCURVE",
"736 28 OFFCURVE",
"722 30 CURVE SMOOTH",
"679 36 OFFCURVE",
"632 61 OFFCURVE",
"632 78 CURVE SMOOTH",
"632 82 OFFCURVE",
"632 84 OFFCURVE",
"634 86 CURVE",
"701 152 OFFCURVE",
"739 249 OFFCURVE",
"739 369 CURVE SMOOTH",
"739 601 OFFCURVE",
"596 752 OFFCURVE",
"380 752 CURVE SMOOTH",
"163 752 OFFCURVE",
"20 601 OFFCURVE",
"20 369 CURVE SMOOTH"
);
},
{
closed = 1;
nodes = (
"258 532 OFFCURVE",
"293 598 OFFCURVE",
"380 598 CURVE SMOOTH",
"466 598 OFFCURVE",
"501 532 OFFCURVE",
"501 367 CURVE SMOOTH",
"501 206 OFFCURVE",
"468 146 OFFCURVE",
"380 146 CURVE SMOOTH",
"291 146 OFFCURVE",
"258 206 OFFCURVE",
"258 367 CURVE SMOOTH"
);
}
);
};
layerId = "258ED206-D907-4350-8EBA-CBDDA1C16BF7";
paths = (
{
closed = 1;
nodes = (
"20 138 OFFCURVE",
"159 -10 OFFCURVE",
"380 -10 CURVE SMOOTH",
"405 -10 OFFCURVE",
"426 -9 OFFCURVE",
"462 -5 CURVE",
"550 -116 OFFCURVE",
"620 -128 OFFCURVE",
"739 -128 CURVE",
"739 28 LINE",
"688 28 OFFCURVE",
"642 53 OFFCURVE",
"634 82 CURVE",
"701 154 OFFCURVE",
"739 249 OFFCURVE",
"739 369 CURVE SMOOTH",
"739 601 OFFCURVE",
"596 752 OFFCURVE",
"380 752 CURVE SMOOTH",
"163 752 OFFCURVE",
"20 601 OFFCURVE",
"20 369 CURVE SMOOTH"
);
},
{
closed = 1;
nodes = (
"258 532 OFFCURVE",
"293 598 OFFCURVE",
"380 598 CURVE SMOOTH",
"466 598 OFFCURVE",
"501 532 OFFCURVE",
"501 367 CURVE SMOOTH",
"501 206 OFFCURVE",
"468 146 OFFCURVE",
"380 146 CURVE SMOOTH",
"291 146 OFFCURVE",
"258 206 OFFCURVE",
"258 367 CURVE SMOOTH"
);
}
);
width = 781;
},
{
background = {
paths = (
{
closed = 1;
nodes = (
"85 116 OFFCURVE",
"202 -10 OFFCURVE",
"386 -10 CURVE SMOOTH",
"412 -10 OFFCURVE",
"442 -7 OFFCURVE",
"467 -1 CURVE SMOOTH",
"474 1 OFFCURVE",
"479 -1 OFFCURVE",
"482 -5 CURVE SMOOTH",
"547 -96 OFFCURVE",
"613 -122 OFFCURVE",
"657 -122 CURVE SMOOTH",
"671 -122 OFFCURVE",
"677 -120 OFFCURVE",
"677 -109 CURVE SMOOTH",
"677 -87 LINE SMOOTH",
"677 -84 OFFCURVE",
"676 -81 OFFCURVE",
"670 -80 CURVE SMOOTH",
"595 -70 OFFCURVE",
"528 -11 OFFCURVE",
"528 16 CURVE SMOOTH",
"528 20 OFFCURVE",
"529 22 OFFCURVE",
"534 25 CURVE SMOOTH",
"631 83 OFFCURVE",
"687 189 OFFCURVE",
"687 369 CURVE SMOOTH",
"687 620 OFFCURVE",
"574 752 OFFCURVE",
"386 752 CURVE SMOOTH",
"198 752 OFFCURVE",
"85 620 OFFCURVE",
"85 369 CURVE SMOOTH"
);
},
{
closed = 1;
nodes = (
"133 592 OFFCURVE",
"219 710 OFFCURVE",
"386 710 CURVE SMOOTH",
"553 710 OFFCURVE",
"639 592 OFFCURVE",
"639 369 CURVE SMOOTH",
"639 141 OFFCURVE",
"550 32 OFFCURVE",
"386 32 CURVE SMOOTH",
"222 32 OFFCURVE",
"133 141 OFFCURVE",
"133 367 CURVE SMOOTH"
);
}
);
};
layerId = "91AB5BCA-6A50-42DA-B2F7-8181BF189245";
paths = (
{
closed = 1;
nodes = (
"85 116 OFFCURVE",
"202 -10 OFFCURVE",
"386 -10 CURVE SMOOTH",
"415 -10 OFFCURVE",
"444 -6 OFFCURVE",
"476 1 CURVE",
"529 -101 OFFCURVE",
"628 -122 OFFCURVE",
"677 -122 CURVE",
"677 -81 LINE",
"612 -78 OFFCURVE",
"554 -51 OFFCURVE",
"520 18 CURVE",
"640 81 OFFCURVE",
"687 199 OFFCURVE",
"687 369 CURVE SMOOTH",
"687 620 OFFCURVE",
"574 752 OFFCURVE",
"386 752 CURVE SMOOTH",
"198 752 OFFCURVE",
"85 620 OFFCURVE",
"85 369 CURVE SMOOTH"
);
},
{
closed = 1;
nodes = (
"127 592 OFFCURVE",
"219 710 OFFCURVE",
"386 710 CURVE SMOOTH",
"553 710 OFFCURVE",
"645 592 OFFCURVE",
"645 369 CURVE SMOOTH",
"645 141 OFFCURVE",
"550 32 OFFCURVE",
"386 32 CURVE SMOOTH",
"222 32 OFFCURVE",
"127 141 OFFCURVE",
"127 367 CURVE SMOOTH"
);
}
);
width = 737;
}
);
leftKerningGroup = O;
rightKerningGroup = O;
unicode = 0051;
},
{
glyphname = R;
lastChange = "2017-03-01 18:53:39 +0000";
layers = (
{
anchors = (
{
name = bottom;
position = "{351, 0}";
},
{
name = top;
position = "{341, 742}";
}
);
background = {
anchors = (
{
name = bottom;
position = "{351, 0}";
},
{
name = top;
position = "{341, 742}";
}
);
paths = (
{
closed = 1;
nodes = (
"558 312 LINE SMOOTH",
"555 320 OFFCURVE",
"555 328 OFFCURVE",
"562 331 CURVE SMOOTH",
"638 360 OFFCURVE",
"693 436 OFFCURVE",
"693 530 CURVE SMOOTH",
"693 664 OFFCURVE",
"581 742 OFFCURVE",
"388 742 CURVE SMOOTH",
"54 742 LINE SMOOTH",
"42 742 OFFCURVE",
"35 734 OFFCURVE",
"35 719 CURVE SMOOTH",
"35 25 LINE SMOOTH",
"35 8 OFFCURVE",
"41 0 OFFCURVE",
"61 0 CURVE SMOOTH",
"229 0 LINE SMOOTH",
"252 0 OFFCURVE",
"262 8 OFFCURVE",
"262 29 CURVE SMOOTH",
"262 284 LINE SMOOTH",
"262 287 OFFCURVE",
"265 295 OFFCURVE",
"274 295 CURVE SMOOTH",
"320 295 LINE SMOOTH",
"339 295 OFFCURVE",
"347 290 OFFCURVE",
"351 279 CURVE SMOOTH",
"445 21 LINE SMOOTH",
"449 7 OFFCURVE",
"458 0 OFFCURVE",
"472 0 CURVE SMOOTH",
"666 0 LINE SMOOTH",
"682 0 OFFCURVE",
"691 15 OFFCURVE",
"684 32 CURVE SMOOTH"
);
},
{
closed = 1;
nodes = (
"279 444 LINE SMOOTH",
"266 444 OFFCURVE",
"262 450 OFFCURVE",
"262 465 CURVE SMOOTH",
"262 574 LINE SMOOTH",
"262 589 OFFCURVE",
"268 594 OFFCURVE",
"285 594 CURVE SMOOTH",
"373 594 LINE SMOOTH",
"418 594 OFFCURVE",
"458 567 OFFCURVE",
"458 516 CURVE SMOOTH",
"458 473 OFFCURVE",
"430 444 OFFCURVE",
"379 444 CURVE SMOOTH"
);
}
);
};
layerId = "258ED206-D907-4350-8EBA-CBDDA1C16BF7";
paths = (
{
closed = 1;
nodes = (
"538 287 LINE",
"607 329 OFFCURVE",
"656 389 OFFCURVE",
"656 503 CURVE SMOOTH",
"656 637 OFFCURVE",
"581 742 OFFCURVE",
"388 742 CURVE SMOOTH",
"52 742 LINE",
"52 0 LINE",
"252 0 LINE",
"252 255 LINE",
"356 255 LINE",
"464 0 LINE",
"668 0 LINE"
);
},
{
closed = 1;
nodes = (
"252 404 LINE",
"252 594 LINE",
"363 594 LINE SMOOTH",
"408 594 OFFCURVE",
"448 552 OFFCURVE",
"448 500 CURVE SMOOTH",
"448 452 OFFCURVE",
"414 404 OFFCURVE",
"363 404 CURVE SMOOTH"
);
}
);
width = 713;
},
{
anchors = (
{
name = bottom;
position = "{352, 0}";
},
{
name = top;
position = "{345, 742}";
}
);
background = {
anchors = (
{
name = bottom;
position = "{352, 0}";
},
{
name = top;
position = "{345, 742}";
}
);
paths = (
{
closed = 1;
nodes = (
"464 359 LINE",
"463 362 OFFCURVE",
"464 365 OFFCURVE",
"468 366 CURVE SMOOTH",
"537 384 OFFCURVE",
"620 435 OFFCURVE",
"620 558 CURVE SMOOTH",
"620 680 OFFCURVE",
"536 742 OFFCURVE",
"392 742 CURVE SMOOTH",
"134 742 LINE SMOOTH",
"127 742 OFFCURVE",
"125 740 OFFCURVE",
"125 732 CURVE SMOOTH",
"125 9 LINE SMOOTH",
"125 3 OFFCURVE",
"127 0 OFFCURVE",
"135 0 CURVE SMOOTH",
"161 0 LINE SMOOTH",
"169 0 OFFCURVE",
"171 3 OFFCURVE",
"171 11 CURVE SMOOTH",
"171 344 LINE SMOOTH",
"171 351 OFFCURVE",
"174 355 OFFCURVE",
"183 355 CURVE SMOOTH",
"399 355 LINE SMOOTH",
"412 355 OFFCURVE",
"417 352 OFFCURVE",
"420 345 CURVE SMOOTH",
"562 9 LINE SMOOTH",
"565 3 OFFCURVE",
"567 0 OFFCURVE",
"574 0 CURVE SMOOTH",
"602 0 LINE SMOOTH",
"609 0 OFFCURVE",
"613 7 OFFCURVE",
"610 14 CURVE SMOOTH"
);
},
{
closed = 1;
nodes = (
"178 395 LINE SMOOTH",
"173 395 OFFCURVE",
"171 398 OFFCURVE",
"171 404 CURVE SMOOTH",
"171 694 LINE SMOOTH",
"171 700 OFFCURVE",
"174 702 OFFCURVE",
"182 702 CURVE SMOOTH",
"391 702 LINE SMOOTH",
"512 702 OFFCURVE",
"572 653 OFFCURVE",
"572 551 CURVE SMOOTH",
"572 439 OFFCURVE",
"500 395 OFFCURVE",
"357 395 CURVE SMOOTH"
);
}
);
};
layerId = "91AB5BCA-6A50-42DA-B2F7-8181BF189245";
paths = (
{
closed = 1;
nodes = (
"462 364 LINE",
"534 383 OFFCURVE",
"620 434 OFFCURVE",
"620 558 CURVE SMOOTH",
"620 680 OFFCURVE",
"536 742 OFFCURVE",
"392 742 CURVE SMOOTH",
"125 742 LINE",
"125 0 LINE",
"171 0 LINE",
"171 355 LINE",
"416 355 LINE",
"566 0 LINE",
"616 0 LINE"
);
},
{
closed = 1;
nodes = (
"171 395 LINE",
"171 702 LINE",
"391 702 LINE SMOOTH",
"512 702 OFFCURVE",
"578 656 OFFCURVE",
"578 551 CURVE SMOOTH",
"578 439 OFFCURVE",
"500 395 OFFCURVE",
"357 395 CURVE SMOOTH"
);
}
);
width = 695;
}
);
leftMetricsKey = N;
rightKerningGroup = R;
unicode = 0052;
},
{
glyphname = S;
lastChange = "2017-02-25 02:53:38 +0000";
layers = (
{
anchors = (
{
name = bottom;
position = "{355, 0}";
},
{
name = top;
position = "{355, 742}";
}
);
background = {
anchors = (
{
name = bottom;
position = "{355, 0}";
},
{
name = top;
position = "{355, 742}";
}
);
paths = (
{
closed = 1;
nodes = (
"508 529 OFFCURVE",
"514 528 OFFCURVE",
"524 535 CURVE SMOOTH",
"633 614 LINE SMOOTH",
"646 624 OFFCURVE",
"639 635 OFFCURVE",
"633 644 CURVE SMOOTH",
"587 709 OFFCURVE",
"474 752 OFFCURVE",
"355 752 CURVE SMOOTH",
"166 752 OFFCURVE",
"47 645 OFFCURVE",
"47 515 CURVE SMOOTH",
"47 410 OFFCURVE",
"123 323 OFFCURVE",
"243 293 CURVE SMOOTH",
"395 256 LINE SMOOTH",
"438 246 OFFCURVE",
"458 226 OFFCURVE",
"458 202 CURVE SMOOTH",
"458 165 OFFCURVE",
"410 144 OFFCURVE",
"337 144 CURVE SMOOTH",
"258 144 OFFCURVE",
"219 167 OFFCURVE",
"175 224 CURVE SMOOTH",
"167 234 OFFCURVE",
"155 238 OFFCURVE",
"137 226 CURVE SMOOTH",
"34 155 LINE SMOOTH",
"20 144 OFFCURVE",
"20 136 OFFCURVE",
"28 122 CURVE SMOOTH",
"75 43 OFFCURVE",
"208 -10 OFFCURVE",
"354 -10 CURVE SMOOTH",
"551 -10 OFFCURVE",
"674 86 OFFCURVE",
"674 234 CURVE SMOOTH",
"674 337 OFFCURVE",
"616 421 OFFCURVE",
"491 452 CURVE SMOOTH",
"325 495 LINE SMOOTH",
"275 507 OFFCURVE",
"261 528 OFFCURVE",
"261 546 CURVE SMOOTH",
"261 571 OFFCURVE",
"288 597 OFFCURVE",
"363 597 CURVE SMOOTH",
"441 597 OFFCURVE",
"470 569 OFFCURVE",
"494 543 CURVE SMOOTH"
);
}
);
};
guideLines = (
{
angle = 214.3236;
position = "{635, 426}";
}
);
layerId = "258ED206-D907-4350-8EBA-CBDDA1C16BF7";
paths = (
{
closed = 1;
nodes = (
"551 -10 OFFCURVE",
"674 86 OFFCURVE",
"674 234 CURVE SMOOTH",
"674 337 OFFCURVE",
"616 410 OFFCURVE",
"491 442 CURVE SMOOTH",
"325 485 LINE SMOOTH",
"261 502 OFFCURVE",
"261 528 OFFCURVE",
"261 546 CURVE SMOOTH",
"261 571 OFFCURVE",
"288 597 OFFCURVE",
"363 597 CURVE SMOOTH",
"451 597 OFFCURVE",
"478 562 OFFCURVE",
"510 525 CURVE",
"647 619 LINE",
"599 707 OFFCURVE",
"480 752 OFFCURVE",
"355 752 CURVE SMOOTH",
"166 752 OFFCURVE",
"47 645 OFFCURVE",
"47 515 CURVE SMOOTH",
"47 410 OFFCURVE",
"127 333 OFFCURVE",
"243 303 CURVE SMOOTH",
"408 261 LINE SMOOTH",
"454 249 OFFCURVE",
"459 227 OFFCURVE",
"459 206 CURVE SMOOTH",
"459 165 OFFCURVE",
"400 154 OFFCURVE",
"337 154 CURVE SMOOTH",
"239 154 OFFCURVE",
"199 182 OFFCURVE",
"153 237 CURVE",
"16 143 LINE",
"65 51 OFFCURVE",
"203 -10 OFFCURVE",
"354 -10 CURVE SMOOTH"
);
}
);
width = 689;
},
{
anchors = (
{
name = bottom;
position = "{329, 0}";
},
{
name = top;
position = "{335, 742}";
}
);
background = {
anchors = (
{
name = bottom;
position = "{339, 0}";
},
{
name = top;
position = "{335, 742}";
}
);
paths = (
{
closed = 1;
nodes = (
"522 620 OFFCURVE",
"524 618 OFFCURVE",
"529 622 CURVE SMOOTH",
"551 642 LINE SMOOTH",
"557 647 OFFCURVE",
"555 652 OFFCURVE",
"551 656 CURVE SMOOTH",
"494 716 OFFCURVE",
"427 752 OFFCURVE",
"334 752 CURVE SMOOTH",
"197 752 OFFCURVE",
"102 681 OFFCURVE",
"102 556 CURVE SMOOTH",
"102 492 OFFCURVE",
"132 421 OFFCURVE",
"240 380 CURVE SMOOTH",
"391 322 LINE SMOOTH",
"500 280 OFFCURVE",
"523 239 OFFCURVE",
"523 180 CURVE SMOOTH",
"523 73 OFFCURVE",
"444 32 OFFCURVE",
"325 32 CURVE SMOOTH",
"218 32 OFFCURVE",
"170 69 OFFCURVE",
"114 141 CURVE SMOOTH",
"109 147 OFFCURVE",
"104 148 OFFCURVE",
"94 141 CURVE SMOOTH",
"83 133 LINE SMOOTH",
"73 126 OFFCURVE",
"72 120 OFFCURVE",
"77 113 CURVE SMOOTH",
"136 29 OFFCURVE",
"214 -10 OFFCURVE",
"325 -10 CURVE SMOOTH",
"476 -10 OFFCURVE",
"569 60 OFFCURVE",
"569 182 CURVE SMOOTH",
"569 266 OFFCURVE",
"526 326 OFFCURVE",
"408 369 CURVE SMOOTH",
"270 419 LINE SMOOTH",
"163 458 OFFCURVE",
"148 518 OFFCURVE",
"148 557 CURVE SMOOTH",
"148 656 OFFCURVE",
"222 710 OFFCURVE",
"331 710 CURVE SMOOTH",
"415 710 OFFCURVE",
"476 674 OFFCURVE",
"516 627 CURVE SMOOTH"
);
}
);
};
layerId = "91AB5BCA-6A50-42DA-B2F7-8181BF189245";
paths = (
{
closed = 1;
nodes = (
"476 -10 OFFCURVE",
"569 60 OFFCURVE",
"569 182 CURVE SMOOTH",
"569 266 OFFCURVE",
"526 326 OFFCURVE",
"408 369 CURVE SMOOTH",
"270 419 LINE SMOOTH",
"163 458 OFFCURVE",
"143 518 OFFCURVE",
"143 557 CURVE SMOOTH",
"143 656 OFFCURVE",
"222 710 OFFCURVE",
"331 710 CURVE SMOOTH",
"419 710 OFFCURVE",
"482 670 OFFCURVE",
"524 618 CURVE",
"558 648 LINE",
"499 713 OFFCURVE",
"430 752 OFFCURVE",
"334 752 CURVE SMOOTH",
"197 752 OFFCURVE",
"102 681 OFFCURVE",
"102 556 CURVE SMOOTH",
"102 492 OFFCURVE",
"132 428 OFFCURVE",
"240 387 CURVE SMOOTH",
"391 329 LINE SMOOTH",
"500 287 OFFCURVE",
"528 239 OFFCURVE",
"528 180 CURVE SMOOTH",
"528 73 OFFCURVE",
"444 32 OFFCURVE",
"325 32 CURVE SMOOTH",
"214 32 OFFCURVE",
"165 72 OFFCURVE",
"107 150 CURVE",
"70 124 LINE",
"130 32 OFFCURVE",
"211 -10 OFFCURVE",
"325 -10 CURVE SMOOTH"
);
}
);
width = 639;
}
);
leftKerningGroup = S;
rightKerningGroup = S;
unicode = 0053;
},
{
glyphname = Schwa;
lastChange = "2017-01-26 17:39:38 +0000";
layers = (
{
background = {
paths = (
{
closed = 1;
nodes = (
"507 431 OFFCURVE",
"500 425 OFFCURVE",
"487 425 CURVE SMOOTH",
"54 425 LINE SMOOTH",
"32 425 OFFCURVE",
"31 414 OFFCURVE",
"31 392 CURVE SMOOTH",
"31 136 OFFCURVE",
"152 -10 OFFCURVE",
"385 -10 CURVE SMOOTH",
"578 -10 OFFCURVE",
"747 158 OFFCURVE",
"747 380 CURVE SMOOTH",
"747 599 OFFCURVE",
"610 752 OFFCURVE",
"388 752 CURVE SMOOTH",
"242 752 OFFCURVE",
"136 689 OFFCURVE",
"74 567 CURVE SMOOTH",
"66 551 OFFCURVE",
"67 542 OFFCURVE",
"79 536 CURVE SMOOTH",
"217 468 LINE SMOOTH",
"234 459 OFFCURVE",
"240 462 OFFCURVE",
"244 469 CURVE SMOOTH",
"290 544 OFFCURVE",
"328 578 OFFCURVE",
"390 578 CURVE SMOOTH",
"488 578 OFFCURVE",
"507 506 OFFCURVE",
"507 447 CURVE SMOOTH"
);
},
{
closed = 1;
nodes = (
"493 192 OFFCURVE",
"464 146 OFFCURVE",
"383 146 CURVE SMOOTH",
"315 146 OFFCURVE",
"274 201 OFFCURVE",
"274 267 CURVE SMOOTH",
"274 282 OFFCURVE",
"279 285 OFFCURVE",
"296 285 CURVE SMOOTH",
"505 284 LINE"
);
}
);
};
layerId = "258ED206-D907-4350-8EBA-CBDDA1C16BF7";
paths = (
{
closed = 1;
nodes = (
"507 431 OFFCURVE",
"500 425 OFFCURVE",
"487 425 CURVE SMOOTH",
"54 425 LINE SMOOTH",
"32 425 OFFCURVE",
"31 414 OFFCURVE",
"31 392 CURVE SMOOTH",
"31 136 OFFCURVE",
"152 -10 OFFCURVE",
"385 -10 CURVE SMOOTH",
"578 -10 OFFCURVE",
"747 158 OFFCURVE",
"747 380 CURVE SMOOTH",
"747 599 OFFCURVE",
"610 752 OFFCURVE",
"388 752 CURVE SMOOTH",
"242 752 OFFCURVE",
"136 689 OFFCURVE",
"74 567 CURVE SMOOTH",
"66 551 OFFCURVE",
"67 542 OFFCURVE",
"79 536 CURVE SMOOTH",
"217 468 LINE SMOOTH",
"234 459 OFFCURVE",
"240 462 OFFCURVE",
"244 469 CURVE SMOOTH",
"290 544 OFFCURVE",
"328 578 OFFCURVE",
"390 578 CURVE SMOOTH",
"488 578 OFFCURVE",
"507 506 OFFCURVE",
"507 447 CURVE SMOOTH"
);
},
{
closed = 1;
nodes = (
"493 192 OFFCURVE",
"464 146 OFFCURVE",
"383 146 CURVE SMOOTH",
"315 146 OFFCURVE",
"274 201 OFFCURVE",
"274 267 CURVE SMOOTH",
"274 282 OFFCURVE",
"279 285 OFFCURVE",
"296 285 CURVE SMOOTH",
"505 284 LINE"
);
}
);
width = 778;
},
{
background = {
paths = (
{
closed = 1;
nodes = (
"624 381 OFFCURVE",
"623 380 OFFCURVE",
"618 380 CURVE SMOOTH",
"83 380 LINE SMOOTH",
"75 380 OFFCURVE",
"75 375 OFFCURVE",
"75 369 CURVE SMOOTH",
"75 174 OFFCURVE",
"141 -10 OFFCURVE",
"376 -10 CURVE SMOOTH",
"605 -10 OFFCURVE",
"676 180 OFFCURVE",
"676 366 CURVE SMOOTH",
"676 531 OFFCURVE",
"626 752 OFFCURVE",
"376 752 CURVE SMOOTH",
"148 752 OFFCURVE",
"104 560 OFFCURVE",
"89 522 CURVE SMOOTH",
"87 517 OFFCURVE",
"86 514 OFFCURVE",
"90 513 CURVE SMOOTH",
"128 500 LINE SMOOTH",
"132 499 OFFCURVE",
"134 498 OFFCURVE",
"135 500 CURVE SMOOTH",
"149 531 OFFCURVE",
"167 709 OFFCURVE",
"376 709 CURVE SMOOTH",
"594 709 OFFCURVE",
"624 504 OFFCURVE",
"624 386 CURVE SMOOTH"
);
},
{
closed = 1;
nodes = (
"621 191 OFFCURVE",
"572 33 OFFCURVE",
"376 33 CURVE SMOOTH",
"179 33 OFFCURVE",
"127 192 OFFCURVE",
"127 332 CURVE SMOOTH",
"127 336 OFFCURVE",
"129 338 OFFCURVE",
"135 338 CURVE SMOOTH",
"624 338 LINE"
);
}
);
};
layerId = "91AB5BCA-6A50-42DA-B2F7-8181BF189245";
paths = (
{
closed = 1;
nodes = (
"624 381 OFFCURVE",
"623 380 OFFCURVE",
"618 380 CURVE SMOOTH",
"83 380 LINE SMOOTH",
"75 380 OFFCURVE",
"75 375 OFFCURVE",
"75 369 CURVE SMOOTH",
"75 174 OFFCURVE",
"141 -10 OFFCURVE",
"376 -10 CURVE SMOOTH",
"605 -10 OFFCURVE",
"676 180 OFFCURVE",
"676 366 CURVE SMOOTH",
"676 531 OFFCURVE",
"626 752 OFFCURVE",
"376 752 CURVE SMOOTH",
"148 752 OFFCURVE",
"104 560 OFFCURVE",
"89 522 CURVE SMOOTH",
"87 517 OFFCURVE",
"86 514 OFFCURVE",
"90 513 CURVE SMOOTH",
"128 500 LINE SMOOTH",
"132 499 OFFCURVE",
"134 498 OFFCURVE",
"135 500 CURVE SMOOTH",
"149 531 OFFCURVE",
"167 709 OFFCURVE",
"376 709 CURVE SMOOTH",
"594 709 OFFCURVE",
"624 504 OFFCURVE",
"624 386 CURVE SMOOTH"
);
},
{
closed = 1;
nodes = (
"621 191 OFFCURVE",
"572 33 OFFCURVE",
"376 33 CURVE SMOOTH",
"179 33 OFFCURVE",
"127 192 OFFCURVE",
"127 332 CURVE SMOOTH",
"127 336 OFFCURVE",
"129 338 OFFCURVE",
"135 338 CURVE SMOOTH",
"624 338 LINE"
);
}
);
width = 751;
}
);
leftMetricsKey = O;
rightMetricsKey = O;
unicode = 018F;
},
{
glyphname = T;
lastChange = "2017-03-01 18:56:01 +0000";
layers = (
{
anchors = (
{
name = bottom;
position = "{348, 0}";
},
{
name = top;
position = "{348, 742}";
}
);
background = {
anchors = (
{
name = bottom;
position = "{352, 0}";
},
{
name = top;
position = "{352, 742}";
}
);
paths = (
{
closed = 1;
nodes = (
"28 586 OFFCURVE",
"37 581 OFFCURVE",
"51 581 CURVE SMOOTH",
"227 581 LINE SMOOTH",
"235 581 OFFCURVE",
"238 577 OFFCURVE",
"238 567 CURVE SMOOTH",
"238 20 LINE SMOOTH",
"238 7 OFFCURVE",
"245 0 OFFCURVE",
"256 0 CURVE SMOOTH",
"446 0 LINE SMOOTH",
"457 0 OFFCURVE",
"465 7 OFFCURVE",
"465 22 CURVE SMOOTH",
"465 571 LINE SMOOTH",
"465 578 OFFCURVE",
"469 581 OFFCURVE",
"477 581 CURVE SMOOTH",
"654 581 LINE SMOOTH",
"667 581 OFFCURVE",
"676 586 OFFCURVE",
"676 600 CURVE SMOOTH",
"676 719 LINE SMOOTH",
"676 732 OFFCURVE",
"668 742 OFFCURVE",
"651 742 CURVE SMOOTH",
"53 742 LINE SMOOTH",
"36 742 OFFCURVE",
"28 732 OFFCURVE",
"28 719 CURVE SMOOTH",
"28 600 LINE SMOOTH"
);
}
);
};
layerId = "258ED206-D907-4350-8EBA-CBDDA1C16BF7";
paths = (
{
closed = 1;
nodes = (
"238 581 LINE",
"238 0 LINE",
"440 0 LINE",
"440 581 LINE",
"651 581 LINE",
"651 742 LINE",
"28 742 LINE",
"28 581 LINE"
);
}
);
width = 689;
},
{
anchors = (
{
name = bottom;
position = "{331, 0}";
},
{
name = top;
position = "{331, 742}";
}
);
background = {
anchors = (
{
name = bottom;
position = "{331, 0}";
},
{
name = top;
position = "{331, 742}";
}
);
paths = (
{
closed = 1;
nodes = (
"55 703 OFFCURVE",
"57 702 OFFCURVE",
"63 702 CURVE SMOOTH",
"297 702 LINE SMOOTH",
"305 702 OFFCURVE",
"307 701 OFFCURVE",
"307 693 CURVE SMOOTH",
"307 10 LINE SMOOTH",
"307 2 OFFCURVE",
"309 0 OFFCURVE",
"317 0 CURVE SMOOTH",
"344 0 LINE SMOOTH",
"351 0 OFFCURVE",
"353 2 OFFCURVE",
"353 10 CURVE SMOOTH",
"353 693 LINE SMOOTH",
"353 701 OFFCURVE",
"355 702 OFFCURVE",
"363 702 CURVE SMOOTH",
"576 702 LINE SMOOTH",
"582 702 OFFCURVE",
"584 703 OFFCURVE",
"584 709 CURVE SMOOTH",
"584 735 LINE SMOOTH",
"584 740 OFFCURVE",
"582 742 OFFCURVE",
"577 742 CURVE SMOOTH",
"62 742 LINE SMOOTH",
"57 742 OFFCURVE",
"55 740 OFFCURVE",
"55 735 CURVE SMOOTH",
"55 709 LINE SMOOTH"
);
}
);
};
layerId = "91AB5BCA-6A50-42DA-B2F7-8181BF189245";
paths = (
{
closed = 1;
nodes = (
"308 700 LINE",
"308 0 LINE",
"352 0 LINE",
"352 700 LINE",
"584 700 LINE",
"584 742 LINE",
"55 742 LINE",
"55 700 LINE"
);
}
);
width = 634;
}
);
leftKerningGroup = T;
rightKerningGroup = T;
unicode = 0054;
},
{
glyphname = Tbar;
lastChange = "2017-01-26 17:39:45 +0000";
layers = (
{
background = {
components = (
{
name = T;
}
);
paths = (
{
closed = 1;
nodes = (
"554 414 OFFCURVE",
"547 422 OFFCURVE",
"536 422 CURVE SMOOTH",
"135 422 LINE SMOOTH",
"123 422 OFFCURVE",
"116 414 OFFCURVE",
"116 399 CURVE SMOOTH",
"116 306 LINE SMOOTH",
"116 289 OFFCURVE",
"122 281 OFFCURVE",
"142 281 CURVE SMOOTH",
"521 281 LINE SMOOTH",
"544 281 OFFCURVE",
"554 289 OFFCURVE",
"554 309 CURVE SMOOTH",
"554 402 LINE SMOOTH"
);
}
);
};
components = (
{
name = T;
}
);
layerId = "258ED206-D907-4350-8EBA-CBDDA1C16BF7";
paths = (
{
closed = 1;
nodes = (
"116 422 LINE",
"116 281 LINE",
"554 281 LINE",
"554 422 LINE"
);
}
);
width = 699;
},
{
background = {
components = (
{
name = T;
transform = "{1, 0, 0, 1, 4, 0}";
}
);
guideLines = (
{
angle = 90;
position = "{179, 188}";
showMeasurement = 1;
}
);
paths = (
{
closed = 1;
nodes = (
"508 399 OFFCURVE",
"506 402 OFFCURVE",
"501 402 CURVE SMOOTH",
"149 402 LINE SMOOTH",
"144 402 OFFCURVE",
"142 399 OFFCURVE",
"142 393 CURVE SMOOTH",
"142 370 LINE SMOOTH",
"142 363 OFFCURVE",
"144 360 OFFCURVE",
"152 360 CURVE SMOOTH",
"495 360 LINE SMOOTH",
"504 360 OFFCURVE",
"508 363 OFFCURVE",
"508 371 CURVE SMOOTH",
"508 394 LINE SMOOTH"
);
}
);
};
components = (
{
name = T;
}
);
guideLines = (
{
angle = 90;
position = "{287, 188}";
showMeasurement = 1;
}
);
layerId = "91AB5BCA-6A50-42DA-B2F7-8181BF189245";
paths = (
{
closed = 1;
nodes = (
"142 402 LINE",
"142 360 LINE",
"508 360 LINE",
"508 402 LINE"
);
}
);
width = 613;
}
);
leftMetricsKey = T;
rightMetricsKey = T;
unicode = 0166;
},
{
glyphname = U;
lastChange = "2017-03-01 18:54:26 +0000";
layers = (
{
anchors = (
{
name = ogonek;
position = "{441, 12}";
},
{
name = top;
position = "{342, 742}";
}
);
background = {
anchors = (
{
name = ogonek;
position = "{457, 10}";
},
{
name = top;
position = "{362, 742}";
}
);
paths = (
{
closed = 1;
nodes = (
"665 721 LINE SMOOTH",
"665 734 OFFCURVE",
"659 742 OFFCURVE",
"647 742 CURVE SMOOTH",
"497 742 LINE SMOOTH",
"485 742 OFFCURVE",
"478 734 OFFCURVE",
"478 719 CURVE SMOOTH",
"478 292 LINE SMOOTH",
"478 181 OFFCURVE",
"424 149 OFFCURVE",
"362 149 CURVE SMOOTH",
"294 149 OFFCURVE",
"252 187 OFFCURVE",
"252 289 CURVE SMOOTH",
"252 721 LINE SMOOTH",
"252 734 OFFCURVE",
"246 742 OFFCURVE",
"234 742 CURVE SMOOTH",
"44 742 LINE SMOOTH",
"33 742 OFFCURVE",
"25 734 OFFCURVE",
"25 719 CURVE SMOOTH",
"25 313 LINE SMOOTH",
"25 104 OFFCURVE",
"106 -10 OFFCURVE",
"345 -10 CURVE SMOOTH",
"536 -10 OFFCURVE",
"665 62 OFFCURVE",
"665 293 CURVE SMOOTH"
);
}
);
};
layerId = "258ED206-D907-4350-8EBA-CBDDA1C16BF7";
paths = (
{
closed = 1;
nodes = (
"680 742 LINE",
"478 742 LINE",
"478 298 LINE SMOOTH",
"478 196 OFFCURVE",
"422 157 OFFCURVE",
"360 157 CURVE SMOOTH",
"298 157 OFFCURVE",
"242 196 OFFCURVE",
"242 298 CURVE SMOOTH",
"242 742 LINE",
"40 742 LINE",
"40 307 LINE SMOOTH",
"40 118 OFFCURVE",
"121 -10 OFFCURVE",
"360 -10 CURVE SMOOTH",
"599 -10 OFFCURVE",
"680 118 OFFCURVE",
"680 307 CURVE SMOOTH"
);
}
);
width = 720;
},
{
anchors = (
{
name = ogonek;
position = "{442, 9}";
},
{
name = top;
position = "{374, 742}";
}
);
background = {
anchors = (
{
name = ogonek;
position = "{442, 9}";
},
{
name = top;
position = "{374, 742}";
}
);
paths = (
{
closed = 1;
nodes = (
"617 733 LINE SMOOTH",
"617 739 OFFCURVE",
"615 742 OFFCURVE",
"609 742 CURVE SMOOTH",
"585 742 LINE SMOOTH",
"579 742 OFFCURVE",
"577 739 OFFCURVE",
"577 733 CURVE SMOOTH",
"577 229 LINE SMOOTH",
"577 97 OFFCURVE",
"510 32 OFFCURVE",
"372 32 CURVE SMOOTH",
"236 32 OFFCURVE",
"169 96 OFFCURVE",
"169 226 CURVE SMOOTH",
"169 732 LINE SMOOTH",
"169 740 OFFCURVE",
"167 742 OFFCURVE",
"159 742 CURVE SMOOTH",
"131 742 LINE SMOOTH",
"125 742 OFFCURVE",
"123 739 OFFCURVE",
"123 731 CURVE SMOOTH",
"123 245 LINE SMOOTH",
"123 71 OFFCURVE",
"202 -10 OFFCURVE",
"370 -10 CURVE SMOOTH",
"536 -10 OFFCURVE",
"617 69 OFFCURVE",
"617 230 CURVE SMOOTH"
);
}
);
};
layerId = "91AB5BCA-6A50-42DA-B2F7-8181BF189245";
paths = (
{
closed = 1;
nodes = (
"617 742 LINE",
"577 742 LINE",
"577 228 LINE SMOOTH",
"577 96 OFFCURVE",
"508 24 OFFCURVE",
"370 24 CURVE SMOOTH",
"234 24 OFFCURVE",
"169 98 OFFCURVE",
"169 228 CURVE SMOOTH",
"169 742 LINE",
"125 742 LINE",
"125 245 LINE SMOOTH",
"125 71 OFFCURVE",
"202 -10 OFFCURVE",
"370 -10 CURVE SMOOTH",
"536 -10 OFFCURVE",
"617 69 OFFCURVE",
"617 230 CURVE SMOOTH"
);
}
);
width = 697;
}
);
leftKerningGroup = U;
leftMetricsKey = N;
rightKerningGroup = U;
unicode = 0055;
},
{
glyphname = V;
lastChange = "2017-03-01 18:56:28 +0000";
layers = (
{
background = {
paths = (
{
closed = 1;
nodes = (
"557 742 LINE SMOOTH",
"545 742 OFFCURVE",
"534 734 OFFCURVE",
"531 721 CURVE SMOOTH",
"406 283 LINE SMOOTH",
"403 273 OFFCURVE",
"399 273 OFFCURVE",
"396 282 CURVE SMOOTH",
"262 721 LINE SMOOTH",
"258 734 OFFCURVE",
"249 742 OFFCURVE",
"237 742 CURVE SMOOTH",
"44 742 LINE SMOOTH",
"28 742 OFFCURVE",
"19 728 OFFCURVE",
"25 713 CURVE SMOOTH",
"257 25 LINE SMOOTH",
"262 8 OFFCURVE",
"274 0 OFFCURVE",
"294 0 CURVE SMOOTH",
"456 0 LINE SMOOTH",
"476 0 OFFCURVE",
"488 8 OFFCURVE",
"493 25 CURVE SMOOTH",
"725 713 LINE SMOOTH",
"730 728 OFFCURVE",
"722 742 OFFCURVE",
"706 742 CURVE SMOOTH"
);
}
);
};
layerId = "258ED206-D907-4350-8EBA-CBDDA1C16BF7";
paths = (
{
closed = 1;
nodes = (
"537 742 LINE",
"401 266 LINE",
"256 742 LINE",
"15 742 LINE",
"265 0 LINE",
"485 0 LINE",
"735 742 LINE"
);
}
);
width = 750;
},
{
background = {
paths = (
{
closed = 1;
nodes = (
"626 742 LINE SMOOTH",
"620 742 OFFCURVE",
"617 740 OFFCURVE",
"615 735 CURVE SMOOTH",
"371 65 LINE SMOOTH",
"366 51 OFFCURVE",
"360 51 OFFCURVE",
"355 64 CURVE SMOOTH",
"118 734 LINE SMOOTH",
"116 740 OFFCURVE",
"113 742 OFFCURVE",
"105 742 CURVE SMOOTH",
"82 742 LINE SMOOTH",
"75 742 OFFCURVE",
"72 738 OFFCURVE",
"74 732 CURVE SMOOTH",
"329 10 LINE SMOOTH",
"331 3 OFFCURVE",
"337 0 OFFCURVE",
"348 0 CURVE SMOOTH",
"380 0 LINE SMOOTH",
"389 0 OFFCURVE",
"393 3 OFFCURVE",
"396 11 CURVE SMOOTH",
"658 733 LINE SMOOTH",
"660 738 OFFCURVE",
"657 742 OFFCURVE",
"651 742 CURVE SMOOTH"
);
}
);
};
layerId = "91AB5BCA-6A50-42DA-B2F7-8181BF189245";
paths = (
{
closed = 1;
nodes = (
"618 742 LINE",
"363 42 LINE",
"115 742 LINE",
"70 742 LINE",
"333 0 LINE",
"392 0 LINE",
"661 742 LINE"
);
}
);
width = 696;
}
);
leftKerningGroup = V;
leftMetricsKey = W;
rightKerningGroup = V;
rightMetricsKey = W;
unicode = 0056;
},
{
glyphname = W;
lastChange = "2017-03-01 18:56:24 +0000";
layers = (
{
anchors = (
{
name = top;
position = "{515, 742}";
}
);
background = {
anchors = (
{
name = top;
position = "{526, 742}";
}
);
paths = (
{
closed = 1;
nodes = (
"906 742 LINE SMOOTH",
"885 742 OFFCURVE",
"877 734 OFFCURVE",
"874 721 CURVE SMOOTH",
"772 339 LINE SMOOTH",
"770 331 OFFCURVE",
"763 333 OFFCURVE",
"761 341 CURVE SMOOTH",
"651 721 LINE SMOOTH",
"647 734 OFFCURVE",
"640 742 OFFCURVE",
"619 742 CURVE SMOOTH",
"479 742 LINE SMOOTH",
"458 742 OFFCURVE",
"450 734 OFFCURVE",
"447 721 CURVE SMOOTH",
"342 346 LINE SMOOTH",
"339 335 OFFCURVE",
"334 335 OFFCURVE",
"330 350 CURVE SMOOTH",
"224 721 LINE SMOOTH",
"220 734 OFFCURVE",
"213 742 OFFCURVE",
"192 742 CURVE SMOOTH",
"27 742 LINE SMOOTH",
"1 742 OFFCURVE",
"-9 725 OFFCURVE",
"-3 702 CURVE SMOOTH",
"201 25 LINE SMOOTH",
"207 8 OFFCURVE",
"217 0 OFFCURVE",
"237 0 CURVE SMOOTH",
"380 0 LINE SMOOTH",
"401 0 OFFCURVE",
"411 8 OFFCURVE",
"416 25 CURVE SMOOTH",
"519 375 LINE SMOOTH",
"526 395 OFFCURVE",
"531 393 OFFCURVE",
"535 377 CURVE SMOOTH",
"639 25 LINE SMOOTH",
"644 8 OFFCURVE",
"655 0 OFFCURVE",
"675 0 CURVE SMOOTH",
"813 0 LINE SMOOTH",
"833 0 OFFCURVE",
"843 8 OFFCURVE",
"849 25 CURVE SMOOTH",
"1052 702 LINE SMOOTH",
"1058 725 OFFCURVE",
"1048 742 OFFCURVE",
"1022 742 CURVE SMOOTH"
);
}
);
};
guideLines = (
{
angle = -73.94;
position = "{218, 742}";
},
{
angle = 74.3834;
position = "{443, 742}";
}
);
layerId = "258ED206-D907-4350-8EBA-CBDDA1C16BF7";
paths = (
{
closed = 1;
nodes = (
"797 742 LINE",
"686 346 LINE",
"572 742 LINE",
"433 742 LINE",
"322 346 LINE",
"208 742 LINE",
"15 742 LINE",
"239 0 LINE",
"386 0 LINE",
"504 403 LINE",
"621 0 LINE",
"770 0 LINE",
"992 742 LINE"
);
}
);
width = 1007;
},
{
anchors = (
{
name = top;
position = "{530, 742}";
}
);
background = {
anchors = (
{
name = top;
position = "{530, 742}";
}
);
guideLines = (
{
position = "{64, 125}";
showMeasurement = 1;
}
);
paths = (
{
closed = 1;
nodes = (
"952 742 LINE SMOOTH",
"946 742 OFFCURVE",
"941 740 OFFCURVE",
"940 735 CURVE SMOOTH",
"751 72 LINE SMOOTH",
"747 58 OFFCURVE",
"743 58 OFFCURVE",
"739 71 CURVE SMOOTH",
"554 734 LINE SMOOTH",
"552 740 OFFCURVE",
"550 742 OFFCURVE",
"542 742 CURVE SMOOTH",
"517 742 LINE SMOOTH",
"508 742 OFFCURVE",
"505 738 OFFCURVE",
"504 735 CURVE SMOOTH",
"315 72 LINE SMOOTH",
"311 58 OFFCURVE",
"307 58 OFFCURVE",
"303 71 CURVE SMOOTH",
"118 734 LINE SMOOTH",
"116 740 OFFCURVE",
"114 742 OFFCURVE",
"106 742 CURVE SMOOTH",
"81 742 LINE SMOOTH",
"74 742 OFFCURVE",
"71 738 OFFCURVE",
"73 732 CURVE SMOOTH",
"275 10 LINE SMOOTH",
"277 3 OFFCURVE",
"283 0 OFFCURVE",
"293 0 CURVE SMOOTH",
"325 0 LINE SMOOTH",
"335 0 OFFCURVE",
"339 3 OFFCURVE",
"341 11 CURVE SMOOTH",
"526 658 LINE SMOOTH",
"527 662 OFFCURVE",
"529 662 OFFCURVE",
"530 658 CURVE SMOOTH",
"711 10 LINE SMOOTH",
"713 3 OFFCURVE",
"719 0 OFFCURVE",
"729 0 CURVE SMOOTH",
"761 0 LINE SMOOTH",
"771 0 OFFCURVE",
"775 3 OFFCURVE",
"777 11 CURVE SMOOTH",
"984 733 LINE SMOOTH",
"985 738 OFFCURVE",
"983 742 OFFCURVE",
"977 742 CURVE SMOOTH"
);
}
);
};
guideLines = (
{
position = "{172, 125}";
showMeasurement = 1;
}
);
layerId = "91AB5BCA-6A50-42DA-B2F7-8181BF189245";
paths = (
{
closed = 1;
nodes = (
"930 742 LINE",
"733 50 LINE",
"540 742 LINE",
"500 742 LINE",
"303 50 LINE",
"113 742 LINE",
"70 742 LINE",
"278 0 LINE",
"329 0 LINE",
"519 665 LINE",
"705 0 LINE",
"759 0 LINE",
"972 742 LINE"
);
}
);
width = 1007;
}
);
leftKerningGroup = W;
rightKerningGroup = W;
unicode = 0057;
},
{
glyphname = X;
lastChange = "2017-03-01 18:56:38 +0000";
layers = (
{
background = {
paths = (
{
closed = 1;
nodes = (
"499 403 LINE",
"721 742 LINE",
"504 742 LINE",
"390 541 LINE",
"276 742 LINE",
"21 742 LINE",
"257 374 LINE",
"48 51 LINE SMOOTH",
"22 11 OFFCURVE",
"33 0 OFFCURVE",
"61 0 CURVE SMOOTH",
"235 0 LINE",
"368 233 LINE",
"504 0 LINE",
"714 0 LINE SMOOTH",
"742 0 OFFCURVE",
"753 12 OFFCURVE",
"728 51 CURVE SMOOTH"
);
}
);
};
layerId = "258ED206-D907-4350-8EBA-CBDDA1C16BF7";
paths = (
{
closed = 1;
nodes = (
"485 403 LINE",
"707 742 LINE",
"497 742 LINE",
"383 541 LINE",
"269 742 LINE",
"21 742 LINE",
"257 374 LINE",
"15 0 LINE",
"228 0 LINE",
"361 233 LINE",
"497 0 LINE",
"747 0 LINE"
);
}
);
width = 767;
},
{
background = {
guideLines = (
{
angle = 90;
position = "{82, 437}";
},
{
angle = 90;
position = "{593, 372}";
},
{
position = "{48, 716}";
showMeasurement = 1;
},
{
position = "{42, 32}";
showMeasurement = 1;
},
{
position = "{112, 454}";
showMeasurement = 1;
},
{
position = "{110, 290}";
showMeasurement = 1;
},
{
angle = 236.602;
position = "{325, 374}";
},
{
angle = 123.344;
position = "{382, 374}";
},
{
angle = 56.5817;
position = "{370, 370}";
},
{
angle = 123.4;
position = "{335, 370}";
}
);
paths = (
{
closed = 1;
nodes = (
"384 374 LINE SMOOTH",
"380 380 OFFCURVE",
"381 384 OFFCURVE",
"385 390 CURVE SMOOTH",
"619 736 LINE SMOOTH",
"621 739 OFFCURVE",
"621 742 OFFCURVE",
"617 742 CURVE SMOOTH",
"576 742 LINE SMOOTH",
"572 742 OFFCURVE",
"570 741 OFFCURVE",
"568 738 CURVE SMOOTH",
"361 431 LINE SMOOTH",
"354 421 OFFCURVE",
"350 422 OFFCURVE",
"344 430 CURVE SMOOTH",
"137 738 LINE SMOOTH",
"135 741 OFFCURVE",
"134 742 OFFCURVE",
"128 742 CURVE SMOOTH",
"89 742 LINE SMOOTH",
"85 742 OFFCURVE",
"84 737 OFFCURVE",
"86 734 CURVE SMOOTH",
"318 391 LINE SMOOTH",
"323 383 OFFCURVE",
"324 377 OFFCURVE",
"319 370 CURVE SMOOTH",
"77 10 LINE SMOOTH",
"72 2 OFFCURVE",
"74 0 OFFCURVE",
"80 0 CURVE SMOOTH",
"116 0 LINE SMOOTH",
"119 0 OFFCURVE",
"122 1 OFFCURVE",
"124 4 CURVE SMOOTH",
"341 324 LINE SMOOTH",
"351 339 OFFCURVE",
"355 338 OFFCURVE",
"362 327 CURVE SMOOTH",
"582 4 LINE SMOOTH",
"584 1 OFFCURVE",
"585 0 OFFCURVE",
"589 0 CURVE SMOOTH",
"625 0 LINE SMOOTH",
"631 0 OFFCURVE",
"635 2 OFFCURVE",
"629 10 CURVE SMOOTH"
);
}
);
};
guideLines = (
{
angle = 90;
position = "{190, 437}";
},
{
angle = 90;
position = "{701, 372}";
},
{
position = "{156, 716}";
showMeasurement = 1;
},
{
position = "{150, 32}";
showMeasurement = 1;
},
{
position = "{220, 454}";
showMeasurement = 1;
},
{
position = "{218, 290}";
showMeasurement = 1;
},
{
angle = 236.602;
position = "{433, 374}";
},
{
angle = 123.344;
position = "{490, 374}";
},
{
angle = 56.5817;
position = "{478, 370}";
},
{
angle = 123.4;
position = "{443, 370}";
}
);
layerId = "91AB5BCA-6A50-42DA-B2F7-8181BF189245";
paths = (
{
closed = 1;
nodes = (
"379 381 LINE",
"623 742 LINE",
"571 742 LINE",
"352 418 LINE",
"134 742 LINE",
"81 742 LINE",
"326 380 LINE",
"70 0 LINE",
"121 0 LINE",
"353 341 LINE",
"585 0 LINE",
"636 0 LINE"
);
}
);
width = 691;
}
);
leftKerningGroup = X;
leftMetricsKey = W;
rightKerningGroup = X;
unicode = 0058;
},
{
glyphname = Y;
lastChange = "2017-02-17 19:25:22 +0000";
layers = (
{
anchors = (
{
name = top;
position = "{407, 742}";
}
);
background = {
anchors = (
{
name = top;
position = "{407, 742}";
}
);
paths = (
{
closed = 1;
nodes = (
"580 742 LINE SMOOTH",
"561 742 OFFCURVE",
"554 738 OFFCURVE",
"546 721 CURVE SMOOTH",
"425 498 LINE SMOOTH",
"418 486 OFFCURVE",
"414 487 OFFCURVE",
"408 499 CURVE SMOOTH",
"285 721 LINE SMOOTH",
"276 737 OFFCURVE",
"271 742 OFFCURVE",
"251 742 CURVE SMOOTH",
"50 742 LINE SMOOTH",
"29 742 OFFCURVE",
"22 730 OFFCURVE",
"32 714 CURVE SMOOTH",
"266 332 LINE SMOOTH",
"275 317 OFFCURVE",
"280 309 OFFCURVE",
"280 288 CURVE SMOOTH",
"280 25 LINE SMOOTH",
"280 8 OFFCURVE",
"286 0 OFFCURVE",
"306 0 CURVE SMOOTH",
"474 0 LINE SMOOTH",
"497 0 OFFCURVE",
"507 8 OFFCURVE",
"507 29 CURVE SMOOTH",
"507 275 LINE SMOOTH",
"507 317 OFFCURVE",
"508 327 OFFCURVE",
"517 341 CURVE SMOOTH",
"751 719 LINE SMOOTH",
"759 732 OFFCURVE",
"754 742 OFFCURVE",
"737 742 CURVE SMOOTH"
);
}
);
};
layerId = "258ED206-D907-4350-8EBA-CBDDA1C16BF7";
paths = (
{
closed = 1;
nodes = (
"547 742 LINE",
"407 483 LINE",
"263 742 LINE",
"20 742 LINE",
"285 309 LINE",
"285 0 LINE",
"497 0 LINE",
"497 325 LINE",
"755 742 LINE"
);
}
);
width = 778;
},
{
anchors = (
{
name = top;
position = "{321, 742}";
}
);
background = {
anchors = (
{
name = top;
position = "{321, 742}";
}
);
paths = (
{
closed = 1;
nodes = (
"563 742 LINE SMOOTH",
"554 742 OFFCURVE",
"552 741 OFFCURVE",
"547 733 CURVE SMOOTH",
"338 374 LINE SMOOTH",
"330 361 OFFCURVE",
"323 360 OFFCURVE",
"314 376 CURVE SMOOTH",
"104 733 LINE SMOOTH",
"100 740 OFFCURVE",
"97 742 OFFCURVE",
"88 742 CURVE SMOOTH",
"65 742 LINE SMOOTH",
"55 742 OFFCURVE",
"53 737 OFFCURVE",
"57 730 CURVE SMOOTH",
"301 315 LINE SMOOTH",
"305 308 OFFCURVE",
"306 305 OFFCURVE",
"306 295 CURVE SMOOTH",
"306 11 LINE SMOOTH",
"306 4 OFFCURVE",
"309 0 OFFCURVE",
"318 0 CURVE SMOOTH",
"337 0 LINE SMOOTH",
"348 0 OFFCURVE",
"352 4 OFFCURVE",
"352 13 CURVE SMOOTH",
"352 306 LINE SMOOTH",
"352 316 OFFCURVE",
"352 320 OFFCURVE",
"356 326 CURVE SMOOTH",
"595 731 LINE SMOOTH",
"599 737 OFFCURVE",
"596 742 OFFCURVE",
"589 742 CURVE SMOOTH"
);
}
);
};
layerId = "91AB5BCA-6A50-42DA-B2F7-8181BF189245";
paths = (
{
closed = 1;
nodes = (
"552 742 LINE",
"327 354 LINE",
"99 742 LINE",
"50 742 LINE",
"306 306 LINE",
"306 0 LINE",
"352 0 LINE",
"352 319 LINE",
"601 742 LINE"
);
}
);
width = 651;
}
);
leftKerningGroup = Y;
rightKerningGroup = Y;
unicode = 0059;
},
{
glyphname = Z;
lastChange = "2017-03-01 18:52:48 +0000";
layers = (
{
anchors = (
{
name = bottom;
position = "{356, 0}";
},
{
name = top;
position = "{380, 742}";
}
);
background = {
anchors = (
{
name = bottom;
position = "{356, 0}";
},
{
name = top;
position = "{380, 742}";
}
);
paths = (
{
closed = 1;
nodes = (
"686 0 LINE",
"686 166 LINE",
"345 166 LINE",
"692 654 LINE",
"692 742 LINE",
"68 742 LINE",
"68 577 LINE",
"375 577 LINE",
"35 91 LINE",
"35 0 LINE"
);
}
);
};
layerId = "258ED206-D907-4350-8EBA-CBDDA1C16BF7";
paths = (
{
closed = 1;
nodes = (
"676 0 LINE",
"676 166 LINE",
"335 166 LINE",
"682 654 LINE",
"682 742 LINE",
"68 742 LINE",
"68 577 LINE",
"375 577 LINE",
"35 91 LINE",
"35 0 LINE"
);
}
);
width = 723;
},
{
anchors = (
{
name = bottom;
position = "{317, 0}";
},
{
name = top;
position = "{310, 742}";
}
);
background = {
anchors = (
{
name = bottom;
position = "{317, 0}";
},
{
name = top;
position = "{310, 742}";
}
);
paths = (
{
closed = 1;
nodes = (
"549 0 LINE",
"549 40 LINE",
"115 40 LINE",
"549 715 LINE",
"549 742 LINE",
"70 742 LINE",
"70 702 LINE",
"491 702 LINE",
"60 28 LINE",
"60 0 LINE"
);
}
);
};
layerId = "91AB5BCA-6A50-42DA-B2F7-8181BF189245";
paths = (
{
closed = 1;
nodes = (
"549 0 LINE",
"549 40 LINE",
"115 40 LINE",
"549 715 LINE",
"549 742 LINE",
"70 742 LINE",
"70 702 LINE",
"491 702 LINE",
"60 28 LINE",
"60 0 LINE"
);
}
);
width = 624;
}
);
leftKerningGroup = Z;
rightKerningGroup = Z;
unicode = 005A;
},
{
glyphname = a;
lastChange = "2017-02-28 20:07:54 +0000";
layers = (
{
anchors = (
{
name = ogonek;
position = "{506, 10}";
},
{
name = top;
position = "{294, 530}";
}
);
background = {
anchors = (
{
name = ogonek;
position = "{506, 10}";
},
{
name = top;
position = "{294, 530}";
}
);
guideLines = (
{
angle = 90;
position = "{344, 102}";
}
);
paths = (
{
closed = 1;
nodes = (
"337 56 OFFCURVE",
"345 55 OFFCURVE",
"347 42 CURVE SMOOTH",
"348 35 LINE SMOOTH",
"351 16 OFFCURVE",
"356 0 OFFCURVE",
"374 0 CURVE SMOOTH",
"511 0 LINE SMOOTH",
"530 0 OFFCURVE",
"534 7 OFFCURVE",
"534 27 CURVE SMOOTH",
"534 375 LINE SMOOTH",
"534 473 OFFCURVE",
"479 540 OFFCURVE",
"294 540 CURVE SMOOTH",
"163 540 OFFCURVE",
"72 506 OFFCURVE",
"42 421 CURVE SMOOTH",
"33 396 OFFCURVE",
"39 391 OFFCURVE",
"49 389 CURVE SMOOTH",
"180 363 LINE SMOOTH",
"198 360 OFFCURVE",
"202 363 OFFCURVE",
"207 374 CURVE SMOOTH",
"224 411 OFFCURVE",
"257 421 OFFCURVE",
"285 421 CURVE SMOOTH",
"325 421 OFFCURVE",
"344 400 OFFCURVE",
"344 363 CURVE SMOOTH",
"344 346 LINE SMOOTH",
"344 334 OFFCURVE",
"334 332 OFFCURVE",
"329 332 CURVE SMOOTH",
"322 332 LINE SMOOTH",
"133 332 OFFCURVE",
"15 253 OFFCURVE",
"15 136 CURVE SMOOTH",
"15 53 OFFCURVE",
"75 -10 OFFCURVE",
"175 -10 CURVE SMOOTH",
"237 -10 OFFCURVE",
"284 12 OFFCURVE",
"320 42 CURVE SMOOTH"
);
},
{
closed = 1;
nodes = (
"344 171 LINE SMOOTH",
"344 156 OFFCURVE",
"333 145 OFFCURVE",
"321 135 CURVE SMOOTH",
"310 126 OFFCURVE",
"292 116 OFFCURVE",
"266 116 CURVE SMOOTH",
"230 116 OFFCURVE",
"209 135 OFFCURVE",
"209 163 CURVE SMOOTH",
"209 219 OFFCURVE",
"293 242 OFFCURVE",
"325 242 CURVE SMOOTH",
"329 242 LINE SMOOTH",
"341 242 OFFCURVE",
"344 236 OFFCURVE",
"344 224 CURVE SMOOTH"
);
}
);
};
guideLines = (
{
angle = 90;
position = "{344, 102}";
}
);
layerId = "258ED206-D907-4350-8EBA-CBDDA1C16BF7";
paths = (
{
closed = 1;
nodes = (
"247 -10 OFFCURVE",
"302 21 OFFCURVE",
"344 62 CURVE",
"364 0 LINE",
"534 0 LINE",
"534 375 LINE SMOOTH",
"534 473 OFFCURVE",
"479 540 OFFCURVE",
"294 540 CURVE SMOOTH",
"158 540 OFFCURVE",
"63 498 OFFCURVE",
"32 392 CURVE",
"200 359 LINE",
"219 408 OFFCURVE",
"255 421 OFFCURVE",
"285 421 CURVE SMOOTH",
"325 421 OFFCURVE",
"344 400 OFFCURVE",
"344 363 CURVE SMOOTH",
"344 332 LINE",
"322 332 LINE SMOOTH",
"133 332 OFFCURVE",
"15 253 OFFCURVE",
"15 136 CURVE SMOOTH",
"15 53 OFFCURVE",
"75 -10 OFFCURVE",
"175 -10 CURVE SMOOTH"
);
},
{
closed = 1;
nodes = (
"230 116 OFFCURVE",
"209 135 OFFCURVE",
"209 163 CURVE SMOOTH",
"209 219 OFFCURVE",
"290 242 OFFCURVE",
"322 242 CURVE SMOOTH",
"344 242 LINE",
"344 154 LINE",
"328 136 OFFCURVE",
"303 116 OFFCURVE",
"266 116 CURVE SMOOTH"
);
}
);
width = 574;
},
{
anchors = (
{
name = ogonek;
position = "{453, 14}";
},
{
name = top;
position = "{268, 530}";
}
);
background = {
anchors = (
{
name = ogonek;
position = "{453, 14}";
},
{
name = top;
position = "{268, 530}";
}
);
paths = (
{
closed = 1;
nodes = (
"415 78 OFFCURVE",
"419 77 OFFCURVE",
"420 70 CURVE SMOOTH",
"422 9 LINE SMOOTH",
"422 2 OFFCURVE",
"425 0 OFFCURVE",
"431 0 CURVE SMOOTH",
"449 0 LINE SMOOTH",
"455 0 OFFCURVE",
"459 2 OFFCURVE",
"459 10 CURVE SMOOTH",
"459 367 LINE SMOOTH",
"459 475 OFFCURVE",
"385 540 OFFCURVE",
"272 540 CURVE SMOOTH",
"177 540 OFFCURVE",
"110 493 OFFCURVE",
"68 431 CURVE SMOOTH",
"64 426 OFFCURVE",
"65 423 OFFCURVE",
"68 421 CURVE SMOOTH",
"92 406 LINE SMOOTH",
"96 403 OFFCURVE",
"98 405 OFFCURVE",
"102 410 CURVE SMOOTH",
"147 470 OFFCURVE",
"201 502 OFFCURVE",
"270 502 CURVE SMOOTH",
"360 502 OFFCURVE",
"419 448 OFFCURVE",
"419 363 CURVE SMOOTH",
"419 332 LINE SMOOTH",
"419 323 OFFCURVE",
"413 318 OFFCURVE",
"402 317 CURVE SMOOTH",
"297 308 LINE SMOOTH",
"133 294 OFFCURVE",
"50 236 OFFCURVE",
"50 135 CURVE SMOOTH",
"50 45 OFFCURVE",
"115 -10 OFFCURVE",
"220 -10 CURVE SMOOTH",
"294 -10 OFFCURVE",
"355 17 OFFCURVE",
"410 72 CURVE SMOOTH"
);
},
{
closed = 1;
nodes = (
"419 171 LINE SMOOTH",
"419 141 OFFCURVE",
"399 107 OFFCURVE",
"362 77 CURVE SMOOTH",
"324 47 OFFCURVE",
"275 28 OFFCURVE",
"226 28 CURVE SMOOTH",
"145 28 OFFCURVE",
"92 69 OFFCURVE",
"92 138 CURVE SMOOTH",
"92 215 OFFCURVE",
"159 261 OFFCURVE",
"316 273 CURVE SMOOTH",
"405 280 LINE SMOOTH",
"414 281 OFFCURVE",
"419 277 OFFCURVE",
"419 266 CURVE SMOOTH"
);
}
);
};
hints = (
{
horizontal = 1;
place = "{4145, 208}";
}
);
layerId = "91AB5BCA-6A50-42DA-B2F7-8181BF189245";
paths = (
{
closed = 1;
nodes = (
"298 -10 OFFCURVE",
"362 20 OFFCURVE",
"420 82 CURVE",
"422 0 LINE",
"459 0 LINE",
"459 367 LINE SMOOTH",
"459 475 OFFCURVE",
"385 540 OFFCURVE",
"272 540 CURVE SMOOTH",
"175 540 OFFCURVE",
"106 490 OFFCURVE",
"63 424 CURVE",
"97 403 LINE",
"143 468 OFFCURVE",
"199 502 OFFCURVE",
"270 502 CURVE SMOOTH",
"360 502 OFFCURVE",
"419 448 OFFCURVE",
"419 363 CURVE SMOOTH",
"419 318 LINE",
"297 308 LINE SMOOTH",
"133 294 OFFCURVE",
"50 236 OFFCURVE",
"50 135 CURVE SMOOTH",
"50 45 OFFCURVE",
"115 -10 OFFCURVE",
"220 -10 CURVE SMOOTH"
);
},
{
closed = 1;
nodes = (
"145 28 OFFCURVE",
"92 69 OFFCURVE",
"92 138 CURVE SMOOTH",
"92 215 OFFCURVE",
"159 261 OFFCURVE",
"316 273 CURVE SMOOTH",
"419 281 LINE",
"419 171 LINE SMOOTH",
"419 99 OFFCURVE",
"314 28 OFFCURVE",
"226 28 CURVE SMOOTH"
);
}
);
width = 549;
}
);
leftKerningGroup = a;
rightMetricsKey = n;
unicode = 0061;
},
{
glyphname = ae;
lastChange = "2017-01-26 17:39:29 +0000";
layers = (
{
anchors = (
{
name = top;
position = "{468, 530}";
}
);
background = {
anchors = (
{
name = top;
position = "{468, 530}";
}
);
paths = (
{
closed = 1;
nodes = (
"890 229 LINE SMOOTH",
"907 230 OFFCURVE",
"908 237 OFFCURVE",
"908 254 CURVE SMOOTH",
"908 435 OFFCURVE",
"793 540 OFFCURVE",
"636 540 CURVE SMOOTH",
"584 540 OFFCURVE",
"534 526 OFFCURVE",
"491 500 CURVE",
"453 525 OFFCURVE",
"394 539 OFFCURVE",
"305 540 CURVE SMOOTH",
"152 540 OFFCURVE",
"95 499 OFFCURVE",
"57 421 CURVE SMOOTH",
"52 410 OFFCURVE",
"55 391 OFFCURVE",
"64 389 CURVE SMOOTH",
"195 363 LINE SMOOTH",
"213 360 OFFCURVE",
"217 361 OFFCURVE",
"222 374 CURVE",
"239 411 OFFCURVE",
"272 421 OFFCURVE",
"300 421 CURVE SMOOTH",
"340 421 OFFCURVE",
"359 400 OFFCURVE",
"359 363 CURVE SMOOTH",
"359 346 LINE SMOOTH",
"359 334 OFFCURVE",
"349 332 OFFCURVE",
"341 332 CURVE",
"318 331 LINE SMOOTH",
"126 322 OFFCURVE",
"30 250 OFFCURVE",
"30 143 CURVE SMOOTH",
"30 52 OFFCURVE",
"90 -10 OFFCURVE",
"203 -10 CURVE SMOOTH",
"295 -10 OFFCURVE",
"360 12 OFFCURVE",
"421 71 CURVE SMOOTH",
"425 75 OFFCURVE",
"428 75 OFFCURVE",
"432 71 CURVE SMOOTH",
"482 20 OFFCURVE",
"556 -10 OFFCURVE",
"640 -10 CURVE SMOOTH",
"752 -10 OFFCURVE",
"820 17 OFFCURVE",
"892 118 CURVE",
"901 129 OFFCURVE",
"898 138 OFFCURVE",
"888 142 CURVE SMOOTH",
"797 179 LINE SMOOTH",
"784 184 OFFCURVE",
"781 183 OFFCURVE",
"776 178 CURVE SMOOTH",
"732 135 OFFCURVE",
"701 122 OFFCURVE",
"667 122 CURVE SMOOTH",
"609 122 OFFCURVE",
"564 151 OFFCURVE",
"564 212 CURVE SMOOTH",
"564 224 OFFCURVE",
"569 229 OFFCURVE",
"579 229 CURVE SMOOTH"
);
},
{
closed = 1;
nodes = (
"695 423 OFFCURVE",
"714 372 OFFCURVE",
"714 346 CURVE SMOOTH",
"714 334 OFFCURVE",
"710 332 OFFCURVE",
"697 332 CURVE SMOOTH",
"567 333 LINE",
"566 395 OFFCURVE",
"604 423 OFFCURVE",
"645 423 CURVE SMOOTH"
);
},
{
closed = 1;
nodes = (
"359 160 LINE SMOOTH",
"359 127 OFFCURVE",
"322 108 OFFCURVE",
"284 108 CURVE SMOOTH",
"245 108 OFFCURVE",
"224 127 OFFCURVE",
"224 156 CURVE SMOOTH",
"224 205 OFFCURVE",
"289 230 OFFCURVE",
"327 233 CURVE SMOOTH",
"341 234 LINE SMOOTH",
"353 234 OFFCURVE",
"359 228 OFFCURVE",
"359 216 CURVE SMOOTH"
);
}
);
};
layerId = "258ED206-D907-4350-8EBA-CBDDA1C16BF7";
paths = (
{
closed = 1;
nodes = (
"908 229 LINE",
"908 426 OFFCURVE",
"793 540 OFFCURVE",
"636 540 CURVE SMOOTH",
"584 540 OFFCURVE",
"534 526 OFFCURVE",
"491 500 CURVE",
"453 525 OFFCURVE",
"394 539 OFFCURVE",
"305 540 CURVE SMOOTH",
"144 540 OFFCURVE",
"83 489 OFFCURVE",
"43 393 CURVE",
"215 359 LINE",
"234 408 OFFCURVE",
"270 421 OFFCURVE",
"300 421 CURVE SMOOTH",
"340 421 OFFCURVE",
"359 400 OFFCURVE",
"359 363 CURVE SMOOTH",
"359 333 LINE",
"318 331 LINE SMOOTH",
"126 322 OFFCURVE",
"30 250 OFFCURVE",
"30 143 CURVE SMOOTH",
"30 52 OFFCURVE",
"90 -10 OFFCURVE",
"203 -10 CURVE SMOOTH",
"295 -10 OFFCURVE",
"360 12 OFFCURVE",
"421 71 CURVE SMOOTH",
"425 75 OFFCURVE",
"428 75 OFFCURVE",
"432 71 CURVE SMOOTH",
"482 20 OFFCURVE",
"556 -10 OFFCURVE",
"640 -10 CURVE SMOOTH",
"757 -10 OFFCURVE",
"829 21 OFFCURVE",
"904 135 CURVE",
"783 185 LINE",
"736 137 OFFCURVE",
"703 122 OFFCURVE",
"667 122 CURVE SMOOTH",
"609 122 OFFCURVE",
"564 156 OFFCURVE",
"564 229 CURVE"
);
},
{
closed = 1;
nodes = (
"695 423 OFFCURVE",
"714 363 OFFCURVE",
"714 332 CURVE",
"567 333 LINE",
"566 395 OFFCURVE",
"604 423 OFFCURVE",
"645 423 CURVE SMOOTH"
);
},
{
closed = 1;
nodes = (
"359 160 LINE SMOOTH",
"359 127 OFFCURVE",
"322 108 OFFCURVE",
"284 108 CURVE SMOOTH",
"245 108 OFFCURVE",
"224 127 OFFCURVE",
"224 156 CURVE SMOOTH",
"224 205 OFFCURVE",
"289 230 OFFCURVE",
"327 233 CURVE SMOOTH",
"359 235 LINE"
);
}
);
width = 923;
},
{
anchors = (
{
name = top;
position = "{460, 530}";
}
);
background = {
anchors = (
{
name = top;
position = "{460, 530}";
}
);
paths = (
{
closed = 1;
nodes = (
"870 254 LINE SMOOTH",
"884 254 OFFCURVE",
"888 261 OFFCURVE",
"888 274 CURVE SMOOTH",
"888 444 OFFCURVE",
"796 540 OFFCURVE",
"659 540 CURVE SMOOTH",
"565 540 OFFCURVE",
"493 500 OFFCURVE",
"453 421 CURVE",
"433 501 OFFCURVE",
"377 540 OFFCURVE",
"278 540 CURVE SMOOTH",
"193 540 OFFCURVE",
"116 500 OFFCURVE",
"73 431 CURVE SMOOTH",
"70 426 OFFCURVE",
"70 423 OFFCURVE",
"73 421 CURVE SMOOTH",
"95 406 LINE SMOOTH",
"99 403 OFFCURVE",
"101 404 OFFCURVE",
"106 410 CURVE SMOOTH",
"152 470 OFFCURVE",
"206 502 OFFCURVE",
"270 502 CURVE SMOOTH",
"370 502 OFFCURVE",
"424 448 OFFCURVE",
"424 363 CURVE SMOOTH",
"424 332 LINE SMOOTH",
"424 323 OFFCURVE",
"418 318 OFFCURVE",
"406 317 CURVE SMOOTH",
"294 308 LINE SMOOTH",
"131 294 OFFCURVE",
"55 234 OFFCURVE",
"55 136 CURVE SMOOTH",
"55 45 OFFCURVE",
"117 -10 OFFCURVE",
"221 -10 CURVE SMOOTH",
"352 -10 OFFCURVE",
"410 62 OFFCURVE",
"446 108 CURVE SMOOTH",
"448 111 OFFCURVE",
"449 111 OFFCURVE",
"451 108 CURVE SMOOTH",
"480 65 OFFCURVE",
"534 -10 OFFCURVE",
"656 -10 CURVE SMOOTH",
"753 -10 OFFCURVE",
"834 37 OFFCURVE",
"868 100 CURVE SMOOTH",
"871 106 OFFCURVE",
"870 108 OFFCURVE",
"867 110 CURVE SMOOTH",
"845 125 LINE SMOOTH",
"840 128 OFFCURVE",
"839 127 OFFCURVE",
"834 121 CURVE SMOOTH",
"805 81 OFFCURVE",
"762 28 OFFCURVE",
"658 28 CURVE SMOOTH",
"546 28 OFFCURVE",
"458 134 OFFCURVE",
"458 228 CURVE SMOOTH",
"458 249 OFFCURVE",
"461 253 OFFCURVE",
"478 253 CURVE SMOOTH"
);
},
{
closed = 1;
nodes = (
"766 502 OFFCURVE",
"845 414 OFFCURVE",
"845 306 CURVE SMOOTH",
"845 294 OFFCURVE",
"844 290 OFFCURVE",
"828 290 CURVE SMOOTH",
"460 291 LINE",
"461 418 OFFCURVE",
"546 502 OFFCURVE",
"656 502 CURVE SMOOTH"
);
},
{
closed = 1;
nodes = (
"424 177 LINE",
"424 99 OFFCURVE",
"338 34 OFFCURVE",
"231 29 CURVE SMOOTH",
"147 25 OFFCURVE",
"98 71 OFFCURVE",
"98 138 CURVE SMOOTH",
"98 215 OFFCURVE",
"164 260 OFFCURVE",
"314 272 CURVE SMOOTH",
"409 279 LINE SMOOTH",
"422 280 OFFCURVE",
"424 275 OFFCURVE",
"424 265 CURVE SMOOTH"
);
}
);
};
hints = (
{
horizontal = 1;
place = "{4145, 208}";
}
);
layerId = "91AB5BCA-6A50-42DA-B2F7-8181BF189245";
paths = (
{
closed = 1;
nodes = (
"888 254 LINE",
"888 437 OFFCURVE",
"796 540 OFFCURVE",
"659 540 CURVE SMOOTH",
"565 540 OFFCURVE",
"493 500 OFFCURVE",
"453 421 CURVE",
"433 501 OFFCURVE",
"377 540 OFFCURVE",
"278 540 CURVE SMOOTH",
"191 540 OFFCURVE",
"113 497 OFFCURVE",
"69 424 CURVE",
"100 402 LINE",
"148 467 OFFCURVE",
"204 502 OFFCURVE",
"270 502 CURVE SMOOTH",
"370 502 OFFCURVE",
"424 448 OFFCURVE",
"424 363 CURVE SMOOTH",
"424 318 LINE",
"294 308 LINE SMOOTH",
"131 294 OFFCURVE",
"55 234 OFFCURVE",
"55 136 CURVE SMOOTH",
"55 45 OFFCURVE",
"117 -10 OFFCURVE",
"221 -10 CURVE SMOOTH",
"352 -10 OFFCURVE",
"410 62 OFFCURVE",
"446 108 CURVE SMOOTH",
"448 111 OFFCURVE",
"449 111 OFFCURVE",
"451 108 CURVE SMOOTH",
"480 65 OFFCURVE",
"534 -10 OFFCURVE",
"656 -10 CURVE SMOOTH",
"755 -10 OFFCURVE",
"837 40 OFFCURVE",
"872 107 CURVE",
"840 129 LINE",
"810 85 OFFCURVE",
"765 28 OFFCURVE",
"658 28 CURVE SMOOTH",
"546 28 OFFCURVE",
"458 147 OFFCURVE",
"458 253 CURVE"
);
},
{
closed = 1;
nodes = (
"766 502 OFFCURVE",
"845 407 OFFCURVE",
"845 290 CURVE",
"460 291 LINE",
"461 418 OFFCURVE",
"546 502 OFFCURVE",
"656 502 CURVE SMOOTH"
);
},
{
closed = 1;
nodes = (
"424 177 LINE",
"424 99 OFFCURVE",
"338 34 OFFCURVE",
"231 29 CURVE SMOOTH",
"147 25 OFFCURVE",
"98 71 OFFCURVE",
"98 138 CURVE SMOOTH",
"98 215 OFFCURVE",
"164 260 OFFCURVE",
"314 272 CURVE SMOOTH",
"424 280 LINE"
);
}
);
width = 943;
}
);
leftMetricsKey = a;
rightMetricsKey = e;
unicode = 00E6;
},
{
glyphname = b;
lastChange = "2017-03-01 19:02:30 +0000";
layers = (
{
background = {
paths = (
{
closed = 1;
nodes = (
"167 0 OFFCURVE",
"175 7 OFFCURVE",
"180 23 CURVE SMOOTH",
"196 70 LINE SMOOTH",
"199 78 OFFCURVE",
"203 79 OFFCURVE",
"209 73 CURVE SMOOTH",
"248 22 OFFCURVE",
"302 -10 OFFCURVE",
"365 -10 CURVE SMOOTH",
"511 -10 OFFCURVE",
"592 99 OFFCURVE",
"592 269 CURVE SMOOTH",
"592 436 OFFCURVE",
"516 540 OFFCURVE",
"386 540 CURVE SMOOTH",
"341 540 OFFCURVE",
"300 527 OFFCURVE",
"259 488 CURVE SMOOTH",
"249 480 OFFCURVE",
"240 480 OFFCURVE",
"240 496 CURVE SMOOTH",
"240 721 LINE SMOOTH",
"240 734 OFFCURVE",
"234 742 OFFCURVE",
"222 742 CURVE SMOOTH",
"59 742 LINE SMOOTH",
"48 742 OFFCURVE",
"40 734 OFFCURVE",
"40 719 CURVE SMOOTH",
"40 25 LINE SMOOTH",
"40 8 OFFCURVE",
"46 0 OFFCURVE",
"67 0 CURVE SMOOTH",
"154 0 LINE SMOOTH"
);
},
{
closed = 1;
nodes = (
"260 403 OFFCURVE",
"283 418 OFFCURVE",
"314 418 CURVE SMOOTH",
"363 418 OFFCURVE",
"390 381 OFFCURVE",
"390 265 CURVE SMOOTH",
"390 148 OFFCURVE",
"363 107 OFFCURVE",
"311 107 CURVE SMOOTH",
"269 107 OFFCURVE",
"240 135 OFFCURVE",
"240 185 CURVE SMOOTH",
"240 378 LINE"
);
}
);
};
layerId = "258ED206-D907-4350-8EBA-CBDDA1C16BF7";
paths = (
{
closed = 1;
nodes = (
"511 -10 OFFCURVE",
"592 99 OFFCURVE",
"592 269 CURVE SMOOTH",
"592 436 OFFCURVE",
"516 540 OFFCURVE",
"386 540 CURVE SMOOTH",
"334 540 OFFCURVE",
"287 522 OFFCURVE",
"240 470 CURVE",
"240 782 LINE",
"40 782 LINE",
"40 0 LINE",
"181 0 LINE",
"201 84 LINE",
"242 26 OFFCURVE",
"299 -10 OFFCURVE",
"365 -10 CURVE SMOOTH"
);
},
{
closed = 1;
nodes = (
"267 119 OFFCURVE",
"240 156 OFFCURVE",
"240 245 CURVE",
"240 291 LINE",
"240 383 OFFCURVE",
"269 410 OFFCURVE",
"314 410 CURVE SMOOTH",
"355 410 OFFCURVE",
"390 387 OFFCURVE",
"390 271 CURVE SMOOTH",
"390 154 OFFCURVE",
"358 119 OFFCURVE",
"311 119 CURVE"
);
}
);
width = 607;
},
{
background = {
paths = (
{
closed = 1;
nodes = (
"124 0 OFFCURVE",
"127 3 OFFCURVE",
"127 13 CURVE SMOOTH",
"129 64 LINE SMOOTH",
"129 73 OFFCURVE",
"134 74 OFFCURVE",
"139 67 CURVE SMOOTH",
"151 50 OFFCURVE",
"201 -10 OFFCURVE",
"304 -10 CURVE SMOOTH",
"448 -10 OFFCURVE",
"532 96 OFFCURVE",
"532 267 CURVE SMOOTH",
"532 416 OFFCURVE",
"468 540 OFFCURVE",
"315 540 CURVE SMOOTH",
"209 540 OFFCURVE",
"153 482 OFFCURVE",
"143 473 CURVE SMOOTH",
"134 465 OFFCURVE",
"130 465 OFFCURVE",
"130 478 CURVE SMOOTH",
"130 731 LINE SMOOTH",
"130 739 OFFCURVE",
"128 742 OFFCURVE",
"122 742 CURVE SMOOTH",
"99 742 LINE SMOOTH",
"93 742 OFFCURVE",
"90 739 OFFCURVE",
"90 732 CURVE SMOOTH",
"90 13 LINE SMOOTH",
"90 3 OFFCURVE",
"93 0 OFFCURVE",
"101 0 CURVE SMOOTH",
"112 0 LINE SMOOTH"
);
},
{
closed = 1;
nodes = (
"170 463 OFFCURVE",
"234 502 OFFCURVE",
"308 502 CURVE SMOOTH",
"426 502 OFFCURVE",
"489 409 OFFCURVE",
"489 267 CURVE SMOOTH",
"489 103 OFFCURVE",
"404 28 OFFCURVE",
"300 28 CURVE SMOOTH",
"216 28 OFFCURVE",
"130 96 OFFCURVE",
"130 177 CURVE SMOOTH",
"130 415 LINE"
);
}
);
};
layerId = "91AB5BCA-6A50-42DA-B2F7-8181BF189245";
paths = (
{
closed = 1;
nodes = (
"448 -10 OFFCURVE",
"532 96 OFFCURVE",
"532 267 CURVE SMOOTH",
"532 416 OFFCURVE",
"468 540 OFFCURVE",
"315 540 CURVE SMOOTH",
"201 540 OFFCURVE",
"141 472 OFFCURVE",
"130 461 CURVE",
"130 782 LINE",
"90 782 LINE",
"90 0 LINE",
"126 0 LINE",
"130 80 LINE",
"142 60 OFFCURVE",
"195 -10 OFFCURVE",
"304 -10 CURVE SMOOTH"
);
},
{
closed = 1;
nodes = (
"216 28 OFFCURVE",
"130 96 OFFCURVE",
"130 177 CURVE SMOOTH",
"130 415 LINE",
"170 463 OFFCURVE",
"234 502 OFFCURVE",
"308 502 CURVE SMOOTH",
"426 502 OFFCURVE",
"489 409 OFFCURVE",
"489 267 CURVE SMOOTH",
"489 103 OFFCURVE",
"404 28 OFFCURVE",
"300 28 CURVE SMOOTH"
);
}
);
width = 587;
}
);
leftMetricsKey = n;
rightMetricsKey = e;
unicode = 0062;
},
{
glyphname = c;
lastChange = "2017-03-01 19:05:06 +0000";
layers = (
{
anchors = (
{
name = bottom;
position = "{291, 0}";
},
{
name = top;
position = "{292, 530}";
}
);
background = {
anchors = (
{
name = bottom;
position = "{291, 0}";
},
{
name = top;
position = "{292, 530}";
}
);
paths = (
{
closed = 1;
nodes = (
"134 540 OFFCURVE",
"15 428 OFFCURVE",
"15 263 CURVE SMOOTH",
"15 101 OFFCURVE",
"132 -10 OFFCURVE",
"292 -10 CURVE SMOOTH",
"454 -10 OFFCURVE",
"520 105 OFFCURVE",
"530 157 CURVE SMOOTH",
"534 172 OFFCURVE",
"532 178 OFFCURVE",
"521 180 CURVE SMOOTH",
"427 198 LINE SMOOTH",
"414 200 OFFCURVE",
"410 198 OFFCURVE",
"407 193 CURVE SMOOTH",
"382 148 OFFCURVE",
"363 114 OFFCURVE",
"308 114 CURVE SMOOTH",
"251 114 OFFCURVE",
"217 154 OFFCURVE",
"217 265 CURVE SMOOTH",
"217 372 OFFCURVE",
"248 414 OFFCURVE",
"297 414 CURVE SMOOTH",
"345 414 OFFCURVE",
"354 376 OFFCURVE",
"358 351 CURVE SMOOTH",
"360 340 OFFCURVE",
"364 336 OFFCURVE",
"375 337 CURVE SMOOTH",
"512 344 LINE SMOOTH",
"529 345 OFFCURVE",
"535 353 OFFCURVE",
"530 370 CURVE SMOOTH",
"514 447 OFFCURVE",
"435 540 OFFCURVE",
"292 540 CURVE SMOOTH"
);
}
);
};
guideLines = (
{
angle = -0.5577;
position = "{-598, 185}";
},
{
position = "{571, 136}";
},
{
angle = 3.769;
position = "{449, 340}";
}
);
layerId = "258ED206-D907-4350-8EBA-CBDDA1C16BF7";
paths = (
{
closed = 1;
nodes = (
"138 540 OFFCURVE",
"15 427 OFFCURVE",
"15 263 CURVE SMOOTH",
"15 100 OFFCURVE",
"140 -10 OFFCURVE",
"292 -10 CURVE SMOOTH",
"437 -10 OFFCURVE",
"527 91 OFFCURVE",
"532 184 CURVE",
"365 205 LINE",
"360 174 OFFCURVE",
"347 117 OFFCURVE",
"297 117 CURVE SMOOTH",
"236 117 OFFCURVE",
"208 177 OFFCURVE",
"208 265 CURVE SMOOTH",
"208 355 OFFCURVE",
"238 413 OFFCURVE",
"297 413 CURVE SMOOTH",
"349 413 OFFCURVE",
"356 348 OFFCURVE",
"360 314 CURVE",
"535 335 LINE",
"532 434 OFFCURVE",
"442 540 OFFCURVE",
"292 540 CURVE SMOOTH"
);
}
);
width = 545;
},
{
anchors = (
{
name = bottom;
position = "{296, 0}";
},
{
name = top;
position = "{294, 530}";
}
);
background = {
anchors = (
{
name = bottom;
position = "{296, 0}";
},
{
name = top;
position = "{294, 530}";
}
);
paths = (
{
closed = 1;
nodes = (
"154 540 OFFCURVE",
"55 425 OFFCURVE",
"55 263 CURVE SMOOTH",
"55 100 OFFCURVE",
"152 -10 OFFCURVE",
"295 -10 CURVE SMOOTH",
"380 -10 OFFCURVE",
"452 29 OFFCURVE",
"500 107 CURVE SMOOTH",
"502 111 OFFCURVE",
"501 115 OFFCURVE",
"498 117 CURVE SMOOTH",
"475 132 LINE SMOOTH",
"471 135 OFFCURVE",
"469 134 OFFCURVE",
"465 128 CURVE SMOOTH",
"421 60 OFFCURVE",
"367 28 OFFCURVE",
"299 28 CURVE SMOOTH",
"177 28 OFFCURVE",
"97 123 OFFCURVE",
"97 265 CURVE SMOOTH",
"97 407 OFFCURVE",
"177 502 OFFCURVE",
"300 502 CURVE SMOOTH",
"356 502 OFFCURVE",
"401 478 OFFCURVE",
"456 411 CURVE SMOOTH",
"460 406 OFFCURVE",
"464 405 OFFCURVE",
"467 407 CURVE SMOOTH",
"491 423 LINE SMOOTH",
"494 425 OFFCURVE",
"495 427 OFFCURVE",
"491 433 CURVE SMOOTH",
"445 499 OFFCURVE",
"384 540 OFFCURVE",
"295 540 CURVE SMOOTH"
);
}
);
};
layerId = "91AB5BCA-6A50-42DA-B2F7-8181BF189245";
paths = (
{
closed = 1;
nodes = (
"152 540 OFFCURVE",
"55 426 OFFCURVE",
"55 263 CURVE SMOOTH",
"55 101 OFFCURVE",
"152 -10 OFFCURVE",
"295 -10 CURVE SMOOTH",
"382 -10 OFFCURVE",
"455 31 OFFCURVE",
"504 113 CURVE",
"470 135 LINE",
"425 62 OFFCURVE",
"371 28 OFFCURVE",
"299 28 CURVE SMOOTH",
"179 28 OFFCURVE",
"97 122 OFFCURVE",
"97 265 CURVE SMOOTH",
"97 406 OFFCURVE",
"181 502 OFFCURVE",
"300 502 CURVE SMOOTH",
"362 502 OFFCURVE",
"405 476 OFFCURVE",
"462 404 CURVE",
"496 426 LINE",
"449 496 OFFCURVE",
"384 540 OFFCURVE",
"295 540 CURVE SMOOTH"
);
}
);
width = 559;
}
);
leftKerningGroup = o;
leftMetricsKey = e;
unicode = 0063;
},
{
glyphname = d;
lastChange = "2017-02-24 22:50:46 +0000";
layers = (
{
anchors = (
{
name = bottom;
position = "{295, 0}";
},
{
name = center;
position = "{295, 265}";
},
{
name = topright;
position = "{581, 530}";
}
);
background = {
anchors = (
{
name = bottom;
position = "{295, 0}";
},
{
name = center;
position = "{295, 265}";
},
{
name = topright;
position = "{581, 530}";
}
);
paths = (
{
closed = 1;
nodes = (
"536 0 LINE SMOOTH",
"557 0 OFFCURVE",
"563 8 OFFCURVE",
"563 25 CURVE SMOOTH",
"563 719 LINE SMOOTH",
"563 734 OFFCURVE",
"555 742 OFFCURVE",
"544 742 CURVE SMOOTH",
"382 742 LINE SMOOTH",
"370 742 OFFCURVE",
"364 734 OFFCURVE",
"364 721 CURVE SMOOTH",
"364 496 LINE SMOOTH",
"364 480 OFFCURVE",
"355 480 OFFCURVE",
"345 488 CURVE SMOOTH",
"304 528 OFFCURVE",
"266 540 OFFCURVE",
"221 540 CURVE SMOOTH",
"111 540 OFFCURVE",
"11 431 OFFCURVE",
"11 263 CURVE SMOOTH",
"11 82 OFFCURVE",
"93 -10 OFFCURVE",
"211 -10 CURVE SMOOTH",
"273 -10 OFFCURVE",
"312 10 OFFCURVE",
"351 46 CURVE SMOOTH",
"358 52 OFFCURVE",
"366 51 OFFCURVE",
"366 42 CURVE SMOOTH",
"366 23 LINE SMOOTH",
"366 6 OFFCURVE",
"378 0 OFFCURVE",
"391 0 CURVE SMOOTH"
);
},
{
closed = 1;
nodes = (
"363 176 LINE SMOOTH",
"363 137 OFFCURVE",
"332 110 OFFCURVE",
"293 110 CURVE SMOOTH",
"242 110 OFFCURVE",
"213 149 OFFCURVE",
"213 264 CURVE SMOOTH",
"213 380 OFFCURVE",
"246 416 OFFCURVE",
"293 416 CURVE SMOOTH",
"324 416 OFFCURVE",
"342 403 OFFCURVE",
"363 378 CURVE"
);
}
);
};
layerId = "258ED206-D907-4350-8EBA-CBDDA1C16BF7";
paths = (
{
closed = 1;
nodes = (
"308 -10 OFFCURVE",
"365 26 OFFCURVE",
"406 84 CURVE",
"426 0 LINE",
"567 0 LINE",
"567 742 LINE",
"367 742 LINE",
"367 470 LINE",
"320 522 OFFCURVE",
"273 540 OFFCURVE",
"221 540 CURVE SMOOTH",
"91 540 OFFCURVE",
"15 436 OFFCURVE",
"15 269 CURVE SMOOTH",
"15 99 OFFCURVE",
"96 -10 OFFCURVE",
"242 -10 CURVE SMOOTH"
);
},
{
closed = 1;
nodes = (
"249 119 OFFCURVE",
"217 154 OFFCURVE",
"217 271 CURVE SMOOTH",
"217 387 OFFCURVE",
"252 410 OFFCURVE",
"293 410 CURVE SMOOTH",
"338 410 OFFCURVE",
"367 383 OFFCURVE",
"367 291 CURVE",
"367 245 LINE",
"367 156 OFFCURVE",
"340 119 OFFCURVE",
"296 119 CURVE"
);
}
);
width = 607;
},
{
anchors = (
{
name = bottom;
position = "{300, 0}";
},
{
name = center;
position = "{312, 265}";
},
{
name = topright;
position = "{625, 742}";
}
);
background = {
anchors = (
{
name = bottom;
position = "{300, 0}";
},
{
name = center;
position = "{312, 265}";
},
{
name = topright;
position = "{625, 742}";
}
);
paths = (
{
closed = 1;
nodes = (
"487 0 LINE SMOOTH",
"496 0 OFFCURVE",
"499 3 OFFCURVE",
"499 12 CURVE SMOOTH",
"499 733 LINE SMOOTH",
"499 739 OFFCURVE",
"496 742 OFFCURVE",
"491 742 CURVE SMOOTH",
"468 742 LINE SMOOTH",
"461 742 OFFCURVE",
"459 739 OFFCURVE",
"459 732 CURVE SMOOTH",
"459 493 LINE SMOOTH",
"459 480 OFFCURVE",
"457 476 OFFCURVE",
"445 486 CURVE SMOOTH",
"414 510 OFFCURVE",
"371 540 OFFCURVE",
"298 540 CURVE SMOOTH",
"151 540 OFFCURVE",
"55 425 OFFCURVE",
"55 255 CURVE SMOOTH",
"55 78 OFFCURVE",
"158 -10 OFFCURVE",
"286 -10 CURVE SMOOTH",
"382 -10 OFFCURVE",
"433 49 OFFCURVE",
"449 66 CURVE SMOOTH",
"457 74 OFFCURVE",
"461 73 OFFCURVE",
"461 62 CURVE SMOOTH",
"461 11 LINE SMOOTH",
"461 4 OFFCURVE",
"464 0 OFFCURVE",
"471 0 CURVE SMOOTH"
);
},
{
closed = 1;
nodes = (
"459 170 LINE SMOOTH",
"459 110 OFFCURVE",
"387 28 OFFCURVE",
"291 28 CURVE SMOOTH",
"189 28 OFFCURVE",
"97 100 OFFCURVE",
"97 259 CURVE SMOOTH",
"97 411 OFFCURVE",
"182 502 OFFCURVE",
"299 502 CURVE SMOOTH",
"360 502 OFFCURVE",
"410 474 OFFCURVE",
"459 426 CURVE"
);
}
);
};
layerId = "91AB5BCA-6A50-42DA-B2F7-8181BF189245";
paths = (
{
closed = 1;
nodes = (
"389 -10 OFFCURVE",
"444 59 OFFCURVE",
"461 79 CURVE",
"461 0 LINE",
"499 0 LINE",
"499 742 LINE",
"459 742 LINE",
"459 475 LINE",
"407 517 OFFCURVE",
"362 540 OFFCURVE",
"298 540 CURVE SMOOTH",
"151 540 OFFCURVE",
"55 425 OFFCURVE",
"55 255 CURVE SMOOTH",
"55 78 OFFCURVE",
"158 -10 OFFCURVE",
"286 -10 CURVE SMOOTH"
);
},
{
closed = 1;
nodes = (
"189 28 OFFCURVE",
"97 100 OFFCURVE",
"97 259 CURVE SMOOTH",
"97 411 OFFCURVE",
"182 502 OFFCURVE",
"299 502 CURVE SMOOTH",
"360 502 OFFCURVE",
"410 474 OFFCURVE",
"459 426 CURVE",
"459 170 LINE",
"459 110 OFFCURVE",
"387 28 OFFCURVE",
"291 28 CURVE SMOOTH"
);
}
);
width = 589;
}
);
leftKerningGroup = o;
leftMetricsKey = e;
rightMetricsKey = n;
unicode = 0064;
},
{
glyphname = eth;
lastChange = "2017-01-26 17:39:20 +0000";
layers = (
{
background = {
paths = (
{
closed = 1;
nodes = (
"573 440 OFFCURVE",
"498 582 OFFCURVE",
"374 669 CURVE",
"420 695 LINE SMOOTH",
"426 699 OFFCURVE",
"427 704 OFFCURVE",
"424 709 CURVE SMOOTH",
"403 747 LINE SMOOTH",
"399 752 OFFCURVE",
"392 754 OFFCURVE",
"385 749 CURVE SMOOTH",
"310 707 LINE",
"273 726 OFFCURVE",
"232 740 OFFCURVE",
"189 750 CURVE SMOOTH",
"177 753 OFFCURVE",
"175 752 OFFCURVE",
"168 746 CURVE SMOOTH",
"84 677 LINE SMOOTH",
"77 671 OFFCURVE",
"80 665 OFFCURVE",
"86 663 CURVE SMOOTH",
"116 653 OFFCURVE",
"143 641 OFFCURVE",
"168 628 CURVE",
"97 589 LINE SMOOTH",
"90 586 OFFCURVE",
"87 578 OFFCURVE",
"95 567 CURVE SMOOTH",
"110 543 LINE SMOOTH",
"117 532 OFFCURVE",
"123 530 OFFCURVE",
"134 536 CURVE SMOOTH",
"230 590 LINE",
"258 569 OFFCURVE",
"277 551 OFFCURVE",
"296 525 CURVE SMOOTH",
"298 522 OFFCURVE",
"298 520 OFFCURVE",
"294 520 CURVE SMOOTH",
"136 520 OFFCURVE",
"15 409 OFFCURVE",
"15 252 CURVE SMOOTH",
"15 103 OFFCURVE",
"129 -10 OFFCURVE",
"293 -10 CURVE SMOOTH",
"460 -10 OFFCURVE",
"573 102 OFFCURVE",
"573 282 CURVE SMOOTH"
);
},
{
closed = 1;
nodes = (
"241 118 OFFCURVE",
"217 162 OFFCURVE",
"217 256 CURVE SMOOTH",
"217 351 OFFCURVE",
"241 396 OFFCURVE",
"294 396 CURVE SMOOTH",
"348 396 OFFCURVE",
"371 351 OFFCURVE",
"371 256 CURVE SMOOTH",
"371 163 OFFCURVE",
"348 118 OFFCURVE",
"294 118 CURVE SMOOTH"
);
}
);
};
layerId = "258ED206-D907-4350-8EBA-CBDDA1C16BF7";
paths = (
{
closed = 1;
nodes = (
"573 440 OFFCURVE",
"498 582 OFFCURVE",
"374 669 CURVE",
"429 700 LINE",
"398 756 LINE",
"310 707 LINE",
"269 727 OFFCURVE",
"224 742 OFFCURVE",
"176 753 CURVE",
"73 668 LINE",
"107 656 OFFCURVE",
"139 643 OFFCURVE",
"168 628 CURVE",
"85 583 LINE",
"119 528 LINE",
"230 590 LINE",
"258 569 OFFCURVE",
"277 551 OFFCURVE",
"296 525 CURVE SMOOTH",
"298 522 OFFCURVE",
"298 520 OFFCURVE",
"294 520 CURVE SMOOTH",
"136 520 OFFCURVE",
"15 409 OFFCURVE",
"15 252 CURVE SMOOTH",
"15 103 OFFCURVE",
"129 -10 OFFCURVE",
"293 -10 CURVE SMOOTH",
"460 -10 OFFCURVE",
"573 102 OFFCURVE",
"573 282 CURVE SMOOTH"
);
},
{
closed = 1;
nodes = (
"241 118 OFFCURVE",
"217 162 OFFCURVE",
"217 256 CURVE SMOOTH",
"217 351 OFFCURVE",
"241 396 OFFCURVE",
"294 396 CURVE SMOOTH",
"348 396 OFFCURVE",
"371 351 OFFCURVE",
"371 256 CURVE SMOOTH",
"371 163 OFFCURVE",
"348 118 OFFCURVE",
"294 118 CURVE SMOOTH"
);
}
);
width = 588;
},
{
background = {
paths = (
{
closed = 1;
nodes = (
"541 422 OFFCURVE",
"486 563 OFFCURVE",
"330 669 CURVE",
"420 719 LINE SMOOTH",
"423 721 OFFCURVE",
"423 724 OFFCURVE",
"421 727 CURVE SMOOTH",
"409 749 LINE SMOOTH",
"408 751 OFFCURVE",
"403 752 OFFCURVE",
"400 750 CURVE SMOOTH",
"296 692 LINE",
"261 713 OFFCURVE",
"224 731 OFFCURVE",
"180 749 CURVE SMOOTH",
"171 753 OFFCURVE",
"168 751 OFFCURVE",
"162 747 CURVE SMOOTH",
"144 735 LINE SMOOTH",
"139 731 OFFCURVE",
"140 726 OFFCURVE",
"145 724 CURVE SMOOTH",
"187 707 OFFCURVE",
"224 689 OFFCURVE",
"258 670 CURVE",
"103 583 LINE SMOOTH",
"100 581 OFFCURVE",
"98 578 OFFCURVE",
"102 572 CURVE SMOOTH",
"111 558 LINE SMOOTH",
"115 552 OFFCURVE",
"118 550 OFFCURVE",
"124 553 CURVE SMOOTH",
"292 648 LINE",
"378 590 OFFCURVE",
"431 523 OFFCURVE",
"462 451 CURVE",
"419 494 OFFCURVE",
"360 520 OFFCURVE",
"289 520 CURVE SMOOTH",
"153 520 OFFCURVE",
"55 408 OFFCURVE",
"55 252 CURVE SMOOTH",
"55 98 OFFCURVE",
"152 -10 OFFCURVE",
"296 -10 CURVE SMOOTH",
"450 -10 OFFCURVE",
"541 101 OFFCURVE",
"541 255 CURVE SMOOTH"
);
},
{
closed = 1;
nodes = (
"184 28 OFFCURVE",
"97 128 OFFCURVE",
"97 254 CURVE SMOOTH",
"97 380 OFFCURVE",
"184 482 OFFCURVE",
"299 482 CURVE SMOOTH",
"413 482 OFFCURVE",
"499 381 OFFCURVE",
"499 254 CURVE SMOOTH",
"499 127 OFFCURVE",
"415 28 OFFCURVE",
"300 28 CURVE SMOOTH"
);
}
);
};
layerId = "91AB5BCA-6A50-42DA-B2F7-8181BF189245";
paths = (
{
closed = 1;
nodes = (
"541 422 OFFCURVE",
"486 563 OFFCURVE",
"330 669 CURVE",
"424 721 LINE",
"407 754 LINE",
"296 692 LINE",
"258 714 OFFCURVE",
"218 734 OFFCURVE",
"171 753 CURVE",
"134 728 LINE",
"180 710 OFFCURVE",
"221 691 OFFCURVE",
"258 670 CURVE",
"97 580 LINE",
"117 549 LINE",
"292 648 LINE",
"378 590 OFFCURVE",
"431 523 OFFCURVE",
"462 451 CURVE",
"419 494 OFFCURVE",
"360 520 OFFCURVE",
"289 520 CURVE SMOOTH",
"153 520 OFFCURVE",
"55 408 OFFCURVE",
"55 252 CURVE SMOOTH",
"55 98 OFFCURVE",
"152 -10 OFFCURVE",
"296 -10 CURVE SMOOTH",
"450 -10 OFFCURVE",
"541 101 OFFCURVE",
"541 255 CURVE SMOOTH"
);
},
{
closed = 1;
nodes = (
"184 28 OFFCURVE",
"97 128 OFFCURVE",
"97 254 CURVE SMOOTH",
"97 380 OFFCURVE",
"184 482 OFFCURVE",
"299 482 CURVE SMOOTH",
"413 482 OFFCURVE",
"499 381 OFFCURVE",
"499 254 CURVE SMOOTH",
"499 127 OFFCURVE",
"415 28 OFFCURVE",
"300 28 CURVE SMOOTH"
);
}
);
width = 596;
}
);
leftMetricsKey = o;
rightMetricsKey = o;
unicode = 00F0;
},
{
glyphname = dcroat;
lastChange = "2017-01-26 17:38:57 +0000";
layers = (
{
background = {
components = (
{
name = d;
}
);
paths = (
{
closed = 1;
nodes = (
"613 680 OFFCURVE",
"607 687 OFFCURVE",
"597 687 CURVE SMOOTH",
"258 687 LINE SMOOTH",
"248 687 OFFCURVE",
"242 680 OFFCURVE",
"242 667 CURVE SMOOTH",
"242 602 LINE SMOOTH",
"242 587 OFFCURVE",
"247 580 OFFCURVE",
"264 580 CURVE SMOOTH",
"584 580 LINE SMOOTH",
"604 580 OFFCURVE",
"613 587 OFFCURVE",
"613 604 CURVE SMOOTH",
"613 669 LINE SMOOTH"
);
}
);
};
components = (
{
name = d;
}
);
layerId = "258ED206-D907-4350-8EBA-CBDDA1C16BF7";
paths = (
{
closed = 1;
nodes = (
"242 687 LINE",
"242 580 LINE",
"613 580 LINE",
"613 687 LINE"
);
}
);
width = 636;
},
{
background = {
components = (
{
name = d;
transform = "{1, 0, 0, 1, 4, 0}";
}
);
paths = (
{
closed = 1;
nodes = (
"581 660 OFFCURVE",
"579 662 OFFCURVE",
"576 662 CURVE SMOOTH",
"297 662 LINE SMOOTH",
"294 662 OFFCURVE",
"292 660 OFFCURVE",
"292 655 CURVE SMOOTH",
"292 635 LINE SMOOTH",
"292 629 OFFCURVE",
"293 627 OFFCURVE",
"299 627 CURVE SMOOTH",
"571 627 LINE SMOOTH",
"578 627 OFFCURVE",
"581 629 OFFCURVE",
"581 635 CURVE SMOOTH",
"581 656 LINE SMOOTH"
);
}
);
};
components = (
{
name = d;
}
);
layerId = "91AB5BCA-6A50-42DA-B2F7-8181BF189245";
paths = (
{
closed = 1;
nodes = (
"292 662 LINE",
"292 627 LINE",
"581 627 LINE",
"581 662 LINE"
);
}
);
width = 606;
}
);
leftKerningGroup = o;
leftMetricsKey = d;
unicode = 0111;
},
{
glyphname = e;
lastChange = "2017-03-01 19:04:51 +0000";
layers = (
{
anchors = (
{
name = bottom;
position = "{298, 0}";
},
{
name = ogonek;
position = "{427, 26}";
},
{
name = top;
position = "{295, 530}";
}
);
background = {
anchors = (
{
name = bottom;
position = "{298, 0}";
},
{
name = ogonek;
position = "{427, 26}";
},
{
name = top;
position = "{295, 530}";
}
);
paths = (
{
closed = 1;
nodes = (
"221 224 OFFCURVE",
"226 229 OFFCURVE",
"236 229 CURVE SMOOTH",
"547 229 LINE SMOOTH",
"564 230 OFFCURVE",
"565 237 OFFCURVE",
"565 254 CURVE SMOOTH",
"565 435 OFFCURVE",
"450 540 OFFCURVE",
"293 540 CURVE SMOOTH",
"145 540 OFFCURVE",
"15 426 OFFCURVE",
"15 256 CURVE SMOOTH",
"15 99 OFFCURVE",
"137 -10 OFFCURVE",
"297 -10 CURVE SMOOTH",
"409 -10 OFFCURVE",
"477 17 OFFCURVE",
"549 118 CURVE SMOOTH",
"558 129 OFFCURVE",
"555 138 OFFCURVE",
"545 142 CURVE SMOOTH",
"454 179 LINE SMOOTH",
"441 184 OFFCURVE",
"438 183 OFFCURVE",
"433 178 CURVE SMOOTH",
"389 135 OFFCURVE",
"358 122 OFFCURVE",
"324 122 CURVE SMOOTH",
"266 122 OFFCURVE",
"221 151 OFFCURVE",
"221 212 CURVE SMOOTH"
);
},
{
closed = 1;
nodes = (
"223 395 OFFCURVE",
"261 423 OFFCURVE",
"302 423 CURVE SMOOTH",
"352 423 OFFCURVE",
"371 372 OFFCURVE",
"371 346 CURVE SMOOTH",
"371 334 OFFCURVE",
"367 332 OFFCURVE",
"354 332 CURVE SMOOTH",
"224 333 LINE"
);
}
);
};
layerId = "258ED206-D907-4350-8EBA-CBDDA1C16BF7";
paths = (
{
closed = 1;
nodes = (
"565 208 LINE",
"565 395 OFFCURVE",
"495 540 OFFCURVE",
"293 540 CURVE SMOOTH",
"131 540 OFFCURVE",
"15 422 OFFCURVE",
"15 256 CURVE SMOOTH",
"15 95 OFFCURVE",
"136 -10 OFFCURVE",
"302 -10 CURVE SMOOTH",
"419 -10 OFFCURVE",
"511 42 OFFCURVE",
"553 138 CURVE",
"400 173 LINE",
"383 138 OFFCURVE",
"347 114 OFFCURVE",
"310 114 CURVE SMOOTH",
"268 114 OFFCURVE",
"211 143 OFFCURVE",
"211 208 CURVE"
);
},
{
closed = 1;
nodes = (
"215 375 OFFCURVE",
"244 418 OFFCURVE",
"300 418 CURVE SMOOTH",
"356 418 OFFCURVE",
"385 375 OFFCURVE",
"385 335 CURVE",
"215 335 LINE"
);
}
);
width = 580;
},
{
anchors = (
{
name = bottom;
position = "{287, 0}";
},
{
name = ogonek;
position = "{392, 18}";
},
{
name = top;
position = "{296, 530}";
}
);
background = {
anchors = (
{
name = bottom;
position = "{299, 0}";
},
{
name = ogonek;
position = "{392, 18}";
},
{
name = top;
position = "{296, 530}";
}
);
paths = (
{
closed = 1;
nodes = (
"97 247 OFFCURVE",
"99 254 OFFCURVE",
"103 254 CURVE SMOOTH",
"514 254 LINE SMOOTH",
"529 254 OFFCURVE",
"527 266 OFFCURVE",
"527 274 CURVE SMOOTH",
"527 442 OFFCURVE",
"439 540 OFFCURVE",
"298 540 CURVE SMOOTH",
"157 540 OFFCURVE",
"55 436 OFFCURVE",
"55 261 CURVE SMOOTH",
"55 100 OFFCURVE",
"154 -10 OFFCURVE",
"298 -10 CURVE SMOOTH",
"392 -10 OFFCURVE",
"462 27 OFFCURVE",
"508 100 CURVE SMOOTH",
"511 104 OFFCURVE",
"510 108 OFFCURVE",
"507 110 CURVE SMOOTH",
"484 125 LINE SMOOTH",
"480 128 OFFCURVE",
"477 127 OFFCURVE",
"473 121 CURVE SMOOTH",
"437 61 OFFCURVE",
"378 28 OFFCURVE",
"298 28 CURVE SMOOTH",
"186 28 OFFCURVE",
"97 127 OFFCURVE",
"97 240 CURVE SMOOTH"
);
},
{
closed = 1;
nodes = (
"97 390 OFFCURVE",
"165 502 OFFCURVE",
"297 502 CURVE SMOOTH",
"413 502 OFFCURVE",
"485 414 OFFCURVE",
"485 304 CURVE SMOOTH",
"485 293 OFFCURVE",
"482 290 OFFCURVE",
"468 290 CURVE SMOOTH",
"98 290 LINE"
);
}
);
};
guideLines = (
{
angle = 88.4926;
position = "{298, 521}";
}
);
layerId = "91AB5BCA-6A50-42DA-B2F7-8181BF189245";
paths = (
{
closed = 1;
nodes = (
"527 254 LINE",
"527 435 OFFCURVE",
"436 540 OFFCURVE",
"298 540 CURVE SMOOTH",
"154 540 OFFCURVE",
"55 423 OFFCURVE",
"55 261 CURVE SMOOTH",
"55 87 OFFCURVE",
"169 -10 OFFCURVE",
"308 -10 CURVE SMOOTH",
"393 -10 OFFCURVE",
"464 27 OFFCURVE",
"512 107 CURVE",
"478 129 LINE",
"438 62 OFFCURVE",
"384 27 OFFCURVE",
"308 27 CURVE SMOOTH",
"174 27 OFFCURVE",
"97 134 OFFCURVE",
"97 254 CURVE"
);
},
{
closed = 1;
nodes = (
"97 390 OFFCURVE",
"168 502 OFFCURVE",
"297 502 CURVE SMOOTH",
"416 502 OFFCURVE",
"485 408 OFFCURVE",
"485 290 CURVE",
"98 290 LINE"
);
}
);
width = 582;
}
);
leftKerningGroup = o;
unicode = 0065;
},
{
glyphname = f;
lastChange = "2017-02-17 18:27:07 +0000";
layers = (
{
background = {
paths = (
{
closed = 1;
nodes = (
"309 530 LINE SMOOTH",
"301 530 OFFCURVE",
"296 533 OFFCURVE",
"296 543 CURVE SMOOTH",
"296 561 LINE SMOOTH",
"296 589 OFFCURVE",
"318 612 OFFCURVE",
"341 612 CURVE SMOOTH",
"384 612 LINE SMOOTH",
"396 612 OFFCURVE",
"402 621 OFFCURVE",
"402 632 CURVE",
"401 716 LINE",
"401 732 OFFCURVE",
"391 742 OFFCURVE",
"372 742 CURVE SMOOTH",
"259 742 LINE SMOOTH",
"162 742 OFFCURVE",
"101 688 OFFCURVE",
"101 601 CURVE SMOOTH",
"101 548 LINE SMOOTH",
"101 535 OFFCURVE",
"98 530 OFFCURVE",
"87 530 CURVE SMOOTH",
"39 530 LINE SMOOTH",
"22 530 OFFCURVE",
"15 520 OFFCURVE",
"15 508 CURVE SMOOTH",
"15 414 LINE SMOOTH",
"15 400 OFFCURVE",
"23 395 OFFCURVE",
"37 395 CURVE SMOOTH",
"93 395 LINE SMOOTH",
"99 395 OFFCURVE",
"101 392 OFFCURVE",
"101 385 CURVE SMOOTH",
"101 20 LINE SMOOTH",
"101 7 OFFCURVE",
"108 0 OFFCURVE",
"119 0 CURVE SMOOTH",
"282 0 LINE SMOOTH",
"294 0 OFFCURVE",
"301 7 OFFCURVE",
"301 22 CURVE SMOOTH",
"301 383 LINE SMOOTH",
"301 391 OFFCURVE",
"306 395 OFFCURVE",
"313 395 CURVE SMOOTH",
"375 395 LINE SMOOTH",
"388 395 OFFCURVE",
"397 400 OFFCURVE",
"397 414 CURVE SMOOTH",
"397 508 LINE SMOOTH",
"397 520 OFFCURVE",
"389 530 OFFCURVE",
"372 530 CURVE SMOOTH"
);
}
);
};
layerId = "258ED206-D907-4350-8EBA-CBDDA1C16BF7";
paths = (
{
closed = 1;
nodes = (
"296 530 LINE",
"296 561 LINE SMOOTH",
"296 600 OFFCURVE",
"308 612 OFFCURVE",
"341 612 CURVE SMOOTH",
"402 612 LINE",
"401 742 LINE",
"259 742 LINE SMOOTH",
"162 742 OFFCURVE",
"101 688 OFFCURVE",
"101 601 CURVE SMOOTH",
"101 530 LINE",
"15 530 LINE",
"15 395 LINE",
"101 395 LINE",
"101 0 LINE",
"301 0 LINE",
"301 395 LINE",
"397 395 LINE",
"397 530 LINE"
);
}
);
width = 417;
},
{
background = {
paths = (
{
closed = 1;
nodes = (
"203 530 LINE SMOOTH",
"198 530 OFFCURVE",
"196 532 OFFCURVE",
"196 537 CURVE SMOOTH",
"196 627 LINE SMOOTH",
"196 678 OFFCURVE",
"209 707 OFFCURVE",
"259 707 CURVE SMOOTH",
"339 707 LINE SMOOTH",
"344 707 OFFCURVE",
"347 709 OFFCURVE",
"347 714 CURVE SMOOTH",
"347 735 LINE SMOOTH",
"347 740 OFFCURVE",
"345 742 OFFCURVE",
"341 742 CURVE SMOOTH",
"269 742 LINE SMOOTH",
"189 742 OFFCURVE",
"156 700 OFFCURVE",
"156 618 CURVE SMOOTH",
"156 537 LINE SMOOTH",
"156 532 OFFCURVE",
"154 530 OFFCURVE",
"149 530 CURVE SMOOTH",
"36 530 LINE SMOOTH",
"32 530 OFFCURVE",
"30 528 OFFCURVE",
"30 524 CURVE SMOOTH",
"30 501 LINE SMOOTH",
"30 497 OFFCURVE",
"32 495 OFFCURVE",
"36 495 CURVE SMOOTH",
"150 495 LINE SMOOTH",
"154 495 OFFCURVE",
"156 492 OFFCURVE",
"156 488 CURVE SMOOTH",
"156 10 LINE SMOOTH",
"156 3 OFFCURVE",
"158 0 OFFCURVE",
"164 0 CURVE SMOOTH",
"187 0 LINE SMOOTH",
"193 0 OFFCURVE",
"196 3 OFFCURVE",
"196 11 CURVE SMOOTH",
"196 488 LINE SMOOTH",
"196 493 OFFCURVE",
"198 495 OFFCURVE",
"203 495 CURVE SMOOTH",
"336 495 LINE SMOOTH",
"340 495 OFFCURVE",
"342 497 OFFCURVE",
"342 501 CURVE SMOOTH",
"342 524 LINE SMOOTH",
"342 528 OFFCURVE",
"340 530 OFFCURVE",
"337 530 CURVE SMOOTH"
);
}
);
};
layerId = "91AB5BCA-6A50-42DA-B2F7-8181BF189245";
paths = (
{
closed = 1;
nodes = (
"196 530 LINE",
"196 627 LINE SMOOTH",
"196 678 OFFCURVE",
"209 707 OFFCURVE",
"259 707 CURVE SMOOTH",
"347 707 LINE",
"347 742 LINE",
"269 742 LINE SMOOTH",
"189 742 OFFCURVE",
"156 700 OFFCURVE",
"156 618 CURVE SMOOTH",
"156 530 LINE",
"30 530 LINE",
"30 495 LINE",
"156 495 LINE",
"156 0 LINE",
"196 0 LINE",
"196 495 LINE",
"342 495 LINE",
"342 530 LINE"
);
}
);
width = 377;
}
);
leftKerningGroup = f;
rightKerningGroup = f;
unicode = 0066;
},
{
glyphname = g;
lastChange = "2017-02-24 23:23:20 +0000";
layers = (
{
anchors = (
{
name = top;
position = "{315, 530}";
}
);
background = {
anchors = (
{
name = top;
position = "{315, 530}";
}
);
paths = (
{
closed = 1;
nodes = (
"595 562 OFFCURVE",
"539 534 OFFCURVE",
"512 496 CURVE SMOOTH",
"505 486 OFFCURVE",
"491 485 OFFCURVE",
"481 493 CURVE SMOOTH",
"448 519 OFFCURVE",
"390 538 OFFCURVE",
"314 538 CURVE SMOOTH",
"135 538 OFFCURVE",
"44 469 OFFCURVE",
"44 373 CURVE SMOOTH",
"44 312 OFFCURVE",
"82 265 OFFCURVE",
"148 237 CURVE SMOOTH",
"158 231 OFFCURVE",
"151 228 OFFCURVE",
"145 225 CURVE SMOOTH",
"91 202 OFFCURVE",
"36 169 OFFCURVE",
"36 122 CURVE SMOOTH",
"36 81 OFFCURVE",
"67 56 OFFCURVE",
"102 39 CURVE SMOOTH",
"110 35 OFFCURVE",
"112 31 OFFCURVE",
"102 28 CURVE SMOOTH",
"49 13 OFFCURVE",
"5 -8 OFFCURVE",
"5 -53 CURVE SMOOTH",
"5 -137 OFFCURVE",
"107 -175 OFFCURVE",
"316 -175 CURVE SMOOTH",
"517 -175 OFFCURVE",
"619 -99 OFFCURVE",
"619 3 CURVE SMOOTH",
"619 85 OFFCURVE",
"553 143 OFFCURVE",
"405 152 CURVE SMOOTH",
"253 161 LINE SMOOTH",
"224 163 OFFCURVE",
"209 167 OFFCURVE",
"209 182 CURVE SMOOTH",
"209 198 OFFCURVE",
"236 209 OFFCURVE",
"302 209 CURVE SMOOTH",
"470 209 OFFCURVE",
"559 284 OFFCURVE",
"559 374 CURVE SMOOTH",
"559 384 OFFCURVE",
"557 395 OFFCURVE",
"554 405 CURVE SMOOTH",
"550 419 OFFCURVE",
"555 428 OFFCURVE",
"574 428 CURVE SMOOTH",
"586 428 OFFCURVE",
"605 425 OFFCURVE",
"618 421 CURVE SMOOTH",
"633 416 OFFCURVE",
"644 424 OFFCURVE",
"644 447 CURVE SMOOTH",
"644 537 LINE SMOOTH",
"644 555 OFFCURVE",
"635 562 OFFCURVE",
"624 562 CURVE SMOOTH"
);
},
{
closed = 1;
nodes = (
"250 300 OFFCURVE",
"222 334 OFFCURVE",
"222 370 CURVE SMOOTH",
"222 411 OFFCURVE",
"250 445 OFFCURVE",
"300 445 CURVE SMOOTH",
"356 445 OFFCURVE",
"378 411 OFFCURVE",
"378 370 CURVE SMOOTH",
"378 335 OFFCURVE",
"356 300 OFFCURVE",
"300 300 CURVE SMOOTH"
);
},
{
closed = 1;
nodes = (
"423 0 OFFCURVE",
"446 -16 OFFCURVE",
"446 -35 CURVE SMOOTH",
"446 -64 OFFCURVE",
"404 -86 OFFCURVE",
"326 -86 CURVE SMOOTH",
"201 -86 OFFCURVE",
"166 -64 OFFCURVE",
"166 -27 CURVE SMOOTH",
"166 -6 OFFCURVE",
"192 10 OFFCURVE",
"235 8 CURVE SMOOTH",
"380 2 LINE SMOOTH"
);
}
);
};
layerId = "258ED206-D907-4350-8EBA-CBDDA1C16BF7";
paths = (
{
closed = 1;
nodes = (
"517 -175 OFFCURVE",
"619 -99 OFFCURVE",
"619 3 CURVE SMOOTH",
"619 85 OFFCURVE",
"554 152 OFFCURVE",
"407 162 CURVE SMOOTH",
"362 165 OFFCURVE",
"320 167 OFFCURVE",
"302 168 CURVE SMOOTH",
"250 171 OFFCURVE",
"217 171 OFFCURVE",
"217 186 CURVE",
"217 191 OFFCURVE",
"221 193 OFFCURVE",
"231 195 CURVE",
"249 193 OFFCURVE",
"285 192 OFFCURVE",
"302 192 CURVE SMOOTH",
"470 192 OFFCURVE",
"559 284 OFFCURVE",
"559 374 CURVE SMOOTH",
"559 381 OFFCURVE",
"558 390 OFFCURVE",
"556 397 CURVE SMOOTH",
"552 411 OFFCURVE",
"555 419 OFFCURVE",
"574 421 CURVE SMOOTH",
"595 423 OFFCURVE",
"622 426 OFFCURVE",
"643 428 CURVE",
"644 569 LINE",
"610 555 OFFCURVE",
"559 535 OFFCURVE",
"512 516 CURVE SMOOTH",
"502 512 OFFCURVE",
"472 500 OFFCURVE",
"470 501 CURVE SMOOTH",
"431 521 OFFCURVE",
"390 538 OFFCURVE",
"314 538 CURVE SMOOTH",
"170 538 OFFCURVE",
"44 480 OFFCURVE",
"44 373 CURVE SMOOTH",
"44 317 OFFCURVE",
"81 249 OFFCURVE",
"158 215 CURVE",
"75 204 OFFCURVE",
"36 164 OFFCURVE",
"36 122 CURVE SMOOTH",
"36 84 OFFCURVE",
"67 56 OFFCURVE",
"102 39 CURVE SMOOTH",
"110 35 OFFCURVE",
"112 31 OFFCURVE",
"102 28 CURVE SMOOTH",
"49 13 OFFCURVE",
"5 -8 OFFCURVE",
"5 -53 CURVE SMOOTH",
"5 -121 OFFCURVE",
"107 -175 OFFCURVE",
"316 -175 CURVE SMOOTH"
);
},
{
closed = 1;
nodes = (
"245 -71 OFFCURVE",
"199 -64 OFFCURVE",
"199 -30 CURVE SMOOTH",
"199 -12 OFFCURVE",
"213 11 OFFCURVE",
"268 8 CURVE SMOOTH",
"364 2 LINE SMOOTH",
"405 -1 OFFCURVE",
"430 -15 OFFCURVE",
"430 -38 CURVE SMOOTH",
"430 -57 OFFCURVE",
"417 -71 OFFCURVE",
"347 -71 CURVE SMOOTH"
);
},
{
closed = 1;
nodes = (
"270 296 OFFCURVE",
"244 326 OFFCURVE",
"244 366 CURVE SMOOTH",
"244 406 OFFCURVE",
"270 441 OFFCURVE",
"308 441 CURVE SMOOTH",
"346 441 OFFCURVE",
"372 406 OFFCURVE",
"372 366 CURVE SMOOTH",
"372 326 OFFCURVE",
"346 296 OFFCURVE",
"308 296 CURVE SMOOTH"
);
}
);
width = 659;
},
{
anchors = (
{
name = top;
position = "{283, 530}";
}
);
background = {
anchors = (
{
name = top;
position = "{283, 530}";
}
);
guideLines = (
{
angle = 90;
position = "{279, 374}";
showMeasurement = 1;
}
);
paths = (
{
closed = 1;
nodes = (
"497 530 OFFCURVE",
"467 507 OFFCURVE",
"447 492 CURVE SMOOTH",
"440 487 OFFCURVE",
"436 487 OFFCURVE",
"429 493 CURVE SMOOTH",
"395 522 OFFCURVE",
"352 538 OFFCURVE",
"286 538 CURVE SMOOTH",
"154 538 OFFCURVE",
"76 475 OFFCURVE",
"76 369 CURVE SMOOTH",
"76 307 OFFCURVE",
"100 266 OFFCURVE",
"155 235 CURVE SMOOTH",
"162 231 OFFCURVE",
"164 225 OFFCURVE",
"156 223 CURVE SMOOTH",
"106 207 OFFCURVE",
"89 181 OFFCURVE",
"89 159 CURVE SMOOTH",
"89 137 OFFCURVE",
"100 121 OFFCURVE",
"127 109 CURVE SMOOTH",
"134 106 OFFCURVE",
"134 102 OFFCURVE",
"127 98 CURVE SMOOTH",
"64 63 OFFCURVE",
"35 21 OFFCURVE",
"35 -27 CURVE SMOOTH",
"35 -120 OFFCURVE",
"121 -175 OFFCURVE",
"275 -175 CURVE SMOOTH",
"426 -175 OFFCURVE",
"514 -119 OFFCURVE",
"514 -19 CURVE SMOOTH",
"514 60 OFFCURVE",
"467 110 OFFCURVE",
"360 116 CURVE SMOOTH",
"240 123 LINE SMOOTH",
"163 127 OFFCURVE",
"131 136 OFFCURVE",
"131 160 CURVE SMOOTH",
"131 184 OFFCURVE",
"164 209 OFFCURVE",
"279 209 CURVE SMOOTH",
"420 209 OFFCURVE",
"481 280 OFFCURVE",
"481 369 CURVE SMOOTH",
"481 411 OFFCURVE",
"467 434 OFFCURVE",
"460 451 CURVE SMOOTH",
"457 458 OFFCURVE",
"462 464 OFFCURVE",
"480 474 CURVE SMOOTH",
"496 483 OFFCURVE",
"509 487 OFFCURVE",
"535 488 CURVE SMOOTH",
"549 489 OFFCURVE",
"552 495 OFFCURVE",
"552 504 CURVE SMOOTH",
"552 517 LINE SMOOTH",
"552 526 OFFCURVE",
"548 530 OFFCURVE",
"533 530 CURVE SMOOTH"
);
},
{
closed = 1;
nodes = (
"175 247 OFFCURVE",
"116 290 OFFCURVE",
"116 371 CURVE SMOOTH",
"116 453 OFFCURVE",
"176 500 OFFCURVE",
"280 500 CURVE SMOOTH",
"386 500 OFFCURVE",
"441 454 OFFCURVE",
"441 371 CURVE SMOOTH",
"441 289 OFFCURVE",
"388 247 OFFCURVE",
"280 247 CURVE SMOOTH"
);
},
{
closed = 1;
nodes = (
"443 70 OFFCURVE",
"472 36 OFFCURVE",
"472 -19 CURVE SMOOTH",
"472 -101 OFFCURVE",
"406 -137 OFFCURVE",
"284 -137 CURVE SMOOTH",
"153 -137 OFFCURVE",
"77 -96 OFFCURVE",
"77 -23 CURVE SMOOTH",
"77 43 OFFCURVE",
"151 88 OFFCURVE",
"183 86 CURVE SMOOTH",
"359 75 LINE SMOOTH"
);
}
);
};
guideLines = (
{
angle = 90;
position = "{387, 374}";
showMeasurement = 1;
}
);
layerId = "91AB5BCA-6A50-42DA-B2F7-8181BF189245";
paths = (
{
closed = 1;
nodes = (
"426 -175 OFFCURVE",
"514 -119 OFFCURVE",
"514 -19 CURVE SMOOTH",
"514 60 OFFCURVE",
"467 110 OFFCURVE",
"360 116 CURVE SMOOTH",
"310 119 OFFCURVE",
"271 121 OFFCURVE",
"240 123 CURVE SMOOTH",
"155 129 OFFCURVE",
"131 137 OFFCURVE",
"131 160 CURVE SMOOTH",
"131 183 OFFCURVE",
"162 207 OFFCURVE",
"268 209 CURVE SMOOTH",
"272 209 OFFCURVE",
"275 209 OFFCURVE",
"279 209 CURVE SMOOTH",
"420 209 OFFCURVE",
"481 280 OFFCURVE",
"481 369 CURVE SMOOTH",
"481 407 OFFCURVE",
"468 433 OFFCURVE",
"463 444 CURVE SMOOTH",
"457 457 OFFCURVE",
"457 459 OFFCURVE",
"480 464 CURVE SMOOTH",
"505 469 OFFCURVE",
"515 471 OFFCURVE",
"552 478 CURVE",
"552 537 LINE",
"513 521 OFFCURVE",
"471 503 OFFCURVE",
"447 492 CURVE SMOOTH",
"440 489 OFFCURVE",
"436 487 OFFCURVE",
"429 493 CURVE SMOOTH",
"395 522 OFFCURVE",
"352 538 OFFCURVE",
"286 538 CURVE SMOOTH",
"154 538 OFFCURVE",
"76 475 OFFCURVE",
"76 369 CURVE SMOOTH",
"76 303 OFFCURVE",
"101 264 OFFCURVE",
"167 228 CURVE",
"116 212 OFFCURVE",
"89 188 OFFCURVE",
"89 159 CURVE SMOOTH",
"89 137 OFFCURVE",
"100 121 OFFCURVE",
"127 109 CURVE SMOOTH",
"134 106 OFFCURVE",
"134 102 OFFCURVE",
"127 98 CURVE SMOOTH",
"64 63 OFFCURVE",
"35 21 OFFCURVE",
"35 -27 CURVE SMOOTH",
"35 -120 OFFCURVE",
"121 -175 OFFCURVE",
"275 -175 CURVE SMOOTH"
);
},
{
closed = 1;
nodes = (
"153 -137 OFFCURVE",
"77 -96 OFFCURVE",
"77 -23 CURVE SMOOTH",
"77 43 OFFCURVE",
"151 88 OFFCURVE",
"183 86 CURVE SMOOTH",
"359 75 LINE SMOOTH",
"443 70 OFFCURVE",
"472 36 OFFCURVE",
"472 -19 CURVE SMOOTH",
"472 -101 OFFCURVE",
"406 -137 OFFCURVE",
"284 -137 CURVE SMOOTH"
);
},
{
closed = 1;
nodes = (
"175 247 OFFCURVE",
"116 290 OFFCURVE",
"116 371 CURVE SMOOTH",
"116 453 OFFCURVE",
"176 500 OFFCURVE",
"280 500 CURVE SMOOTH",
"386 500 OFFCURVE",
"441 454 OFFCURVE",
"441 371 CURVE SMOOTH",
"441 289 OFFCURVE",
"388 247 OFFCURVE",
"280 247 CURVE SMOOTH"
);
}
);
width = 597;
}
);
leftKerningGroup = g;
unicode = 0067;
},
{
glyphname = gcommaaccent;
lastChange = "2017-02-02 23:11:08 +0000";
layers = (
{
anchors = (
{
name = _top;
position = "{303, 550}";
}
);
background = {
anchors = (
{
name = _top;
position = "{303, 550}";
}
);
components = (
{
name = g;
}
);
paths = (
{
closed = 1;
nodes = (
"350 599 LINE SMOOTH",
"360 599 OFFCURVE",
"368 605 OFFCURVE",
"368 619 CURVE SMOOTH",
"368 680 LINE SMOOTH",
"368 696 OFFCURVE",
"362 702 OFFCURVE",
"345 702 CURVE SMOOTH",
"336 702 LINE SMOOTH",
"322 702 OFFCURVE",
"316 717 OFFCURVE",
"327 731 CURVE SMOOTH",
"360 776 LINE SMOOTH",
"366 784 OFFCURVE",
"359 796 OFFCURVE",
"348 796 CURVE SMOOTH",
"330 796 LINE SMOOTH",
"312 796 OFFCURVE",
"305 793 OFFCURVE",
"297 782 CURVE SMOOTH",
"243 715 LINE SMOOTH",
"242 712 OFFCURVE",
"239 707 OFFCURVE",
"239 702 CURVE SMOOTH",
"239 615 LINE SMOOTH",
"239 605 OFFCURVE",
"245 599 OFFCURVE",
"256 599 CURVE SMOOTH"
);
}
);
};
components = (
{
name = g;
}
);
layerId = "258ED206-D907-4350-8EBA-CBDDA1C16BF7";
paths = (
{
closed = 1;
nodes = (
"368 599 LINE",
"368 702 LINE",
"306 702 LINE",
"375 796 LINE",
"308 796 LINE",
"239 710 LINE",
"239 599 LINE"
);
}
);
width = 659;
},
{
anchors = (
{
name = _top;
position = "{283, 550}";
}
);
background = {
anchors = (
{
name = _top;
position = "{283, 550}";
}
);
components = (
{
name = g;
}
);
paths = (
{
closed = 1;
nodes = (
"302 632 LINE SMOOTH",
"306 632 OFFCURVE",
"309 634 OFFCURVE",
"309 640 CURVE SMOOTH",
"309 706 LINE SMOOTH",
"309 713 OFFCURVE",
"307 715 OFFCURVE",
"301 715 CURVE SMOOTH",
"293 715 LINE SMOOTH",
"288 715 OFFCURVE",
"286 718 OFFCURVE",
"289 724 CURVE SMOOTH",
"314 778 LINE SMOOTH",
"316 782 OFFCURVE",
"314 786 OFFCURVE",
"310 786 CURVE SMOOTH",
"297 786 LINE SMOOTH",
"289 786 OFFCURVE",
"286 785 OFFCURVE",
"283 780 CURVE SMOOTH",
"252 721 LINE SMOOTH",
"252 720 OFFCURVE",
"251 717 OFFCURVE",
"251 715 CURVE SMOOTH",
"251 639 LINE SMOOTH",
"251 634 OFFCURVE",
"253 632 OFFCURVE",
"257 632 CURVE SMOOTH"
);
}
);
};
components = (
{
name = g;
transform = "{1, 0, 0, 1, -4, 0}";
}
);
layerId = "91AB5BCA-6A50-42DA-B2F7-8181BF189245";
paths = (
{
closed = 1;
nodes = (
"309 632 LINE",
"309 715 LINE",
"285 715 LINE",
"318 786 LINE",
"286 786 LINE",
"251 719 LINE",
"251 632 LINE"
);
}
);
width = 566;
}
);
leftKerningGroup = g;
leftMetricsKey = g;
rightMetricsKey = g;
unicode = 0123;
},
{
glyphname = h;
lastChange = "2017-03-01 19:02:22 +0000";
layers = (
{
anchors = (
{
name = bottom;
position = "{304, 0}";
},
{
name = top;
position = "{443, 530}";
}
);
background = {
anchors = (
{
name = bottom;
position = "{304, 0}";
},
{
name = top;
position = "{443, 530}";
}
);
paths = (
{
closed = 1;
nodes = (
"207 0 LINE SMOOTH",
"231 0 OFFCURVE",
"240 8 OFFCURVE",
"240 29 CURVE SMOOTH",
"240 349 LINE",
"259 383 OFFCURVE",
"283 399 OFFCURVE",
"314 399 CURVE SMOOTH",
"346 399 OFFCURVE",
"366 381 OFFCURVE",
"366 351 CURVE SMOOTH",
"366 25 LINE SMOOTH",
"366 6 OFFCURVE",
"372 0 OFFCURVE",
"389 0 CURVE SMOOTH",
"536 0 LINE SMOOTH",
"557 0 OFFCURVE",
"566 10 OFFCURVE",
"566 30 CURVE SMOOTH",
"566 375 LINE SMOOTH",
"566 481 OFFCURVE",
"509 540 OFFCURVE",
"410 540 CURVE SMOOTH",
"357 540 OFFCURVE",
"307 523 OFFCURVE",
"250 468 CURVE SMOOTH",
"242 461 OFFCURVE",
"237 464 OFFCURVE",
"237 472 CURVE SMOOTH",
"237 721 LINE SMOOTH",
"237 734 OFFCURVE",
"231 742 OFFCURVE",
"219 742 CURVE SMOOTH",
"59 742 LINE SMOOTH",
"47 742 OFFCURVE",
"40 733 OFFCURVE",
"40 719 CURVE SMOOTH",
"40 25 LINE SMOOTH",
"40 7 OFFCURVE",
"47 0 OFFCURVE",
"66 0 CURVE SMOOTH"
);
}
);
};
layerId = "258ED206-D907-4350-8EBA-CBDDA1C16BF7";
paths = (
{
closed = 1;
nodes = (
"240 0 LINE",
"240 349 LINE",
"259 383 OFFCURVE",
"283 399 OFFCURVE",
"314 399 CURVE SMOOTH",
"346 399 OFFCURVE",
"366 381 OFFCURVE",
"366 351 CURVE SMOOTH",
"366 0 LINE",
"566 0 LINE",
"566 375 LINE SMOOTH",
"566 481 OFFCURVE",
"509 540 OFFCURVE",
"410 540 CURVE SMOOTH",
"353 540 OFFCURVE",
"299 520 OFFCURVE",
"237 455 CURVE",
"237 782 LINE",
"40 782 LINE",
"40 0 LINE"
);
}
);
width = 606;
},
{
anchors = (
{
name = bottom;
position = "{302, 0}";
},
{
name = top;
position = "{324, 530}";
}
);
background = {
anchors = (
{
name = bottom;
position = "{302, 0}";
},
{
name = top;
position = "{324, 530}";
}
);
paths = (
{
closed = 1;
nodes = (
"121 0 LINE SMOOTH",
"127 0 OFFCURVE",
"130 3 OFFCURVE",
"130 9 CURVE SMOOTH",
"130 410 LINE",
"210 471 OFFCURVE",
"257 502 OFFCURVE",
"328 502 CURVE SMOOTH",
"415 502 OFFCURVE",
"451 455 OFFCURVE",
"451 377 CURVE SMOOTH",
"451 9 LINE SMOOTH",
"451 3 OFFCURVE",
"454 0 OFFCURVE",
"460 0 CURVE SMOOTH",
"482 0 LINE SMOOTH",
"488 0 OFFCURVE",
"491 3 OFFCURVE",
"491 10 CURVE SMOOTH",
"491 393 LINE SMOOTH",
"491 480 OFFCURVE",
"436 540 OFFCURVE",
"329 540 CURVE SMOOTH",
"256 540 OFFCURVE",
"211 511 OFFCURVE",
"135 457 CURVE SMOOTH",
"129 452 OFFCURVE",
"127 453 OFFCURVE",
"127 460 CURVE SMOOTH",
"127 734 LINE SMOOTH",
"127 740 OFFCURVE",
"125 742 OFFCURVE",
"119 742 CURVE SMOOTH",
"98 742 LINE SMOOTH",
"92 742 OFFCURVE",
"90 739 OFFCURVE",
"90 733 CURVE SMOOTH",
"90 9 LINE SMOOTH",
"90 3 OFFCURVE",
"93 0 OFFCURVE",
"99 0 CURVE SMOOTH"
);
}
);
};
layerId = "91AB5BCA-6A50-42DA-B2F7-8181BF189245";
paths = (
{
closed = 1;
nodes = (
"130 0 LINE",
"130 410 LINE",
"210 471 OFFCURVE",
"257 502 OFFCURVE",
"328 502 CURVE SMOOTH",
"415 502 OFFCURVE",
"451 455 OFFCURVE",
"451 377 CURVE SMOOTH",
"451 0 LINE",
"491 0 LINE",
"491 393 LINE SMOOTH",
"491 480 OFFCURVE",
"436 540 OFFCURVE",
"329 540 CURVE SMOOTH",
"253 540 OFFCURVE",
"206 509 OFFCURVE",
"127 451 CURVE",
"127 782 LINE",
"90 782 LINE",
"90 0 LINE"
);
}
);
width = 581;
}
);
leftMetricsKey = n;
rightMetricsKey = n;
unicode = 0068;
},
{
glyphname = hbar;
lastChange = "2017-01-26 17:38:49 +0000";
layers = (
{
background = {
components = (
{
name = h;
transform = "{1, 0, 0, 1, 3, 0}";
}
);
paths = (
{
closed = 1;
nodes = (
"374 680 OFFCURVE",
"368 687 OFFCURVE",
"358 687 CURVE SMOOTH",
"19 687 LINE SMOOTH",
"9 687 OFFCURVE",
"3 680 OFFCURVE",
"3 667 CURVE SMOOTH",
"3 602 LINE SMOOTH",
"3 587 OFFCURVE",
"8 580 OFFCURVE",
"25 580 CURVE SMOOTH",
"345 580 LINE SMOOTH",
"365 580 OFFCURVE",
"374 587 OFFCURVE",
"374 604 CURVE SMOOTH",
"374 669 LINE SMOOTH"
);
}
);
};
components = (
{
name = h;
transform = "{1, 0, 0, 1, 3, 0}";
}
);
layerId = "258ED206-D907-4350-8EBA-CBDDA1C16BF7";
paths = (
{
closed = 1;
nodes = (
"3 687 LINE",
"3 580 LINE",
"374 580 LINE",
"374 687 LINE"
);
}
);
width = 629;
},
{
background = {
components = (
{
name = h;
}
);
paths = (
{
closed = 1;
nodes = (
"309 660 OFFCURVE",
"307 662 OFFCURVE",
"304 662 CURVE SMOOTH",
"25 662 LINE SMOOTH",
"22 662 OFFCURVE",
"20 660 OFFCURVE",
"20 655 CURVE SMOOTH",
"20 635 LINE SMOOTH",
"20 629 OFFCURVE",
"21 627 OFFCURVE",
"27 627 CURVE SMOOTH",
"299 627 LINE SMOOTH",
"306 627 OFFCURVE",
"309 629 OFFCURVE",
"309 635 CURVE SMOOTH",
"309 656 LINE SMOOTH"
);
}
);
};
components = (
{
name = h;
transform = "{1, 0, 0, 1, -4, 0}";
}
);
layerId = "91AB5BCA-6A50-42DA-B2F7-8181BF189245";
paths = (
{
closed = 1;
nodes = (
"20 662 LINE",
"20 627 LINE",
"309 627 LINE",
"309 662 LINE"
);
}
);
width = 587;
}
);
rightMetricsKey = h;
unicode = 0127;
},
{
glyphname = i;
lastChange = "2017-03-01 19:02:36 +0000";
layers = (
{
background = {
paths = (
{
closed = 1;
nodes = (
"240 522 OFFCURVE",
"233 530 OFFCURVE",
"222 530 CURVE SMOOTH",
"59 530 LINE SMOOTH",
"47 530 OFFCURVE",
"40 522 OFFCURVE",
"40 507 CURVE SMOOTH",
"40 25 LINE SMOOTH",
"40 8 OFFCURVE",
"46 0 OFFCURVE",
"66 0 CURVE SMOOTH",
"207 0 LINE SMOOTH",
"230 0 OFFCURVE",
"240 8 OFFCURVE",
"240 29 CURVE SMOOTH",
"240 510 LINE SMOOTH"
);
},
{
closed = 1;
nodes = (
"240 734 OFFCURVE",
"233 742 OFFCURVE",
"222 742 CURVE SMOOTH",
"59 742 LINE SMOOTH",
"47 742 OFFCURVE",
"40 734 OFFCURVE",
"40 719 CURVE SMOOTH",
"40 600 LINE SMOOTH",
"40 583 OFFCURVE",
"46 574 OFFCURVE",
"66 574 CURVE SMOOTH",
"207 574 LINE SMOOTH",
"230 574 OFFCURVE",
"240 583 OFFCURVE",
"240 603 CURVE SMOOTH",
"240 721 LINE SMOOTH"
);
}
);
};
layerId = "258ED206-D907-4350-8EBA-CBDDA1C16BF7";
paths = (
{
closed = 1;
nodes = (
"40 530 LINE",
"40 0 LINE",
"240 0 LINE",
"240 530 LINE"
);
},
{
closed = 1;
nodes = (
"40 762 LINE",
"40 594 LINE",
"240 594 LINE",
"240 762 LINE"
);
}
);
width = 280;
},
{
background = {
paths = (
{
closed = 1;
nodes = (
"135 528 OFFCURVE",
"133 530 OFFCURVE",
"126 530 CURVE SMOOTH",
"104 530 LINE SMOOTH",
"97 530 OFFCURVE",
"95 528 OFFCURVE",
"95 520 CURVE SMOOTH",
"95 10 LINE SMOOTH",
"95 2 OFFCURVE",
"97 0 OFFCURVE",
"106 0 CURVE SMOOTH",
"123 0 LINE SMOOTH",
"133 0 OFFCURVE",
"135 2 OFFCURVE",
"135 12 CURVE SMOOTH",
"135 520 LINE SMOOTH"
);
},
{
closed = 1;
nodes = (
"140 737 OFFCURVE",
"135 742 OFFCURVE",
"128 742 CURVE SMOOTH",
"102 742 LINE SMOOTH",
"95 742 OFFCURVE",
"90 737 OFFCURVE",
"90 729 CURVE SMOOTH",
"90 658 LINE SMOOTH",
"90 650 OFFCURVE",
"92 644 OFFCURVE",
"101 644 CURVE SMOOTH",
"128 644 LINE SMOOTH",
"138 644 OFFCURVE",
"140 650 OFFCURVE",
"140 660 CURVE SMOOTH",
"140 729 LINE SMOOTH"
);
}
);
};
layerId = "91AB5BCA-6A50-42DA-B2F7-8181BF189245";
paths = (
{
closed = 1;
nodes = (
"95 530 LINE",
"95 0 LINE",
"135 0 LINE",
"135 530 LINE"
);
},
{
closed = 1;
nodes = (
"90 762 LINE",
"90 664 LINE",
"140 664 LINE",
"140 762 LINE"
);
}
);
width = 230;
}
);
leftMetricsKey = n;
rightMetricsKey = n;
unicode = 0069;
},
{
glyphname = idotless;
lastChange = "2017-02-02 23:13:02 +0000";
layers = (
{
anchors = (
{
name = ogonek;
position = "{227, 9}";
},
{
name = top;
position = "{159, 530}";
}
);
background = {
anchors = (
{
name = ogonek;
position = "{227, 9}";
},
{
name = top;
position = "{159, 530}";
}
);
paths = (
{
closed = 1;
nodes = (
"255 522 OFFCURVE",
"248 530 OFFCURVE",
"237 530 CURVE SMOOTH",
"74 530 LINE SMOOTH",
"62 530 OFFCURVE",
"55 522 OFFCURVE",
"55 507 CURVE SMOOTH",
"55 25 LINE SMOOTH",
"55 8 OFFCURVE",
"61 0 OFFCURVE",
"81 0 CURVE SMOOTH",
"222 0 LINE SMOOTH",
"245 0 OFFCURVE",
"255 8 OFFCURVE",
"255 29 CURVE SMOOTH",
"255 510 LINE SMOOTH"
);
}
);
};
layerId = "258ED206-D907-4350-8EBA-CBDDA1C16BF7";
paths = (
{
closed = 1;
nodes = (
"55 530 LINE",
"55 0 LINE",
"255 0 LINE",
"255 530 LINE"
);
}
);
width = 310;
},
{
anchors = (
{
name = ogonek;
position = "{123, 13}";
},
{
name = top;
position = "{111, 530}";
}
);
background = {
anchors = (
{
name = ogonek;
position = "{123, 13}";
},
{
name = top;
position = "{111, 530}";
}
);
paths = (
{
closed = 1;
nodes = (
"131 528 OFFCURVE",
"129 530 OFFCURVE",
"122 530 CURVE SMOOTH",
"100 530 LINE SMOOTH",
"93 530 OFFCURVE",
"91 528 OFFCURVE",
"91 520 CURVE SMOOTH",
"91 10 LINE SMOOTH",
"91 2 OFFCURVE",
"93 0 OFFCURVE",
"102 0 CURVE SMOOTH",
"119 0 LINE SMOOTH",
"129 0 OFFCURVE",
"131 2 OFFCURVE",
"131 12 CURVE SMOOTH",
"131 520 LINE SMOOTH"
);
}
);
};
layerId = "91AB5BCA-6A50-42DA-B2F7-8181BF189245";
paths = (
{
closed = 1;
nodes = (
"91 530 LINE",
"91 0 LINE",
"131 0 LINE",
"131 530 LINE"
);
}
);
width = 222;
}
);
leftMetricsKey = i;
rightMetricsKey = i;
unicode = 0131;
},
{
glyphname = j;
lastChange = "2017-02-17 18:27:16 +0000";
layers = (
{
background = {
paths = (
{
closed = 1;
nodes = (
"242 510 LINE SMOOTH",
"242 522 OFFCURVE",
"236 530 OFFCURVE",
"224 530 CURVE SMOOTH",
"62 530 LINE SMOOTH",
"50 530 OFFCURVE",
"42 522 OFFCURVE",
"42 507 CURVE SMOOTH",
"42 36 LINE SMOOTH",
"42 2 OFFCURVE",
"31 -6 OFFCURVE",
"18 -10 CURVE SMOOTH",
"-17 -16 LINE SMOOTH",
"-30 -19 OFFCURVE",
"-37 -32 OFFCURVE",
"-37 -43 CURVE SMOOTH",
"-36 -145 LINE SMOOTH",
"-36 -166 OFFCURVE",
"-24 -170 OFFCURVE",
"32 -170 CURVE SMOOTH",
"174 -170 OFFCURVE",
"242 -103 OFFCURVE",
"242 29 CURVE SMOOTH"
);
},
{
closed = 1;
nodes = (
"242 734 OFFCURVE",
"236 742 OFFCURVE",
"224 742 CURVE SMOOTH",
"62 742 LINE SMOOTH",
"50 742 OFFCURVE",
"42 734 OFFCURVE",
"42 719 CURVE SMOOTH",
"42 600 LINE SMOOTH",
"42 583 OFFCURVE",
"49 574 OFFCURVE",
"69 574 CURVE SMOOTH",
"210 574 LINE SMOOTH",
"210 574 OFFCURVE",
"242 583 OFFCURVE",
"242 603 CURVE SMOOTH",
"242 721 LINE SMOOTH"
);
}
);
};
layerId = "258ED206-D907-4350-8EBA-CBDDA1C16BF7";
paths = (
{
closed = 1;
nodes = (
"242 530 LINE",
"42 530 LINE",
"42 29 LINE",
"42 7 OFFCURVE",
"31 -6 OFFCURVE",
"-7 -14 CURVE",
"-37 -19 LINE",
"-36 -153 LINE",
"-36 -153 OFFCURVE",
"-21 -170 OFFCURVE",
"32 -170 CURVE",
"174 -170 OFFCURVE",
"242 -103 OFFCURVE",
"242 29 CURVE SMOOTH"
);
},
{
closed = 1;
nodes = (
"42 742 LINE",
"42 574 LINE",
"242 574 LINE",
"242 742 LINE"
);
}
);
width = 297;
},
{
background = {
paths = (
{
closed = 1;
nodes = (
"143 520 LINE SMOOTH",
"143 527 OFFCURVE",
"141 530 OFFCURVE",
"135 530 CURVE SMOOTH",
"113 530 LINE SMOOTH",
"106 530 OFFCURVE",
"103 527 OFFCURVE",
"103 520 CURVE SMOOTH",
"103 -46 LINE SMOOTH",
"103 -110 OFFCURVE",
"82 -132 OFFCURVE",
"29 -133 CURVE SMOOTH",
"-29 -134 LINE SMOOTH",
"-33 -134 OFFCURVE",
"-35 -136 OFFCURVE",
"-35 -140 CURVE SMOOTH",
"-35 -161 LINE SMOOTH",
"-35 -169 OFFCURVE",
"-29 -170 OFFCURVE",
"30 -170 CURVE SMOOTH",
"121 -170 OFFCURVE",
"143 -133 OFFCURVE",
"143 -51 CURVE SMOOTH"
);
},
{
closed = 1;
nodes = (
"148 737 OFFCURVE",
"143 742 OFFCURVE",
"136 742 CURVE SMOOTH",
"110 742 LINE SMOOTH",
"103 742 OFFCURVE",
"98 737 OFFCURVE",
"98 729 CURVE SMOOTH",
"98 658 LINE SMOOTH",
"98 650 OFFCURVE",
"100 644 OFFCURVE",
"109 644 CURVE SMOOTH",
"136 644 LINE SMOOTH",
"146 644 OFFCURVE",
"148 650 OFFCURVE",
"148 660 CURVE SMOOTH",
"148 729 LINE SMOOTH"
);
}
);
};
layerId = "91AB5BCA-6A50-42DA-B2F7-8181BF189245";
paths = (
{
closed = 1;
nodes = (
"143 530 LINE",
"103 530 LINE",
"103 -46 LINE SMOOTH",
"103 -110 OFFCURVE",
"82 -132 OFFCURVE",
"29 -133 CURVE SMOOTH",
"-35 -134 LINE",
"-35 -161 LINE SMOOTH",
"-35 -161 OFFCURVE",
"-29 -170 OFFCURVE",
"30 -170 CURVE SMOOTH",
"121 -170 OFFCURVE",
"143 -133 OFFCURVE",
"143 -51 CURVE SMOOTH"
);
},
{
closed = 1;
nodes = (
"98 742 LINE",
"98 644 LINE",
"148 644 LINE",
"148 742 LINE"
);
}
);
width = 238;
}
);
rightMetricsKey = n;
unicode = 006A;
},
{
glyphname = jdotless;
lastChange = "2016-11-02 00:47:50 +0000";
layers = (
{
anchors = (
{
name = top;
position = "{142, 530}";
}
);
background = {
anchors = (
{
name = top;
position = "{142, 530}";
}
);
paths = (
{
closed = 1;
nodes = (
"242 510 LINE SMOOTH",
"242 522 OFFCURVE",
"236 530 OFFCURVE",
"224 530 CURVE SMOOTH",
"62 530 LINE SMOOTH",
"50 530 OFFCURVE",
"42 522 OFFCURVE",
"42 507 CURVE SMOOTH",
"42 36 LINE SMOOTH",
"42 2 OFFCURVE",
"31 -6 OFFCURVE",
"18 -10 CURVE SMOOTH",
"-17 -16 LINE SMOOTH",
"-30 -19 OFFCURVE",
"-37 -32 OFFCURVE",
"-37 -43 CURVE SMOOTH",
"-36 -145 LINE SMOOTH",
"-36 -166 OFFCURVE",
"-24 -170 OFFCURVE",
"32 -170 CURVE SMOOTH",
"174 -170 OFFCURVE",
"242 -103 OFFCURVE",
"242 29 CURVE SMOOTH"
);
}
);
};
layerId = "258ED206-D907-4350-8EBA-CBDDA1C16BF7";
paths = (
{
closed = 1;
nodes = (
"242 530 LINE",
"42 530 LINE",
"42 29 LINE",
"42 7 OFFCURVE",
"31 -6 OFFCURVE",
"-7 -14 CURVE",
"-37 -19 LINE",
"-36 -153 LINE",
"-36 -153 OFFCURVE",
"-21 -170 OFFCURVE",
"32 -170 CURVE",
"174 -170 OFFCURVE",
"242 -103 OFFCURVE",
"242 29 CURVE SMOOTH"
);
}
);
width = 293;
},
{
anchors = (
{
name = top;
position = "{111, 530}";
}
);
background = {
anchors = (
{
name = top;
position = "{111, 530}";
}
);
paths = (
{
closed = 1;
nodes = (
"131 520 LINE SMOOTH",
"131 527 OFFCURVE",
"129 530 OFFCURVE",
"123 530 CURVE SMOOTH",
"101 530 LINE SMOOTH",
"94 530 OFFCURVE",
"91 527 OFFCURVE",
"91 520 CURVE SMOOTH",
"91 -46 LINE SMOOTH",
"91 -110 OFFCURVE",
"70 -132 OFFCURVE",
"17 -133 CURVE SMOOTH",
"-41 -134 LINE SMOOTH",
"-45 -134 OFFCURVE",
"-47 -136 OFFCURVE",
"-47 -140 CURVE SMOOTH",
"-47 -161 LINE SMOOTH",
"-47 -169 OFFCURVE",
"-41 -170 OFFCURVE",
"18 -170 CURVE SMOOTH",
"109 -170 OFFCURVE",
"131 -133 OFFCURVE",
"131 -51 CURVE SMOOTH"
);
}
);
};
layerId = "91AB5BCA-6A50-42DA-B2F7-8181BF189245";
paths = (
{
closed = 1;
nodes = (
"131 530 LINE",
"91 530 LINE",
"91 -46 LINE SMOOTH",
"91 -110 OFFCURVE",
"70 -132 OFFCURVE",
"17 -133 CURVE SMOOTH",
"-47 -134 LINE",
"-47 -161 LINE SMOOTH",
"-47 -169 OFFCURVE",
"-41 -170 OFFCURVE",
"18 -170 CURVE SMOOTH",
"109 -170 OFFCURVE",
"131 -133 OFFCURVE",
"131 -51 CURVE SMOOTH"
);
}
);
width = 222;
}
);
unicode = 0237;
},
{
glyphname = k;
lastChange = "2017-03-01 19:02:26 +0000";
layers = (
{
anchors = (
{
name = bottom;
position = "{300, 0}";
}
);
background = {
anchors = (
{
name = bottom;
position = "{300, 0}";
}
);
paths = (
{
closed = 1;
nodes = (
"453 337 LINE SMOOTH",
"444 355 OFFCURVE",
"446 361 OFFCURVE",
"455 372 CURVE SMOOTH",
"584 501 LINE SMOOTH",
"597 515 OFFCURVE",
"593 530 OFFCURVE",
"570 530 CURVE SMOOTH",
"433 530 LINE SMOOTH",
"423 530 OFFCURVE",
"412 523 OFFCURVE",
"402 513 CURVE SMOOTH",
"252 344 LINE SMOOTH",
"244 335 OFFCURVE",
"240 340 OFFCURVE",
"240 346 CURVE SMOOTH",
"240 721 LINE SMOOTH",
"240 734 OFFCURVE",
"234 742 OFFCURVE",
"222 742 CURVE SMOOTH",
"59 742 LINE SMOOTH",
"48 742 OFFCURVE",
"40 734 OFFCURVE",
"40 719 CURVE SMOOTH",
"40 25 LINE SMOOTH",
"40 8 OFFCURVE",
"46 0 OFFCURVE",
"67 0 CURVE SMOOTH",
"208 0 LINE SMOOTH",
"231 0 OFFCURVE",
"240 8 OFFCURVE",
"240 29 CURVE SMOOTH",
"240 130 LINE SMOOTH",
"240 146 OFFCURVE",
"243 153 OFFCURVE",
"249 158 CURVE SMOOTH",
"297 203 LINE SMOOTH",
"307 213 OFFCURVE",
"312 211 OFFCURVE",
"318 198 CURVE SMOOTH",
"390 26 LINE SMOOTH",
"397 10 OFFCURVE",
"406 0 OFFCURVE",
"423 0 CURVE SMOOTH",
"594 0 LINE SMOOTH",
"612 0 OFFCURVE",
"619 17 OFFCURVE",
"613 28 CURVE SMOOTH"
);
}
);
};
layerId = "258ED206-D907-4350-8EBA-CBDDA1C16BF7";
paths = (
{
closed = 1;
nodes = (
"442 359 LINE",
"613 530 LINE",
"417 530 LINE",
"240 330 LINE",
"240 782 LINE",
"40 782 LINE",
"40 0 LINE",
"240 0 LINE",
"240 150 LINE",
"311 216 LINE",
"401 0 LINE",
"627 0 LINE"
);
}
);
width = 632;
},
{
anchors = (
{
name = bottom;
position = "{272, 0}";
}
);
background = {
anchors = (
{
name = bottom;
position = "{272, 0}";
}
);
paths = (
{
closed = 1;
nodes = (
"305 331 LINE SMOOTH",
"302 336 OFFCURVE",
"303 339 OFFCURVE",
"306 342 CURVE SMOOTH",
"475 515 LINE SMOOTH",
"484 524 OFFCURVE",
"483 530 OFFCURVE",
"473 530 CURVE SMOOTH",
"441 530 LINE SMOOTH",
"434 530 OFFCURVE",
"431 528 OFFCURVE",
"424 520 CURVE",
"140 229 LINE SMOOTH",
"132 221 OFFCURVE",
"130 222 OFFCURVE",
"130 234 CURVE SMOOTH",
"130 732 LINE SMOOTH",
"130 740 OFFCURVE",
"128 742 OFFCURVE",
"121 742 CURVE SMOOTH",
"99 742 LINE SMOOTH",
"92 742 OFFCURVE",
"90 740 OFFCURVE",
"90 732 CURVE SMOOTH",
"90 10 LINE SMOOTH",
"90 2 OFFCURVE",
"92 0 OFFCURVE",
"101 0 CURVE SMOOTH",
"118 0 LINE SMOOTH",
"128 0 OFFCURVE",
"130 2 OFFCURVE",
"130 12 CURVE SMOOTH",
"130 152 LINE SMOOTH",
"130 159 OFFCURVE",
"132 164 OFFCURVE",
"137 169 CURVE SMOOTH",
"265 299 LINE SMOOTH",
"270 304 OFFCURVE",
"271 302 OFFCURVE",
"273 299 CURVE SMOOTH",
"455 7 LINE SMOOTH",
"458 2 OFFCURVE",
"461 0 OFFCURVE",
"467 0 CURVE SMOOTH",
"498 0 LINE SMOOTH",
"507 0 OFFCURVE",
"508 4 OFFCURVE",
"503 12 CURVE SMOOTH"
);
}
);
};
layerId = "91AB5BCA-6A50-42DA-B2F7-8181BF189245";
paths = (
{
closed = 1;
nodes = (
"301 337 LINE",
"490 530 LINE",
"434 530 LINE",
"130 219 LINE",
"130 782 LINE",
"90 782 LINE",
"90 0 LINE",
"130 0 LINE",
"130 162 LINE",
"270 304 LINE",
"459 0 LINE",
"510 0 LINE"
);
}
);
width = 560;
}
);
leftMetricsKey = n;
rightKerningGroup = k;
unicode = 006B;
},
{
glyphname = kgreenlandic;
lastChange = "2017-01-26 17:38:40 +0000";
layers = (
{
background = {
paths = (
{
closed = 1;
nodes = (
"473 337 LINE SMOOTH",
"464 355 OFFCURVE",
"466 361 OFFCURVE",
"475 372 CURVE SMOOTH",
"604 501 LINE SMOOTH",
"617 515 OFFCURVE",
"613 530 OFFCURVE",
"590 530 CURVE SMOOTH",
"453 530 LINE SMOOTH",
"443 530 OFFCURVE",
"432 523 OFFCURVE",
"422 513 CURVE SMOOTH",
"272 344 LINE SMOOTH",
"264 335 OFFCURVE",
"260 340 OFFCURVE",
"260 346 CURVE SMOOTH",
"260 509 LINE SMOOTH",
"260 522 OFFCURVE",
"254 530 OFFCURVE",
"242 530 CURVE SMOOTH",
"79 530 LINE SMOOTH",
"68 530 OFFCURVE",
"60 522 OFFCURVE",
"60 507 CURVE SMOOTH",
"60 25 LINE SMOOTH",
"60 8 OFFCURVE",
"66 0 OFFCURVE",
"87 0 CURVE SMOOTH",
"228 0 LINE SMOOTH",
"251 0 OFFCURVE",
"260 8 OFFCURVE",
"260 29 CURVE SMOOTH",
"260 130 LINE SMOOTH",
"260 146 OFFCURVE",
"263 153 OFFCURVE",
"269 158 CURVE SMOOTH",
"317 203 LINE SMOOTH",
"327 213 OFFCURVE",
"332 211 OFFCURVE",
"338 198 CURVE SMOOTH",
"410 26 LINE SMOOTH",
"417 10 OFFCURVE",
"426 0 OFFCURVE",
"443 0 CURVE SMOOTH",
"614 0 LINE SMOOTH",
"632 0 OFFCURVE",
"639 17 OFFCURVE",
"633 28 CURVE SMOOTH"
);
}
);
};
layerId = "258ED206-D907-4350-8EBA-CBDDA1C16BF7";
paths = (
{
closed = 1;
nodes = (
"462 359 LINE",
"633 530 LINE",
"437 530 LINE",
"260 330 LINE",
"260 530 LINE",
"60 530 LINE",
"60 0 LINE",
"260 0 LINE",
"260 150 LINE",
"331 216 LINE",
"421 0 LINE",
"647 0 LINE"
);
}
);
width = 652;
},
{
background = {
paths = (
{
closed = 1;
nodes = (
"321 331 LINE SMOOTH",
"318 336 OFFCURVE",
"319 339 OFFCURVE",
"322 342 CURVE SMOOTH",
"491 515 LINE SMOOTH",
"500 524 OFFCURVE",
"499 530 OFFCURVE",
"489 530 CURVE SMOOTH",
"457 530 LINE SMOOTH",
"450 530 OFFCURVE",
"447 528 OFFCURVE",
"440 520 CURVE",
"156 229 LINE SMOOTH",
"148 221 OFFCURVE",
"146 222 OFFCURVE",
"146 234 CURVE SMOOTH",
"146 520 LINE SMOOTH",
"146 528 OFFCURVE",
"144 530 OFFCURVE",
"137 530 CURVE SMOOTH",
"115 530 LINE SMOOTH",
"108 530 OFFCURVE",
"106 528 OFFCURVE",
"106 520 CURVE SMOOTH",
"106 10 LINE SMOOTH",
"106 2 OFFCURVE",
"108 0 OFFCURVE",
"117 0 CURVE SMOOTH",
"134 0 LINE SMOOTH",
"144 0 OFFCURVE",
"146 2 OFFCURVE",
"146 12 CURVE SMOOTH",
"146 152 LINE SMOOTH",
"146 159 OFFCURVE",
"148 164 OFFCURVE",
"153 169 CURVE SMOOTH",
"281 299 LINE SMOOTH",
"286 304 OFFCURVE",
"287 302 OFFCURVE",
"289 299 CURVE SMOOTH",
"471 7 LINE SMOOTH",
"474 2 OFFCURVE",
"477 0 OFFCURVE",
"483 0 CURVE SMOOTH",
"514 0 LINE SMOOTH",
"523 0 OFFCURVE",
"524 4 OFFCURVE",
"519 12 CURVE SMOOTH"
);
}
);
};
layerId = "91AB5BCA-6A50-42DA-B2F7-8181BF189245";
paths = (
{
closed = 1;
nodes = (
"317 337 LINE",
"506 530 LINE",
"450 530 LINE",
"146 219 LINE",
"146 530 LINE",
"106 530 LINE",
"106 0 LINE",
"146 0 LINE",
"146 162 LINE",
"286 304 LINE",
"475 0 LINE",
"526 0 LINE"
);
}
);
width = 562;
}
);
leftMetricsKey = k;
rightKerningGroup = k;
rightMetricsKey = k;
unicode = 0138;
},
{
glyphname = l;
lastChange = "2017-03-01 19:02:18 +0000";
layers = (
{
anchors = (
{
name = bottom;
position = "{130, 0}";
},
{
name = top;
position = "{144, 742}";
},
{
name = topright;
position = "{331, 530}";
}
);
background = {
anchors = (
{
name = bottom;
position = "{88, 0}";
},
{
name = top;
position = "{144, 742}";
},
{
name = topright;
position = "{331, 530}";
}
);
paths = (
{
closed = 1;
nodes = (
"321 129 LINE",
"321 129 OFFCURVE",
"295 131 OFFCURVE",
"286 133 CURVE SMOOTH",
"247 142 OFFCURVE",
"240 163 OFFCURVE",
"240 190 CURVE SMOOTH",
"240 742 LINE",
"43 742 LINE",
"40 173 LINE",
"40 95 OFFCURVE",
"51 -1 OFFCURVE",
"246 2 CURVE SMOOTH",
"272 3 OFFCURVE",
"288 5 OFFCURVE",
"321 9 CURVE"
);
}
);
};
layerId = "258ED206-D907-4350-8EBA-CBDDA1C16BF7";
paths = (
{
closed = 1;
nodes = (
"242 0 LINE",
"242 782 LINE",
"43 782 LINE",
"40 0 LINE"
);
}
);
width = 282;
},
{
anchors = (
{
name = bottom;
position = "{110, 0}";
},
{
name = top;
position = "{110, 782}";
},
{
name = topright;
position = "{255, 742}";
}
);
background = {
anchors = (
{
name = bottom;
position = "{110, 0}";
},
{
name = top;
position = "{110, 742}";
},
{
name = topright;
position = "{255, 742}";
}
);
paths = (
{
closed = 1;
nodes = (
"240 36 LINE",
"230 36 OFFCURVE",
"217 36 OFFCURVE",
"201 36 CURVE SMOOTH",
"137 36 OFFCURVE",
"130 87 OFFCURVE",
"130 130 CURVE",
"130 742 LINE",
"90 742 LINE",
"90 130 LINE",
"90 57 OFFCURVE",
"118 2 OFFCURVE",
"189 2 CURVE SMOOTH",
"213 2 OFFCURVE",
"227 3 OFFCURVE",
"240 6 CURVE"
);
}
);
};
layerId = "91AB5BCA-6A50-42DA-B2F7-8181BF189245";
paths = (
{
closed = 1;
nodes = (
"130 0 LINE",
"130 782 LINE",
"90 782 LINE",
"90 0 LINE"
);
}
);
width = 220;
}
);
leftMetricsKey = n;
rightMetricsKey = n;
unicode = 006C;
},
{
glyphname = lslash;
lastChange = "2016-11-02 00:47:50 +0000";
layers = (
{
background = {
components = (
{
name = l;
transform = "{1, 0, 0, 1, 40, 0}";
}
);
paths = (
{
closed = 1;
nodes = (
"344 507 OFFCURVE",
"337 511 OFFCURVE",
"320 500 CURVE SMOOTH",
"39 324 LINE SMOOTH",
"27 316 OFFCURVE",
"20 305 OFFCURVE",
"20 290 CURVE SMOOTH",
"20 170 LINE SMOOTH",
"20 153 OFFCURVE",
"26 150 OFFCURVE",
"46 163 CURVE SMOOTH",
"324 345 LINE SMOOTH",
"337 354 OFFCURVE",
"344 366 OFFCURVE",
"344 378 CURVE SMOOTH",
"344 491 LINE SMOOTH"
);
}
);
};
components = (
{
name = l;
transform = "{1, 0, 0, 1, 40, 0}";
}
);
layerId = "258ED206-D907-4350-8EBA-CBDDA1C16BF7";
paths = (
{
closed = 1;
nodes = (
"20 312 LINE",
"20 146 LINE",
"344 358 LINE",
"344 515 LINE"
);
}
);
width = 374;
},
{
background = {
components = (
{
name = l;
transform = "{1, 0, 0, 1, 10, 0}";
}
);
paths = (
{
closed = 1;
nodes = (
"240 437 OFFCURVE",
"238 439 OFFCURVE",
"233 435 CURVE SMOOTH",
"8 225 LINE SMOOTH",
"5 222 OFFCURVE",
"3 219 OFFCURVE",
"3 215 CURVE SMOOTH",
"3 186 LINE SMOOTH",
"3 181 OFFCURVE",
"5 177 OFFCURVE",
"10 181 CURVE SMOOTH",
"234 392 LINE SMOOTH",
"238 396 OFFCURVE",
"240 399 OFFCURVE",
"240 403 CURVE SMOOTH",
"240 433 LINE SMOOTH"
);
}
);
};
components = (
{
name = l;
transform = "{1, 0, 0, 1, 6, 0}";
}
);
layerId = "91AB5BCA-6A50-42DA-B2F7-8181BF189245";
paths = (
{
closed = 1;
nodes = (
"3 220 LINE",
"3 174 LINE",
"240 398 LINE",
"240 442 LINE"
);
}
);
width = 226;
}
);
unicode = 0142;
},
{
glyphname = m;
lastChange = "2017-02-17 18:26:32 +0000";
layers = (
{
background = {
guideLines = (
{
angle = 90;
position = "{323, 331}";
showMeasurement = 1;
}
);
paths = (
{
closed = 1;
nodes = (
"207 0 LINE SMOOTH",
"231 0 OFFCURVE",
"240 8 OFFCURVE",
"240 29 CURVE SMOOTH",
"240 349 LINE",
"259 383 OFFCURVE",
"284 399 OFFCURVE",
"314 399 CURVE SMOOTH",
"346 399 OFFCURVE",
"366 381 OFFCURVE",
"366 351 CURVE SMOOTH",
"366 25 LINE SMOOTH",
"366 6 OFFCURVE",
"373 0 OFFCURVE",
"389 0 CURVE SMOOTH",
"535 0 LINE SMOOTH",
"556 0 OFFCURVE",
"565 10 OFFCURVE",
"565 30 CURVE SMOOTH",
"565 333 LINE SMOOTH",
"565 342 OFFCURVE",
"566 350 OFFCURVE",
"573 360 CURVE SMOOTH",
"588 381 OFFCURVE",
"614 399 OFFCURVE",
"639 399 CURVE SMOOTH",
"670 399 OFFCURVE",
"691 381 OFFCURVE",
"691 351 CURVE SMOOTH",
"691 25 LINE SMOOTH",
"691 6 OFFCURVE",
"697 0 OFFCURVE",
"714 0 CURVE SMOOTH",
"860 0 LINE SMOOTH",
"881 0 OFFCURVE",
"891 10 OFFCURVE",
"891 30 CURVE SMOOTH",
"891 373 LINE SMOOTH",
"891 480 OFFCURVE",
"827 540 OFFCURVE",
"737 540 CURVE SMOOTH",
"677 540 OFFCURVE",
"601 497 OFFCURVE",
"564 446 CURVE SMOOTH",
"559 440 OFFCURVE",
"554 440 OFFCURVE",
"552 445 CURVE SMOOTH",
"529 507 OFFCURVE",
"477 541 OFFCURVE",
"410 541 CURVE SMOOTH",
"349 541 OFFCURVE",
"293 507 OFFCURVE",
"250 461 CURVE SMOOTH",
"242 453 OFFCURVE",
"237 457 OFFCURVE",
"237 465 CURVE SMOOTH",
"237 510 LINE SMOOTH",
"237 522 OFFCURVE",
"231 530 OFFCURVE",
"219 530 CURVE SMOOTH",
"59 530 LINE SMOOTH",
"48 530 OFFCURVE",
"40 521 OFFCURVE",
"40 507 CURVE SMOOTH",
"40 25 LINE SMOOTH",
"40 7 OFFCURVE",
"47 0 OFFCURVE",
"66 0 CURVE SMOOTH"
);
}
);
};
guideLines = (
{
angle = 90;
position = "{323, 331}";
showMeasurement = 1;
}
);
layerId = "258ED206-D907-4350-8EBA-CBDDA1C16BF7";
paths = (
{
closed = 1;
nodes = (
"240 0 LINE",
"240 350 LINE",
"240 380 OFFCURVE",
"273 399 OFFCURVE",
"303 399 CURVE SMOOTH",
"333 399 OFFCURVE",
"366 380 OFFCURVE",
"366 350 CURVE SMOOTH",
"366 0 LINE",
"565 0 LINE",
"565 318 LINE SMOOTH",
"565 327 OFFCURVE",
"565 336 OFFCURVE",
"565 350 CURVE SMOOTH",
"565 380 OFFCURVE",
"599 399 OFFCURVE",
"629 399 CURVE SMOOTH",
"659 399 OFFCURVE",
"691 380 OFFCURVE",
"691 350 CURVE SMOOTH",
"691 0 LINE",
"891 0 LINE",
"891 373 LINE SMOOTH",
"891 480 OFFCURVE",
"827 540 OFFCURVE",
"737 540 CURVE SMOOTH",
"679 540 OFFCURVE",
"604 501 OFFCURVE",
"556 438 CURVE",
"530 503 OFFCURVE",
"483 541 OFFCURVE",
"410 541 CURVE SMOOTH",
"344 541 OFFCURVE",
"283 501 OFFCURVE",
"237 447 CURVE",
"237 530 LINE",
"40 530 LINE",
"40 0 LINE"
);
}
);
width = 931;
},
{
background = {
guideLines = (
{
position = "{270, 454}";
}
);
paths = (
{
closed = 1;
nodes = (
"121 0 LINE SMOOTH",
"127 0 OFFCURVE",
"130 3 OFFCURVE",
"130 9 CURVE SMOOTH",
"130 410 LINE",
"206 471 OFFCURVE",
"251 502 OFFCURVE",
"318 502 CURVE SMOOTH",
"398 502 OFFCURVE",
"431 455 OFFCURVE",
"431 377 CURVE SMOOTH",
"431 9 LINE SMOOTH",
"431 3 OFFCURVE",
"435 0 OFFCURVE",
"440 0 CURVE SMOOTH",
"462 0 LINE SMOOTH",
"467 0 OFFCURVE",
"471 3 OFFCURVE",
"471 10 CURVE SMOOTH",
"471 393 LINE SMOOTH",
"471 407 OFFCURVE",
"476 413 OFFCURVE",
"488 423 CURVE SMOOTH",
"527 455 OFFCURVE",
"586 502 OFFCURVE",
"659 502 CURVE SMOOTH",
"739 502 OFFCURVE",
"772 455 OFFCURVE",
"772 377 CURVE SMOOTH",
"772 9 LINE SMOOTH",
"772 3 OFFCURVE",
"775 0 OFFCURVE",
"781 0 CURVE SMOOTH",
"803 0 LINE SMOOTH",
"809 0 OFFCURVE",
"812 3 OFFCURVE",
"812 10 CURVE SMOOTH",
"812 393 LINE SMOOTH",
"812 480 OFFCURVE",
"760 540 OFFCURVE",
"660 540 CURVE SMOOTH",
"591 540 OFFCURVE",
"548 511 OFFCURVE",
"476 457 CURVE SMOOTH",
"470 452 OFFCURVE",
"463 448 OFFCURVE",
"461 454 CURVE SMOOTH",
"448 494 OFFCURVE",
"403 540 OFFCURVE",
"319 540 CURVE SMOOTH",
"250 540 OFFCURVE",
"207 511 OFFCURVE",
"135 457 CURVE SMOOTH",
"129 452 OFFCURVE",
"127 453 OFFCURVE",
"127 460 CURVE SMOOTH",
"127 522 LINE SMOOTH",
"127 528 OFFCURVE",
"125 530 OFFCURVE",
"119 530 CURVE SMOOTH",
"98 530 LINE SMOOTH",
"92 530 OFFCURVE",
"90 527 OFFCURVE",
"90 521 CURVE SMOOTH",
"90 9 LINE SMOOTH",
"90 3 OFFCURVE",
"93 0 OFFCURVE",
"99 0 CURVE SMOOTH"
);
}
);
};
guideLines = (
{
position = "{378, 454}";
}
);
layerId = "91AB5BCA-6A50-42DA-B2F7-8181BF189245";
paths = (
{
closed = 1;
nodes = (
"130 0 LINE",
"130 410 LINE",
"206 471 OFFCURVE",
"251 502 OFFCURVE",
"318 502 CURVE SMOOTH",
"398 502 OFFCURVE",
"431 455 OFFCURVE",
"431 377 CURVE SMOOTH",
"431 0 LINE",
"471 0 LINE",
"471 393 LINE SMOOTH",
"471 407 OFFCURVE",
"476 413 OFFCURVE",
"488 423 CURVE SMOOTH",
"527 455 OFFCURVE",
"586 502 OFFCURVE",
"659 502 CURVE SMOOTH",
"739 502 OFFCURVE",
"772 455 OFFCURVE",
"772 377 CURVE SMOOTH",
"772 0 LINE",
"812 0 LINE",
"812 393 LINE SMOOTH",
"812 480 OFFCURVE",
"760 540 OFFCURVE",
"660 540 CURVE SMOOTH",
"598 540 OFFCURVE",
"563 522 OFFCURVE",
"463 448 CURVE",
"445 504 OFFCURVE",
"394 540 OFFCURVE",
"319 540 CURVE SMOOTH",
"247 540 OFFCURVE",
"202 509 OFFCURVE",
"127 451 CURVE",
"127 530 LINE",
"90 530 LINE",
"90 0 LINE"
);
}
);
width = 902;
}
);
leftKerningGroup = n;
leftMetricsKey = n;
rightMetricsKey = n;
unicode = 006D;
},
